<svg width="550" height="106" viewBox="0 0 550 106" fill="none" xmlns="http://www.w3.org/2000/svg">
<path d="M0 48C0 21.4903 21.4903 0 48 0H530C541.046 0 550 8.9543 550 20V76C550 87.0457 541.046 96 530 96H48C21.4903 96 0 74.5097 0 48Z" fill="#FDFEFF"/>
<g filter="url(#filter0_d_1603_417)">
<path d="M99 76C99 73.2386 101.239 71 104 71H177C179.761 71 182 73.2386 182 76V82C182 84.7614 179.761 87 177 87H104C101.239 87 99 84.7614 99 82V76Z" fill="#FDFEFF"/>
<path d="M99.1 76C99.1 73.2938 101.294 71.1 104 71.1H177C179.706 71.1 181.9 73.2938 181.9 76V82C181.9 84.7062 179.706 86.9 177 86.9H104C101.294 86.9 99.1 84.7062 99.1 82V76Z" stroke="#8F8F8F" stroke-opacity="0.7" stroke-width="0.2"/>
</g>
<g filter="url(#filter1_dii_1603_417)">
<circle cx="48" cy="48" r="29" fill="#F8F8F8"/>
</g>
<g filter="url(#filter2_di_1603_417)">
<circle cx="47.9995" cy="47.9995" r="20.9604" fill="url(#paint0_linear_1603_417)"/>
</g>
<rect x="39.6719" y="38.7734" width="6.30131" height="18.4538" rx="3.15066" fill="white"/>
<rect x="50.0234" y="38.7734" width="6.30131" height="18.4538" rx="3.15066" fill="white"/>
<path d="M278.37 83.15C277.837 83.15 277.37 83.0383 276.97 82.815C276.57 82.5917 276.258 82.28 276.035 81.88C275.812 81.48 275.7 81.0133 275.7 80.48V78.32C275.7 77.7867 275.812 77.32 276.035 76.92C276.258 76.52 276.57 76.2083 276.97 75.985C277.37 75.7617 277.837 75.65 278.37 75.65C278.903 75.65 279.37 75.7617 279.77 75.985C280.17 76.2083 280.482 76.52 280.705 76.92C280.928 77.32 281.04 77.7867 281.04 78.32V80.48C281.04 81.0133 280.928 81.48 280.705 81.88C280.482 82.28 280.17 82.5917 279.77 82.815C279.37 83.0383 278.903 83.15 278.37 83.15ZM278.37 81.86C278.61 81.86 278.827 81.8033 279.02 81.69C279.213 81.5767 279.367 81.4233 279.48 81.23C279.593 81.0367 279.65 80.82 279.65 80.58V78.21C279.65 77.97 279.593 77.7533 279.48 77.56C279.367 77.3667 279.213 77.2133 279.02 77.1C278.827 76.9867 278.61 76.93 278.37 76.93C278.13 76.93 277.913 76.9867 277.72 77.1C277.527 77.2133 277.373 77.3667 277.26 77.56C277.147 77.7533 277.09 77.97 277.09 78.21V80.58C277.09 80.82 277.147 81.0367 277.26 81.23C277.373 81.4233 277.527 81.5767 277.72 81.69C277.913 81.8033 278.13 81.86 278.37 81.86ZM282.838 82.4V81.04H284.198V82.4H282.838ZM282.848 79.56V78.2H284.208V79.56H282.848ZM288.683 83.15C288.149 83.15 287.683 83.0383 287.283 82.815C286.883 82.5917 286.571 82.28 286.348 81.88C286.124 81.48 286.013 81.0133 286.013 80.48V78.32C286.013 77.7867 286.124 77.32 286.348 76.92C286.571 76.52 286.883 76.2083 287.283 75.985C287.683 75.7617 288.149 75.65 288.683 75.65C289.216 75.65 289.683 75.7617 290.083 75.985C290.483 76.2083 290.794 76.52 291.018 76.92C291.241 77.32 291.353 77.7867 291.353 78.32V80.48C291.353 81.0133 291.241 81.48 291.018 81.88C290.794 82.28 290.483 82.5917 290.083 82.815C289.683 83.0383 289.216 83.15 288.683 83.15ZM288.683 81.86C288.923 81.86 289.139 81.8033 289.333 81.69C289.526 81.5767 289.679 81.4233 289.793 81.23C289.906 81.0367 289.963 80.82 289.963 80.58V78.21C289.963 77.97 289.906 77.7533 289.793 77.56C289.679 77.3667 289.526 77.2133 289.333 77.1C289.139 76.9867 288.923 76.93 288.683 76.93C288.443 76.93 288.226 76.9867 288.033 77.1C287.839 77.2133 287.686 77.3667 287.573 77.56C287.459 77.7533 287.403 77.97 287.403 78.21V80.58C287.403 80.82 287.459 81.0367 287.573 81.23C287.686 81.4233 287.839 81.5767 288.033 81.69C288.226 81.8033 288.443 81.86 288.683 81.86ZM294.001 83V77.28L292.651 78.11V76.61L294.001 75.8H295.391V83H294.001Z" fill="#000C14"/>
<path d="M301.114 75.8H302.474L300.554 83H299.194L301.114 75.8ZM308.708 83V81.88H305.578V80.61L307.848 75.8H309.408L307.138 80.61H308.708V78.81H310.088V80.61H310.728V81.88H310.088V83H308.708ZM312.33 82.4V81.04H313.69V82.4H312.33ZM312.34 79.56V78.2H313.7V79.56H312.34ZM318.175 83.15C317.641 83.15 317.175 83.0383 316.775 82.815C316.375 82.5917 316.063 82.28 315.84 81.88C315.616 81.48 315.505 81.0133 315.505 80.48V78.32C315.505 77.7867 315.616 77.32 315.84 76.92C316.063 76.52 316.375 76.2083 316.775 75.985C317.175 75.7617 317.641 75.65 318.175 75.65C318.708 75.65 319.175 75.7617 319.575 75.985C319.975 76.2083 320.286 76.52 320.51 76.92C320.733 77.32 320.845 77.7867 320.845 78.32V80.48C320.845 81.0133 320.733 81.48 320.51 81.88C320.286 82.28 319.975 82.5917 319.575 82.815C319.175 83.0383 318.708 83.15 318.175 83.15ZM318.175 81.86C318.415 81.86 318.631 81.8033 318.825 81.69C319.018 81.5767 319.171 81.4233 319.285 81.23C319.398 81.0367 319.455 80.82 319.455 80.58V78.21C319.455 77.97 319.398 77.7533 319.285 77.56C319.171 77.3667 319.018 77.2133 318.825 77.1C318.631 76.9867 318.415 76.93 318.175 76.93C317.935 76.93 317.718 76.9867 317.525 77.1C317.331 77.2133 317.178 77.3667 317.065 77.56C316.951 77.7533 316.895 77.97 316.895 78.21V80.58C316.895 80.82 316.951 81.0367 317.065 81.23C317.178 81.4233 317.331 81.5767 317.525 81.69C317.718 81.8033 317.935 81.86 318.175 81.86ZM323.493 83V77.28L322.143 78.11V76.61L323.493 75.8H324.883V83H323.493Z" fill="#8F8F8F"/>
<path d="M163.165 81.99V80.81L166.185 78.13C166.412 77.93 166.572 77.7417 166.665 77.565C166.758 77.3883 166.805 77.2233 166.805 77.07C166.805 76.85 166.76 76.655 166.67 76.485C166.58 76.3117 166.453 76.1767 166.29 76.08C166.127 75.98 165.935 75.93 165.715 75.93C165.485 75.93 165.282 75.9833 165.105 76.09C164.932 76.1933 164.797 76.3317 164.7 76.505C164.603 76.675 164.558 76.86 164.565 77.06H163.165C163.165 76.5667 163.273 76.14 163.49 75.78C163.707 75.42 164.008 75.1417 164.395 74.945C164.782 74.7483 165.232 74.65 165.745 74.65C166.215 74.65 166.635 74.7533 167.005 74.96C167.378 75.1633 167.672 75.4483 167.885 75.815C168.098 76.1817 168.205 76.6067 168.205 77.09C168.205 77.4467 168.155 77.7433 168.055 77.98C167.955 78.2133 167.807 78.43 167.61 78.63C167.413 78.8267 167.172 79.05 166.885 79.3L164.935 81.01L164.825 80.71H168.205V81.99H163.165ZM168.8 82L170.73 79.27L168.84 76.6H170.44L171.52 78.2L172.58 76.6H174.18L172.29 79.27L174.23 82H172.63L171.52 80.34L170.4 82H168.8Z" fill="#8F8F8F"/>
<path d="M133.016 82V76.28L131.666 77.11V75.61L133.016 74.8H134.406V82H133.016ZM136.127 82V80.64H137.487V82H136.127ZM141.25 82.15C140.887 82.15 140.545 82.075 140.225 81.925C139.908 81.775 139.635 81.5667 139.405 81.3C139.175 81.0333 139.01 80.7233 138.91 80.37L140.22 80.02C140.263 80.19 140.34 80.3367 140.45 80.46C140.563 80.5833 140.693 80.68 140.84 80.75C140.99 80.8167 141.143 80.85 141.3 80.85C141.507 80.85 141.695 80.8 141.865 80.7C142.038 80.6 142.175 80.465 142.275 80.295C142.378 80.125 142.43 79.9367 142.43 79.73C142.43 79.5233 142.378 79.335 142.275 79.165C142.175 78.995 142.038 78.86 141.865 78.76C141.695 78.66 141.507 78.61 141.3 78.61C141.047 78.61 140.84 78.6533 140.68 78.74C140.52 78.8233 140.4 78.9033 140.32 78.98L139.17 78.63L139.39 74.8H143.32V76.07H140.14L140.62 75.62L140.47 78.09L140.24 77.81C140.42 77.6633 140.625 77.5567 140.855 77.49C141.085 77.4233 141.3 77.39 141.5 77.39C141.953 77.39 142.352 77.4917 142.695 77.695C143.042 77.895 143.312 78.1717 143.505 78.525C143.702 78.875 143.8 79.2767 143.8 79.73C143.8 80.1833 143.682 80.5933 143.445 80.96C143.208 81.3233 142.897 81.6133 142.51 81.83C142.123 82.0433 141.703 82.15 141.25 82.15ZM144.399 82L146.329 79.27L144.439 76.6H146.039L147.119 78.2L148.179 76.6H149.779L147.889 79.27L149.829 82H148.229L147.119 80.34L145.999 82H144.399Z" fill="#1CB693"/>
<path d="M108.862 82V76.28L107.512 77.11V75.61L108.862 74.8H110.252V82H108.862ZM111.553 82L113.483 79.27L111.593 76.6H113.193L114.273 78.2L115.333 76.6H116.933L115.043 79.27L116.983 82H115.383L114.273 80.34L113.153 82H111.553Z" fill="#8F8F8F"/>
<path d="M99.84 23V14.36H105.42V15.716H101.286V17.846H104.7V19.202H101.286V21.644H105.42V23H99.84ZM109.362 23.18C108.562 23.18 107.912 23 107.412 22.64C106.912 22.28 106.608 21.774 106.5 21.122L107.976 20.894C108.052 21.214 108.22 21.466 108.48 21.65C108.74 21.834 109.068 21.926 109.464 21.926C109.812 21.926 110.08 21.858 110.268 21.722C110.46 21.582 110.556 21.392 110.556 21.152C110.556 21.004 110.52 20.886 110.448 20.798C110.38 20.706 110.228 20.618 109.992 20.534C109.756 20.45 109.394 20.344 108.906 20.216C108.362 20.072 107.93 19.918 107.61 19.754C107.29 19.586 107.06 19.388 106.92 19.16C106.78 18.932 106.71 18.656 106.71 18.332C106.71 17.928 106.816 17.576 107.028 17.276C107.24 16.976 107.536 16.746 107.916 16.586C108.296 16.422 108.744 16.34 109.26 16.34C109.764 16.34 110.21 16.418 110.598 16.574C110.99 16.73 111.306 16.952 111.546 17.24C111.786 17.528 111.934 17.866 111.99 18.254L110.514 18.518C110.478 18.242 110.352 18.024 110.136 17.864C109.924 17.704 109.64 17.614 109.284 17.594C108.944 17.574 108.67 17.626 108.462 17.75C108.254 17.87 108.15 18.04 108.15 18.26C108.15 18.384 108.192 18.49 108.276 18.578C108.36 18.666 108.528 18.754 108.78 18.842C109.036 18.93 109.416 19.038 109.92 19.166C110.436 19.298 110.848 19.45 111.156 19.622C111.468 19.79 111.692 19.992 111.828 20.228C111.968 20.464 112.038 20.75 112.038 21.086C112.038 21.738 111.8 22.25 111.324 22.622C110.852 22.994 110.198 23.18 109.362 23.18ZM116.166 23.18C115.498 23.18 114.928 23.032 114.456 22.736C113.984 22.436 113.622 22.028 113.37 21.512C113.122 20.996 112.996 20.412 112.992 19.76C112.996 19.096 113.126 18.508 113.382 17.996C113.642 17.48 114.01 17.076 114.486 16.784C114.962 16.488 115.528 16.34 116.184 16.34C116.92 16.34 117.542 16.526 118.05 16.898C118.562 17.266 118.896 17.77 119.052 18.41L117.612 18.8C117.5 18.452 117.314 18.182 117.054 17.99C116.794 17.794 116.498 17.696 116.166 17.696C115.79 17.696 115.48 17.786 115.236 17.966C114.992 18.142 114.812 18.386 114.696 18.698C114.58 19.01 114.522 19.364 114.522 19.76C114.522 20.376 114.66 20.874 114.936 21.254C115.212 21.634 115.622 21.824 116.166 21.824C116.55 21.824 116.852 21.736 117.072 21.56C117.296 21.384 117.464 21.13 117.576 20.798L119.052 21.128C118.852 21.788 118.502 22.296 118.002 22.652C117.502 23.004 116.89 23.18 116.166 23.18ZM122.684 23.186C122.204 23.186 121.808 23.106 121.496 22.946C121.184 22.786 120.936 22.582 120.752 22.334C120.568 22.086 120.432 21.822 120.344 21.542C120.256 21.262 120.198 20.998 120.17 20.75C120.146 20.498 120.134 20.294 120.134 20.138V16.52H121.598V19.64C121.598 19.84 121.612 20.066 121.64 20.318C121.668 20.566 121.732 20.806 121.832 21.038C121.936 21.266 122.088 21.454 122.288 21.602C122.492 21.75 122.766 21.824 123.11 21.824C123.294 21.824 123.476 21.794 123.656 21.734C123.836 21.674 123.998 21.572 124.142 21.428C124.29 21.28 124.408 21.078 124.496 20.822C124.584 20.566 124.628 20.242 124.628 19.85L125.486 20.216C125.486 20.768 125.378 21.268 125.162 21.716C124.95 22.164 124.636 22.522 124.22 22.79C123.804 23.054 123.292 23.186 122.684 23.186ZM124.802 23V20.99H124.628V16.52H126.08V23H124.802ZM130.58 23.18C129.912 23.18 129.342 23.032 128.87 22.736C128.398 22.436 128.036 22.028 127.784 21.512C127.536 20.996 127.41 20.412 127.406 19.76C127.41 19.096 127.54 18.508 127.796 17.996C128.056 17.48 128.424 17.076 128.9 16.784C129.376 16.488 129.942 16.34 130.598 16.34C131.334 16.34 131.956 16.526 132.464 16.898C132.976 17.266 133.31 17.77 133.466 18.41L132.026 18.8C131.914 18.452 131.728 18.182 131.468 17.99C131.208 17.794 130.912 17.696 130.58 17.696C130.204 17.696 129.894 17.786 129.65 17.966C129.406 18.142 129.226 18.386 129.11 18.698C128.994 19.01 128.936 19.364 128.936 19.76C128.936 20.376 129.074 20.874 129.35 21.254C129.626 21.634 130.036 21.824 130.58 21.824C130.964 21.824 131.266 21.736 131.486 21.56C131.71 21.384 131.878 21.13 131.99 20.798L133.466 21.128C133.266 21.788 132.916 22.296 132.416 22.652C131.916 23.004 131.304 23.18 130.58 23.18ZM139.15 23V19.88C139.15 19.676 139.136 19.45 139.108 19.202C139.08 18.954 139.014 18.716 138.91 18.488C138.81 18.256 138.658 18.066 138.454 17.918C138.254 17.77 137.982 17.696 137.638 17.696C137.454 17.696 137.272 17.726 137.092 17.786C136.912 17.846 136.748 17.95 136.6 18.098C136.456 18.242 136.34 18.442 136.252 18.698C136.164 18.95 136.12 19.274 136.12 19.67L135.262 19.304C135.262 18.752 135.368 18.252 135.58 17.804C135.796 17.356 136.112 17 136.528 16.736C136.944 16.468 137.456 16.334 138.064 16.334C138.544 16.334 138.94 16.414 139.252 16.574C139.564 16.734 139.812 16.938 139.996 17.186C140.18 17.434 140.316 17.698 140.404 17.978C140.492 18.258 140.548 18.524 140.572 18.776C140.6 19.024 140.614 19.226 140.614 19.382V23H139.15ZM134.656 23V14.36H135.946V18.908H136.12V23H134.656ZM143.992 23.18C143.524 23.18 143.128 23.092 142.804 22.916C142.48 22.736 142.234 22.498 142.066 22.202C141.902 21.906 141.82 21.58 141.82 21.224C141.82 20.912 141.872 20.632 141.976 20.384C142.08 20.132 142.24 19.916 142.456 19.736C142.672 19.552 142.952 19.402 143.296 19.286C143.556 19.202 143.86 19.126 144.208 19.058C144.56 18.99 144.94 18.928 145.348 18.872C145.76 18.812 146.19 18.748 146.638 18.68L146.122 18.974C146.126 18.526 146.026 18.196 145.822 17.984C145.618 17.772 145.274 17.666 144.79 17.666C144.498 17.666 144.216 17.734 143.944 17.87C143.672 18.006 143.482 18.24 143.374 18.572L142.054 18.158C142.214 17.61 142.518 17.17 142.966 16.838C143.418 16.506 144.026 16.34 144.79 16.34C145.366 16.34 145.872 16.434 146.308 16.622C146.748 16.81 147.074 17.118 147.286 17.546C147.402 17.774 147.472 18.008 147.496 18.248C147.52 18.484 147.532 18.742 147.532 19.022V23H146.266V21.596L146.476 21.824C146.184 22.292 145.842 22.636 145.45 22.856C145.062 23.072 144.576 23.18 143.992 23.18ZM144.28 22.028C144.608 22.028 144.888 21.97 145.12 21.854C145.352 21.738 145.536 21.596 145.672 21.428C145.812 21.26 145.906 21.102 145.954 20.954C146.03 20.77 146.072 20.56 146.08 20.324C146.092 20.084 146.098 19.89 146.098 19.742L146.542 19.874C146.106 19.942 145.732 20.002 145.42 20.054C145.108 20.106 144.84 20.156 144.616 20.204C144.392 20.248 144.194 20.298 144.022 20.354C143.854 20.414 143.712 20.484 143.596 20.564C143.48 20.644 143.39 20.736 143.326 20.84C143.266 20.944 143.236 21.066 143.236 21.206C143.236 21.366 143.276 21.508 143.356 21.632C143.436 21.752 143.552 21.848 143.704 21.92C143.86 21.992 144.052 22.028 144.28 22.028ZM153.576 23V19.88C153.576 19.676 153.562 19.45 153.534 19.202C153.506 18.954 153.44 18.716 153.336 18.488C153.236 18.256 153.084 18.066 152.88 17.918C152.68 17.77 152.408 17.696 152.064 17.696C151.88 17.696 151.698 17.726 151.518 17.786C151.338 17.846 151.174 17.95 151.026 18.098C150.882 18.242 150.766 18.442 150.678 18.698C150.59 18.95 150.546 19.274 150.546 19.67L149.688 19.304C149.688 18.752 149.794 18.252 150.006 17.804C150.222 17.356 150.538 17 150.954 16.736C151.37 16.468 151.882 16.334 152.49 16.334C152.97 16.334 153.366 16.414 153.678 16.574C153.99 16.734 154.238 16.938 154.422 17.186C154.606 17.434 154.742 17.698 154.83 17.978C154.918 18.258 154.974 18.524 154.998 18.776C155.026 19.024 155.04 19.226 155.04 19.382V23H153.576ZM149.082 23V16.52H150.372V18.53H150.546V23H149.082ZM159.098 23.18C158.502 23.18 157.982 23.03 157.538 22.73C157.094 22.43 156.75 22.022 156.506 21.506C156.262 20.99 156.14 20.408 156.14 19.76C156.14 19.104 156.262 18.52 156.506 18.008C156.754 17.492 157.104 17.086 157.556 16.79C158.008 16.49 158.54 16.34 159.152 16.34C159.768 16.34 160.284 16.49 160.7 16.79C161.12 17.086 161.438 17.492 161.654 18.008C161.87 18.524 161.978 19.108 161.978 19.76C161.978 20.404 161.87 20.986 161.654 21.506C161.438 22.022 161.116 22.43 160.688 22.73C160.26 23.03 159.73 23.18 159.098 23.18ZM159.32 21.884C159.708 21.884 160.02 21.796 160.256 21.62C160.496 21.44 160.67 21.19 160.778 20.87C160.89 20.55 160.946 20.18 160.946 19.76C160.946 19.336 160.89 18.966 160.778 18.65C160.67 18.33 160.5 18.082 160.268 17.906C160.036 17.726 159.736 17.636 159.368 17.636C158.98 17.636 158.66 17.732 158.408 17.924C158.156 18.112 157.97 18.368 157.85 18.692C157.73 19.012 157.67 19.368 157.67 19.76C157.67 20.156 157.728 20.516 157.844 20.84C157.964 21.16 158.146 21.414 158.39 21.602C158.634 21.79 158.944 21.884 159.32 21.884ZM160.946 23V18.452H160.766V14.36H162.224V23H160.946ZM166.768 23.18C166.12 23.18 165.554 23.034 165.07 22.742C164.586 22.45 164.21 22.048 163.942 21.536C163.678 21.02 163.546 20.428 163.546 19.76C163.546 19.08 163.682 18.484 163.954 17.972C164.226 17.46 164.604 17.06 165.088 16.772C165.572 16.484 166.132 16.34 166.768 16.34C167.42 16.34 167.988 16.486 168.472 16.778C168.956 17.07 169.332 17.474 169.6 17.99C169.868 18.502 170.002 19.092 170.002 19.76C170.002 20.432 169.866 21.026 169.594 21.542C169.326 22.054 168.95 22.456 168.466 22.748C167.982 23.036 167.416 23.18 166.768 23.18ZM166.768 21.824C167.344 21.824 167.772 21.632 168.052 21.248C168.332 20.864 168.472 20.368 168.472 19.76C168.472 19.132 168.33 18.632 168.046 18.26C167.762 17.884 167.336 17.696 166.768 17.696C166.38 17.696 166.06 17.784 165.808 17.96C165.56 18.132 165.376 18.374 165.256 18.686C165.136 18.994 165.076 19.352 165.076 19.76C165.076 20.388 165.218 20.89 165.502 21.266C165.79 21.638 166.212 21.824 166.768 21.824ZM171.804 22.22V20.738H173.286V22.22H171.804ZM171.816 18.782V17.3H173.298V18.782H171.816ZM181.452 14.342L181.362 14.966C181.178 14.95 181.032 14.982 180.924 15.062C180.816 15.138 180.742 15.248 180.702 15.392C180.666 15.532 180.66 15.692 180.684 15.872H181.452V17.414H179.97V15.812C179.97 15.288 180.094 14.892 180.342 14.624C180.59 14.352 180.96 14.258 181.452 14.342ZM179.442 14.342L179.352 14.966C179.168 14.95 179.022 14.982 178.914 15.062C178.806 15.138 178.732 15.248 178.692 15.392C178.656 15.532 178.65 15.692 178.674 15.872H179.442V17.414H177.96V15.812C177.96 15.288 178.084 14.892 178.332 14.624C178.58 14.352 178.95 14.258 179.442 14.342ZM183.254 23V14.36H188.834V15.716H184.7V17.846H188.114V19.202H184.7V21.644H188.834V23H183.254ZM192.026 23L189.674 16.52H191.12L192.752 21.218L194.378 16.52H195.83L193.478 23H192.026ZM198.355 23.18C197.887 23.18 197.491 23.092 197.167 22.916C196.843 22.736 196.597 22.498 196.429 22.202C196.265 21.906 196.183 21.58 196.183 21.224C196.183 20.912 196.235 20.632 196.339 20.384C196.443 20.132 196.603 19.916 196.819 19.736C197.035 19.552 197.315 19.402 197.659 19.286C197.919 19.202 198.223 19.126 198.571 19.058C198.923 18.99 199.303 18.928 199.711 18.872C200.123 18.812 200.553 18.748 201.001 18.68L200.485 18.974C200.489 18.526 200.389 18.196 200.185 17.984C199.981 17.772 199.637 17.666 199.153 17.666C198.861 17.666 198.579 17.734 198.307 17.87C198.035 18.006 197.845 18.24 197.737 18.572L196.417 18.158C196.577 17.61 196.881 17.17 197.329 16.838C197.781 16.506 198.389 16.34 199.153 16.34C199.729 16.34 200.235 16.434 200.671 16.622C201.111 16.81 201.437 17.118 201.649 17.546C201.765 17.774 201.835 18.008 201.859 18.248C201.883 18.484 201.895 18.742 201.895 19.022V23H200.629V21.596L200.839 21.824C200.547 22.292 200.205 22.636 199.813 22.856C199.425 23.072 198.939 23.18 198.355 23.18ZM198.643 22.028C198.971 22.028 199.251 21.97 199.483 21.854C199.715 21.738 199.899 21.596 200.035 21.428C200.175 21.26 200.269 21.102 200.317 20.954C200.393 20.77 200.435 20.56 200.443 20.324C200.455 20.084 200.461 19.89 200.461 19.742L200.905 19.874C200.469 19.942 200.095 20.002 199.783 20.054C199.471 20.106 199.203 20.156 198.979 20.204C198.755 20.248 198.557 20.298 198.385 20.354C198.217 20.414 198.075 20.484 197.959 20.564C197.843 20.644 197.753 20.736 197.689 20.84C197.629 20.944 197.599 21.066 197.599 21.206C197.599 21.366 197.639 21.508 197.719 21.632C197.799 21.752 197.915 21.848 198.067 21.92C198.223 21.992 198.415 22.028 198.643 22.028ZM203.577 23V14.18H205.023V23H203.577ZM209.25 23.186C208.77 23.186 208.374 23.106 208.062 22.946C207.75 22.786 207.502 22.582 207.318 22.334C207.134 22.086 206.998 21.822 206.91 21.542C206.822 21.262 206.764 20.998 206.736 20.75C206.712 20.498 206.7 20.294 206.7 20.138V16.52H208.164V19.64C208.164 19.84 208.178 20.066 208.206 20.318C208.234 20.566 208.298 20.806 208.398 21.038C208.502 21.266 208.654 21.454 208.854 21.602C209.058 21.75 209.332 21.824 209.676 21.824C209.86 21.824 210.042 21.794 210.222 21.734C210.402 21.674 210.564 21.572 210.708 21.428C210.856 21.28 210.974 21.078 211.062 20.822C211.15 20.566 211.194 20.242 211.194 19.85L212.052 20.216C212.052 20.768 211.944 21.268 211.728 21.716C211.516 22.164 211.202 22.522 210.786 22.79C210.37 23.054 209.858 23.186 209.25 23.186ZM211.368 23V20.99H211.194V16.52H212.646V23H211.368ZM218.814 23V19.88C218.814 19.676 218.8 19.45 218.772 19.202C218.744 18.954 218.678 18.716 218.574 18.488C218.474 18.256 218.322 18.066 218.118 17.918C217.918 17.77 217.646 17.696 217.302 17.696C217.118 17.696 216.936 17.726 216.756 17.786C216.576 17.846 216.412 17.95 216.264 18.098C216.12 18.242 216.004 18.442 215.916 18.698C215.828 18.95 215.784 19.274 215.784 19.67L214.926 19.304C214.926 18.752 215.032 18.252 215.244 17.804C215.46 17.356 215.776 17 216.192 16.736C216.608 16.468 217.12 16.334 217.728 16.334C218.208 16.334 218.604 16.414 218.916 16.574C219.228 16.734 219.476 16.938 219.66 17.186C219.844 17.434 219.98 17.698 220.068 17.978C220.156 18.258 220.212 18.524 220.236 18.776C220.264 19.024 220.278 19.226 220.278 19.382V23H218.814ZM214.32 23V16.52H215.61V18.53H215.784V23H214.32ZM223.656 23.18C223.188 23.18 222.792 23.092 222.468 22.916C222.144 22.736 221.898 22.498 221.73 22.202C221.566 21.906 221.484 21.58 221.484 21.224C221.484 20.912 221.536 20.632 221.64 20.384C221.744 20.132 221.904 19.916 222.12 19.736C222.336 19.552 222.616 19.402 222.96 19.286C223.22 19.202 223.524 19.126 223.872 19.058C224.224 18.99 224.604 18.928 225.012 18.872C225.424 18.812 225.854 18.748 226.302 18.68L225.786 18.974C225.79 18.526 225.69 18.196 225.486 17.984C225.282 17.772 224.938 17.666 224.454 17.666C224.162 17.666 223.88 17.734 223.608 17.87C223.336 18.006 223.146 18.24 223.038 18.572L221.718 18.158C221.878 17.61 222.182 17.17 222.63 16.838C223.082 16.506 223.69 16.34 224.454 16.34C225.03 16.34 225.536 16.434 225.972 16.622C226.412 16.81 226.738 17.118 226.95 17.546C227.066 17.774 227.136 18.008 227.16 18.248C227.184 18.484 227.196 18.742 227.196 19.022V23H225.93V21.596L226.14 21.824C225.848 22.292 225.506 22.636 225.114 22.856C224.726 23.072 224.24 23.18 223.656 23.18ZM223.944 22.028C224.272 22.028 224.552 21.97 224.784 21.854C225.016 21.738 225.2 21.596 225.336 21.428C225.476 21.26 225.57 21.102 225.618 20.954C225.694 20.77 225.736 20.56 225.744 20.324C225.756 20.084 225.762 19.89 225.762 19.742L226.206 19.874C225.77 19.942 225.396 20.002 225.084 20.054C224.772 20.106 224.504 20.156 224.28 20.204C224.056 20.248 223.858 20.298 223.686 20.354C223.518 20.414 223.376 20.484 223.26 20.564C223.144 20.644 223.054 20.736 222.99 20.84C222.93 20.944 222.9 21.066 222.9 21.206C222.9 21.366 222.94 21.508 223.02 21.632C223.1 21.752 223.216 21.848 223.368 21.92C223.524 21.992 223.716 22.028 223.944 22.028ZM231.16 23V14.36H232.462L235.45 20.48L238.438 14.36H239.74V23H238.39V17.462L235.738 23H235.162L232.516 17.462V23H231.16ZM244.288 23.18C243.64 23.18 243.074 23.034 242.59 22.742C242.106 22.45 241.73 22.048 241.462 21.536C241.198 21.02 241.066 20.428 241.066 19.76C241.066 19.08 241.202 18.484 241.474 17.972C241.746 17.46 242.124 17.06 242.608 16.772C243.092 16.484 243.652 16.34 244.288 16.34C244.94 16.34 245.508 16.486 245.992 16.778C246.476 17.07 246.852 17.474 247.12 17.99C247.388 18.502 247.522 19.092 247.522 19.76C247.522 20.432 247.386 21.026 247.114 21.542C246.846 22.054 246.47 22.456 245.986 22.748C245.502 23.036 244.936 23.18 244.288 23.18ZM244.288 21.824C244.864 21.824 245.292 21.632 245.572 21.248C245.852 20.864 245.992 20.368 245.992 19.76C245.992 19.132 245.85 18.632 245.566 18.26C245.282 17.884 244.856 17.696 244.288 17.696C243.9 17.696 243.58 17.784 243.328 17.96C243.08 18.132 242.896 18.374 242.776 18.686C242.656 18.994 242.596 19.352 242.596 19.76C242.596 20.388 242.738 20.89 243.022 21.266C243.31 21.638 243.732 21.824 244.288 21.824ZM253.326 23V19.88C253.326 19.676 253.312 19.45 253.284 19.202C253.256 18.954 253.19 18.716 253.086 18.488C252.986 18.256 252.834 18.066 252.63 17.918C252.43 17.77 252.158 17.696 251.814 17.696C251.63 17.696 251.448 17.726 251.268 17.786C251.088 17.846 250.924 17.95 250.776 18.098C250.632 18.242 250.516 18.442 250.428 18.698C250.34 18.95 250.296 19.274 250.296 19.67L249.438 19.304C249.438 18.752 249.544 18.252 249.756 17.804C249.972 17.356 250.288 17 250.704 16.736C251.12 16.468 251.632 16.334 252.24 16.334C252.72 16.334 253.116 16.414 253.428 16.574C253.74 16.734 253.988 16.938 254.172 17.186C254.356 17.434 254.492 17.698 254.58 17.978C254.668 18.258 254.724 18.524 254.748 18.776C254.776 19.024 254.79 19.226 254.79 19.382V23H253.326ZM248.832 23V16.52H250.122V18.53H250.296V23H248.832ZM260.154 23C259.726 23.08 259.306 23.114 258.894 23.102C258.486 23.094 258.12 23.02 257.796 22.88C257.472 22.736 257.226 22.51 257.058 22.202C256.91 21.922 256.832 21.636 256.824 21.344C256.816 21.052 256.812 20.722 256.812 20.354V14.72H258.252V20.27C258.252 20.53 258.254 20.758 258.258 20.954C258.266 21.15 258.308 21.31 258.384 21.434C258.528 21.674 258.758 21.808 259.074 21.836C259.39 21.864 259.75 21.848 260.154 21.788V23ZM255.636 17.654V16.52H260.154V17.654H255.636ZM263.359 23.18C262.891 23.18 262.495 23.092 262.171 22.916C261.847 22.736 261.601 22.498 261.433 22.202C261.269 21.906 261.187 21.58 261.187 21.224C261.187 20.912 261.239 20.632 261.343 20.384C261.447 20.132 261.607 19.916 261.823 19.736C262.039 19.552 262.319 19.402 262.663 19.286C262.923 19.202 263.227 19.126 263.575 19.058C263.927 18.99 264.307 18.928 264.715 18.872C265.127 18.812 265.557 18.748 266.005 18.68L265.489 18.974C265.493 18.526 265.393 18.196 265.189 17.984C264.985 17.772 264.641 17.666 264.157 17.666C263.865 17.666 263.583 17.734 263.311 17.87C263.039 18.006 262.849 18.24 262.741 18.572L261.421 18.158C261.581 17.61 261.885 17.17 262.333 16.838C262.785 16.506 263.393 16.34 264.157 16.34C264.733 16.34 265.239 16.434 265.675 16.622C266.115 16.81 266.441 17.118 266.653 17.546C266.769 17.774 266.839 18.008 266.863 18.248C266.887 18.484 266.899 18.742 266.899 19.022V23H265.633V21.596L265.843 21.824C265.551 22.292 265.209 22.636 264.817 22.856C264.429 23.072 263.943 23.18 263.359 23.18ZM263.647 22.028C263.975 22.028 264.255 21.97 264.487 21.854C264.719 21.738 264.903 21.596 265.039 21.428C265.179 21.26 265.273 21.102 265.321 20.954C265.397 20.77 265.439 20.56 265.447 20.324C265.459 20.084 265.465 19.89 265.465 19.742L265.909 19.874C265.473 19.942 265.099 20.002 264.787 20.054C264.475 20.106 264.207 20.156 263.983 20.204C263.759 20.248 263.561 20.298 263.389 20.354C263.221 20.414 263.079 20.484 262.963 20.564C262.847 20.644 262.757 20.736 262.693 20.84C262.633 20.944 262.603 21.066 262.603 21.206C262.603 21.366 262.643 21.508 262.723 21.632C262.803 21.752 262.919 21.848 263.071 21.92C263.227 21.992 263.419 22.028 263.647 22.028ZM272.943 23V19.88C272.943 19.676 272.929 19.45 272.901 19.202C272.873 18.954 272.807 18.716 272.703 18.488C272.603 18.256 272.451 18.066 272.247 17.918C272.047 17.77 271.775 17.696 271.431 17.696C271.247 17.696 271.065 17.726 270.885 17.786C270.705 17.846 270.541 17.95 270.393 18.098C270.249 18.242 270.133 18.442 270.045 18.698C269.957 18.95 269.913 19.274 269.913 19.67L269.055 19.304C269.055 18.752 269.161 18.252 269.373 17.804C269.589 17.356 269.905 17 270.321 16.736C270.737 16.468 271.249 16.334 271.857 16.334C272.337 16.334 272.733 16.414 273.045 16.574C273.357 16.734 273.605 16.938 273.789 17.186C273.973 17.434 274.109 17.698 274.197 17.978C274.285 18.258 274.341 18.524 274.365 18.776C274.393 19.024 274.407 19.226 274.407 19.382V23H272.943ZM268.449 23V16.52H269.739V18.53H269.913V23H268.449ZM278.813 23.18C278.157 23.18 277.581 23.038 277.085 22.754C276.589 22.47 276.201 22.076 275.921 21.572C275.645 21.068 275.507 20.488 275.507 19.832C275.507 19.124 275.643 18.51 275.915 17.99C276.187 17.466 276.565 17.06 277.049 16.772C277.533 16.484 278.093 16.34 278.729 16.34C279.401 16.34 279.971 16.498 280.439 16.814C280.911 17.126 281.261 17.568 281.489 18.14C281.717 18.712 281.803 19.386 281.747 20.162H280.313V19.634C280.309 18.93 280.185 18.416 279.941 18.092C279.697 17.768 279.313 17.606 278.789 17.606C278.197 17.606 277.757 17.79 277.469 18.158C277.181 18.522 277.037 19.056 277.037 19.76C277.037 20.416 277.181 20.924 277.469 21.284C277.757 21.644 278.177 21.824 278.729 21.824C279.085 21.824 279.391 21.746 279.647 21.59C279.907 21.43 280.107 21.2 280.247 20.9L281.675 21.332C281.427 21.916 281.043 22.37 280.523 22.694C280.007 23.018 279.437 23.18 278.813 23.18ZM276.581 20.162V19.07H281.039V20.162H276.581ZM283.086 23V16.52H284.364V18.098L284.208 17.894C284.288 17.678 284.394 17.482 284.526 17.306C284.662 17.126 284.824 16.978 285.012 16.862C285.172 16.754 285.348 16.67 285.54 16.61C285.736 16.546 285.936 16.508 286.14 16.496C286.344 16.48 286.542 16.488 286.734 16.52V17.87C286.542 17.814 286.32 17.796 286.068 17.816C285.82 17.836 285.596 17.906 285.396 18.026C285.196 18.134 285.032 18.272 284.904 18.44C284.78 18.608 284.688 18.8 284.628 19.016C284.568 19.228 284.538 19.458 284.538 19.706V23H283.086ZM291.133 25.88L292.381 22.454L292.405 23.462L289.579 16.52H291.085L293.089 21.656H292.705L294.655 16.52H296.101L292.489 25.88H291.133ZM296.275 23V21.518H297.757V23H296.275ZM299.92 23V21.518H301.402V23H299.92ZM303.564 23V21.518H305.046V23H303.564ZM305.776 17.408L305.86 16.784C306.044 16.8 306.19 16.77 306.298 16.694C306.406 16.614 306.478 16.504 306.514 16.364C306.554 16.22 306.564 16.058 306.544 15.878H305.776V14.336H307.258V15.938C307.258 16.462 307.134 16.858 306.886 17.126C306.638 17.394 306.268 17.488 305.776 17.408ZM307.786 17.408L307.87 16.784C308.054 16.8 308.2 16.77 308.308 16.694C308.416 16.614 308.488 16.504 308.524 16.364C308.564 16.22 308.574 16.058 308.554 15.878H307.786V14.336H309.268V15.938C309.268 16.462 309.144 16.858 308.896 17.126C308.648 17.394 308.278 17.488 307.786 17.408Z" fill="#5F5E5E"/>
<circle cx="530" cy="19" r="12" fill="#D9D9D9" fill-opacity="0.2"/>
<path d="M533.065 20.25C534.135 20.25 535 21.0875 535 22.125C535 23.1625 534.135 24 533.065 24C531.994 24 531.129 23.1625 531.129 22.125C531.129 21.975 531.148 21.8375 531.187 21.6937L528.361 20.2563C528.006 20.6375 527.503 20.875 526.935 20.875C525.865 20.875 525 20.0375 525 19C525 17.9625 525.865 17.125 526.935 17.125C527.503 17.125 528.006 17.3687 528.361 17.7437L531.187 16.3063C531.148 16.1625 531.129 16.025 531.129 15.875C531.129 14.8375 531.994 14 533.065 14C534.135 14 535 14.8375 535 15.875C535 16.9125 534.135 17.75 533.065 17.75C532.497 17.75 531.994 17.5063 531.639 17.1313L528.813 18.5688C528.891 18.8513 528.891 19.1487 528.813 19.4312L531.639 20.8687C531.994 20.4875 532.497 20.25 533.065 20.25Z" fill="#8F8F8F"/>
<rect x="99" y="44" width="228" height="7" rx="3.5" fill="#ADADAD" fill-opacity="0.48"/>
<rect x="99" y="44" width="16" height="8" rx="4" fill="url(#paint1_linear_1603_417)"/>
<rect x="101" y="41" width="16" height="13" rx="6.5" fill="#25FFCD"/>
<rect x="103" y="43" width="12" height="9" rx="4.5" fill="#18A484" fill-opacity="0.4"/>
<circle cx="348" cy="47.8213" r="10" fill="#D9D9D9" fill-opacity="0.2"/>
<g opacity="0.8">
<path d="M342.806 48.875C343.207 48.875 343.536 49.1716 343.592 49.5645C343.689 50.2321 343.925 50.872 344.285 51.4426C344.645 52.0131 345.12 52.5017 345.681 52.8766C346.242 53.2516 346.876 53.5044 347.54 53.6189C348.205 53.7333 348.887 53.7068 349.541 53.541C351.344 53.108 352.675 51.7211 353.06 49.9092C353.213 49.206 353.206 48.4776 353.041 47.7774C352.875 47.0771 352.555 46.4228 352.104 45.8623C351.652 45.3019 351.082 44.8495 350.433 44.5385C349.784 44.2274 349.074 44.0656 348.354 44.0647V46.3015C348.354 46.6623 347.921 46.8386 347.673 46.5821L344.634 43.5436C344.474 43.3833 344.474 43.1347 344.634 42.9744L347.673 39.9359C347.729 39.8805 347.801 39.8431 347.879 39.8283C347.956 39.8136 348.037 39.8222 348.11 39.853C348.182 39.8839 348.245 39.9356 348.288 40.0017C348.332 40.0679 348.355 40.1454 348.354 40.2245V42.4613C352.314 42.4613 355.441 46.053 354.639 50.1577C354.158 52.6511 352.314 54.5672 349.837 55.1203C345.965 55.9862 342.502 53.3566 342.005 49.7729C341.933 49.2999 342.325 48.875 342.806 48.875Z" fill="#8F8F8F"/>
<path fill-rule="evenodd" clip-rule="evenodd" d="M350.1 47.6339C349.956 47.5778 349.804 47.5537 349.627 47.5537C349.451 47.5537 349.299 47.5778 349.154 47.6339C349.01 47.69 348.89 47.7782 348.793 47.8984C348.697 48.0187 348.609 48.171 348.561 48.3554C348.513 48.5398 348.481 48.7563 348.481 49.0128V49.6061C348.481 49.8626 348.513 50.0871 348.569 50.2635C348.625 50.4399 348.705 50.6002 348.809 50.7205C348.914 50.8407 349.034 50.9289 349.178 50.985C349.323 51.0412 349.475 51.0652 349.651 51.0652C349.828 51.0652 349.98 51.0412 350.124 50.985C350.269 50.9289 350.389 50.8407 350.485 50.7205C350.581 50.6002 350.661 50.4479 350.718 50.2635C350.774 50.0791 350.798 49.8626 350.798 49.6061V49.0128C350.798 48.7563 350.766 48.5318 350.71 48.3554C350.653 48.179 350.573 48.0187 350.469 47.8984C350.365 47.7782 350.237 47.69 350.1 47.6339ZM347.358 51.0171V47.5938H347.286L345.867 48.0989V48.6521L346.677 48.4035V51.0171H347.358ZM350.11 49.6949C350.11 49.8472 350.102 49.9755 350.078 50.0797C350.053 50.1839 350.029 50.2721 349.989 50.3362C349.949 50.4004 349.901 50.4485 349.837 50.4725C349.773 50.4966 349.709 50.5126 349.637 50.5126C349.564 50.5126 349.492 50.4966 349.436 50.4725C349.38 50.4485 349.324 50.4004 349.284 50.3362C349.244 50.2721 349.212 50.1839 349.188 50.0797C349.164 49.9755 349.156 49.8472 349.156 49.6949V48.9172C349.156 48.7649 349.164 48.6366 349.188 48.5324C349.212 48.4282 349.236 48.348 349.284 48.2839C349.332 48.2197 349.372 48.1716 349.436 48.1476C349.5 48.1235 349.564 48.1075 349.637 48.1075C349.709 48.1075 349.781 48.1235 349.837 48.1476C349.893 48.1716 349.949 48.2197 349.989 48.2839C350.029 48.348 350.061 48.4282 350.086 48.5324C350.11 48.6366 350.118 48.7649 350.118 48.9172V49.6949H350.11Z" fill="#8F8F8F"/>
</g>
<circle cx="376" cy="47.8213" r="10" fill="#D9D9D9" fill-opacity="0.2"/>
<path d="M381.96 48.8751C381.559 48.8751 381.23 49.1718 381.174 49.5646C381.077 50.2323 380.841 50.8721 380.481 51.4427C380.121 52.0133 379.645 52.5019 379.085 52.8768C378.524 53.2518 377.89 53.5046 377.225 53.6191C376.561 53.7335 375.879 53.707 375.225 53.5412C373.421 53.1082 372.09 51.7213 371.706 49.9094C371.553 49.2062 371.56 48.4778 371.725 47.7775C371.891 47.0772 372.211 46.4229 372.662 45.8624C373.113 45.302 373.684 44.8496 374.333 44.5386C374.982 44.2275 375.692 44.0656 376.412 44.0648V46.3016C376.412 46.6624 376.845 46.8387 377.093 46.5822L380.132 43.5437C380.292 43.3833 380.292 43.1348 380.132 42.9744L377.093 39.9359C377.037 39.8805 376.965 39.8431 376.887 39.8283C376.81 39.8136 376.729 39.8222 376.656 39.853C376.583 39.8839 376.521 39.9356 376.478 40.0017C376.434 40.0679 376.411 40.1454 376.412 40.2245V42.4613C372.451 42.4613 369.324 46.0531 370.126 50.1579C370.607 52.6513 372.451 54.5674 374.929 55.1206C378.801 55.9864 382.264 53.3568 382.761 49.7731C382.834 49.3 382.441 48.8751 381.96 48.8751ZM375.53 51.2803V47.8569H375.458L374.039 48.362V48.9152L374.848 48.6667V51.2803H375.53ZM378.272 47.897C378.127 47.8409 377.975 47.8169 377.799 47.8169C377.622 47.8169 377.47 47.8409 377.326 47.897C377.181 47.9531 377.061 48.0413 376.965 48.1616C376.869 48.2819 376.781 48.4342 376.732 48.6186C376.684 48.803 376.652 49.0194 376.652 49.276V49.8693C376.652 50.1258 376.684 50.3503 376.74 50.5267C376.797 50.7031 376.877 50.8634 376.981 50.9837C377.085 51.1039 377.205 51.1921 377.35 51.2482C377.494 51.3044 377.646 51.3284 377.823 51.3284C377.999 51.3284 378.151 51.3044 378.296 51.2482C378.44 51.1921 378.56 51.1039 378.657 50.9837C378.753 50.8634 378.833 50.7111 378.889 50.5267C378.945 50.3423 378.969 50.1258 378.969 49.8693V49.276C378.969 49.0194 378.937 48.795 378.881 48.6186C378.825 48.4422 378.745 48.2819 378.641 48.1616C378.536 48.0413 378.408 47.9531 378.272 47.897ZM378.28 49.9575C378.28 50.1098 378.272 50.2381 378.248 50.3423C378.224 50.4465 378.2 50.5347 378.16 50.5988C378.119 50.663 378.071 50.7111 378.007 50.7351C377.943 50.7592 377.879 50.7752 377.807 50.7752C377.735 50.7752 377.662 50.7592 377.606 50.7351C377.55 50.7111 377.494 50.663 377.454 50.5988C377.414 50.5347 377.382 50.4465 377.358 50.3423C377.334 50.2381 377.326 50.1098 377.326 49.9575V49.1798C377.326 49.0275 377.334 48.8992 377.358 48.795C377.382 48.6907 377.406 48.6106 377.454 48.5464C377.502 48.4823 377.542 48.4342 377.606 48.4101C377.67 48.3861 377.735 48.37 377.807 48.37C377.879 48.37 377.951 48.3861 378.007 48.4101C378.063 48.4342 378.119 48.4823 378.16 48.5464C378.2 48.6106 378.232 48.6907 378.256 48.795C378.28 48.8992 378.288 49.0275 378.288 49.1798V49.9575H378.28Z" fill="#8F8F8F"/>
<path d="M406.091 39.8223C406.688 39.396 407.517 39.8227 407.517 40.5561V55.0871C407.517 55.8206 406.688 56.2473 406.091 55.8209L401.204 52.3305H398.499C397.503 52.3305 396.695 51.5231 396.695 50.527V45.1163C396.695 44.1202 397.503 43.3127 398.499 43.3127H401.204L406.091 39.8223Z" fill="#8F8F8F"/>
<path d="M410.209 52.2452C411.328 51.1062 412.019 49.5445 412.019 47.8217C412.019 46.0916 411.323 44.524 410.195 43.3838" stroke="#8F8F8F" stroke-width="1.80356" stroke-linecap="round" stroke-linejoin="round"/>
<g filter="url(#filter3_d_1603_417)">
<rect x="423.741" y="37.4213" width="75.8" height="20.8" rx="10.4" fill="#FDFEFF" stroke="#ADADAD" stroke-width="0.2"/>
<path d="M435.256 51.3213V44.8263H432.741V44.1213H438.506V44.8263H435.991V51.3213H435.256ZM440.762 51.4713C440.225 51.4713 439.767 51.3496 439.387 51.1063C439.007 50.863 438.715 50.5263 438.512 50.0963C438.308 49.6663 438.207 49.173 438.207 48.6163C438.207 48.0496 438.31 47.553 438.517 47.1263C438.723 46.6996 439.017 46.368 439.397 46.1313C439.78 45.8913 440.235 45.7713 440.762 45.7713C441.302 45.7713 441.762 45.893 442.142 46.1363C442.525 46.3763 442.817 46.7113 443.017 47.1413C443.22 47.568 443.322 48.0596 443.322 48.6163C443.322 49.183 443.22 49.6813 443.017 50.1113C442.813 50.538 442.52 50.8713 442.137 51.1113C441.753 51.3513 441.295 51.4713 440.762 51.4713ZM440.762 50.7663C441.362 50.7663 441.808 50.568 442.102 50.1713C442.395 49.7713 442.542 49.253 442.542 48.6163C442.542 47.963 442.393 47.443 442.097 47.0563C441.803 46.6696 441.358 46.4763 440.762 46.4763C440.358 46.4763 440.025 46.568 439.762 46.7513C439.502 46.9313 439.307 47.183 439.177 47.5063C439.05 47.8263 438.987 48.1963 438.987 48.6163C438.987 49.2663 439.137 49.788 439.437 50.1813C439.737 50.5713 440.178 50.7663 440.762 50.7663ZM450.865 51.3213L450.87 47.7763C450.87 47.3596 450.753 47.033 450.52 46.7963C450.29 46.5563 449.996 46.4363 449.64 46.4363C449.436 46.4363 449.238 46.483 449.045 46.5763C448.851 46.6696 448.691 46.8196 448.565 47.0263C448.441 47.233 448.38 47.503 448.38 47.8363L447.945 47.7113C447.935 47.3246 448.01 46.9863 448.17 46.6963C448.333 46.4063 448.556 46.1813 448.84 46.0213C449.126 45.858 449.45 45.7763 449.81 45.7763C450.353 45.7763 450.788 45.9446 451.115 46.2813C451.441 46.6146 451.605 47.0663 451.605 47.6363L451.6 51.3213H450.865ZM444.42 51.3213V45.9213H445.08V47.2513H445.16V51.3213H444.42ZM447.65 51.3213L447.655 47.8263C447.655 47.3963 447.54 47.058 447.31 46.8113C447.083 46.5613 446.783 46.4363 446.41 46.4363C446.036 46.4363 445.735 46.5646 445.505 46.8213C445.275 47.0746 445.16 47.413 445.16 47.8363L444.72 47.5963C444.72 47.2496 444.801 46.9396 444.965 46.6663C445.128 46.3896 445.351 46.173 445.635 46.0163C445.918 45.8563 446.24 45.7763 446.6 45.7763C446.943 45.7763 447.248 45.8496 447.515 45.9963C447.785 46.143 447.996 46.3563 448.15 46.6363C448.303 46.9163 448.38 47.2563 448.38 47.6563L448.375 51.3213H447.65ZM455.351 45.0713H454.721L455.321 43.5213H455.951L455.351 45.0713ZM454.446 51.4713C454.04 51.4713 453.698 51.398 453.421 51.2513C453.148 51.1046 452.943 50.9096 452.806 50.6663C452.67 50.423 452.601 50.158 452.601 49.8713C452.601 49.578 452.66 49.328 452.776 49.1213C452.896 48.9113 453.058 48.7396 453.261 48.6063C453.468 48.473 453.706 48.3713 453.976 48.3013C454.25 48.2346 454.551 48.1763 454.881 48.1263C455.215 48.073 455.54 48.028 455.856 47.9913C456.176 47.9513 456.456 47.913 456.696 47.8763L456.436 48.0363C456.446 47.503 456.343 47.108 456.126 46.8513C455.91 46.5946 455.533 46.4663 454.996 46.4663C454.626 46.4663 454.313 46.5496 454.056 46.7163C453.803 46.883 453.625 47.1463 453.521 47.5063L452.806 47.2963C452.93 46.813 453.178 46.438 453.551 46.1713C453.925 45.9046 454.41 45.7713 455.006 45.7713C455.5 45.7713 455.918 45.8646 456.261 46.0513C456.608 46.2346 456.853 46.5013 456.996 46.8513C457.063 47.008 457.106 47.183 457.126 47.3763C457.146 47.5696 457.156 47.7663 457.156 47.9663V51.3213H456.501V49.9663L456.691 50.0463C456.508 50.5096 456.223 50.863 455.836 51.1063C455.45 51.3496 454.986 51.4713 454.446 51.4713ZM454.531 50.8363C454.875 50.8363 455.175 50.7746 455.431 50.6513C455.688 50.528 455.895 50.3596 456.051 50.1463C456.208 49.9296 456.31 49.6863 456.356 49.4163C456.396 49.243 456.418 49.053 456.421 48.8463C456.425 48.6363 456.426 48.4796 456.426 48.3763L456.706 48.5213C456.456 48.5546 456.185 48.588 455.891 48.6213C455.601 48.6546 455.315 48.693 455.031 48.7363C454.751 48.7796 454.498 48.8313 454.271 48.8913C454.118 48.9346 453.97 48.9963 453.826 49.0763C453.683 49.153 453.565 49.2563 453.471 49.3863C453.381 49.5163 453.336 49.678 453.336 49.8713C453.336 50.028 453.375 50.1796 453.451 50.3263C453.531 50.473 453.658 50.5946 453.831 50.6913C454.008 50.788 454.241 50.8363 454.531 50.8363ZM460.473 51.4663C459.839 51.4663 459.318 51.3296 458.908 51.0563C458.501 50.783 458.251 50.403 458.158 49.9163L458.908 49.7913C458.988 50.098 459.169 50.343 459.453 50.5263C459.739 50.7063 460.093 50.7963 460.513 50.7963C460.923 50.7963 461.246 50.7113 461.483 50.5413C461.719 50.368 461.838 50.133 461.838 49.8363C461.838 49.6696 461.799 49.5346 461.723 49.4313C461.649 49.3246 461.498 49.2263 461.268 49.1363C461.038 49.0463 460.694 48.9396 460.238 48.8163C459.748 48.683 459.364 48.5496 459.088 48.4163C458.811 48.283 458.614 48.1296 458.498 47.9563C458.381 47.7796 458.323 47.5646 458.323 47.3113C458.323 47.0046 458.409 46.7363 458.583 46.5063C458.756 46.273 458.996 46.093 459.303 45.9663C459.609 45.8363 459.966 45.7713 460.373 45.7713C460.779 45.7713 461.143 45.838 461.463 45.9713C461.786 46.1013 462.046 46.2846 462.243 46.5213C462.439 46.758 462.556 47.033 462.593 47.3463L461.843 47.4813C461.793 47.1646 461.634 46.9146 461.368 46.7313C461.104 46.5446 460.769 46.448 460.363 46.4413C459.979 46.4313 459.668 46.5046 459.428 46.6613C459.188 46.8146 459.068 47.0196 459.068 47.2763C459.068 47.4196 459.111 47.543 459.198 47.6463C459.284 47.7463 459.441 47.8413 459.668 47.9313C459.898 48.0213 460.224 48.1196 460.648 48.2263C461.144 48.353 461.534 48.4863 461.818 48.6263C462.101 48.7663 462.303 48.9313 462.423 49.1213C462.543 49.3113 462.603 49.5463 462.603 49.8263C462.603 50.3363 462.413 50.738 462.033 51.0313C461.656 51.3213 461.136 51.4663 460.473 51.4663Z" fill="#000C14"/>
<path opacity="0.8" d="M483.641 45.5107L487.261 49.1314L490.882 45.5107" stroke="#000C14" stroke-width="1.01379" stroke-linecap="round" stroke-linejoin="round"/>
</g>
<path d="M155 71V87M125 71V87" stroke="#D6D7D7" stroke-width="0.5"/>
<defs>
<filter id="filter0_d_1603_417" x="84" y="60" width="113" height="46" filterUnits="userSpaceOnUse" color-interpolation-filters="sRGB">
<feFlood flood-opacity="0" result="BackgroundImageFix"/>
<feColorMatrix in="SourceAlpha" type="matrix" values="0 0 0 0 0 0 0 0 0 0 0 0 0 0 0 0 0 0 127 0" result="hardAlpha"/>
<feOffset dy="4"/>
<feGaussianBlur stdDeviation="7.5"/>
<feComposite in2="hardAlpha" operator="out"/>
<feColorMatrix type="matrix" values="0 0 0 0 0.186667 0 0 0 0 0.186667 0 0 0 0 0.186667 0 0 0 0.05 0"/>
<feBlend mode="normal" in2="BackgroundImageFix" result="effect1_dropShadow_1603_417"/>
<feBlend mode="normal" in="SourceGraphic" in2="effect1_dropShadow_1603_417" result="shape"/>
</filter>
<filter id="filter1_dii_1603_417" x="8.13043" y="8.13043" width="90.6087" height="90.6087" filterUnits="userSpaceOnUse" color-interpolation-filters="sRGB">
<feFlood flood-opacity="0" result="BackgroundImageFix"/>
<feColorMatrix in="SourceAlpha" type="matrix" values="0 0 0 0 0 0 0 0 0 0 0 0 0 0 0 0 0 0 127 0" result="hardAlpha"/>
<feOffset dx="10.8696" dy="10.8696"/>
<feGaussianBlur stdDeviation="5.43478"/>
<feColorMatrix type="matrix" values="0 0 0 0 0 0 0 0 0 0 0 0 0 0 0 0 0 0 0.05 0"/>
<feBlend mode="normal" in2="BackgroundImageFix" result="effect1_dropShadow_1603_417"/>
<feBlend mode="normal" in="SourceGraphic" in2="effect1_dropShadow_1603_417" result="shape"/>
<feColorMatrix in="SourceAlpha" type="matrix" values="0 0 0 0 0 0 0 0 0 0 0 0 0 0 0 0 0 0 127 0" result="hardAlpha"/>
<feOffset dx="-10.8696" dy="-10.8696"/>
<feGaussianBlur stdDeviation="10.8696"/>
<feComposite in2="hardAlpha" operator="arithmetic" k2="-1" k3="1"/>
<feColorMatrix type="matrix" values="0 0 0 0 1 0 0 0 0 1 0 0 0 0 1 0 0 0 1 0"/>
<feBlend mode="soft-light" in2="shape" result="effect2_innerShadow_1603_417"/>
<feColorMatrix in="SourceAlpha" type="matrix" values="0 0 0 0 0 0 0 0 0 0 0 0 0 0 0 0 0 0 127 0" result="hardAlpha"/>
<feOffset dx="10.8696" dy="10.8696"/>
<feGaussianBlur stdDeviation="5.43478"/>
<feComposite in2="hardAlpha" operator="arithmetic" k2="-1" k3="1"/>
<feColorMatrix type="matrix" values="0 0 0 0 0 0 0 0 0 0 0 0 0 0 0 0 0 0 0.05 0"/>
<feBlend mode="normal" in2="effect2_innerShadow_1603_417" result="effect3_innerShadow_1603_417"/>
</filter>
<filter id="filter2_di_1603_417" x="16.1695" y="21.6043" width="63.661" height="63.66" filterUnits="userSpaceOnUse" color-interpolation-filters="sRGB">
<feFlood flood-opacity="0" result="BackgroundImageFix"/>
<feColorMatrix in="SourceAlpha" type="matrix" values="0 0 0 0 0 0 0 0 0 0 0 0 0 0 0 0 0 0 127 0" result="hardAlpha"/>
<feOffset dy="5.43478"/>
<feGaussianBlur stdDeviation="5.43478"/>
<feColorMatrix type="matrix" values="0 0 0 0 0.101961 0 0 0 0 0.823529 0 0 0 0 0.658824 0 0 0 0.6 0"/>
<feBlend mode="normal" in2="BackgroundImageFix" result="effect1_dropShadow_1603_417"/>
<feBlend mode="normal" in="SourceGraphic" in2="effect1_dropShadow_1603_417" result="shape"/>
<feColorMatrix in="SourceAlpha" type="matrix" values="0 0 0 0 0 0 0 0 0 0 0 0 0 0 0 0 0 0 127 0" result="hardAlpha"/>
<feOffset dx="10.8696" dy="10.8696"/>
<feGaussianBlur stdDeviation="8.15217"/>
<feComposite in2="hardAlpha" operator="arithmetic" k2="-1" k3="1"/>
<feColorMatrix type="matrix" values="0 0 0 0 1 0 0 0 0 1 0 0 0 0 1 0 0 0 0.2 0"/>
<feBlend mode="normal" in2="shape" result="effect2_innerShadow_1603_417"/>
</filter>
<filter id="filter3_d_1603_417" x="419.641" y="35.3213" width="84" height="29" filterUnits="userSpaceOnUse" color-interpolation-filters="sRGB">
<feFlood flood-opacity="0" result="BackgroundImageFix"/>
<feColorMatrix in="SourceAlpha" type="matrix" values="0 0 0 0 0 0 0 0 0 0 0 0 0 0 0 0 0 0 127 0" result="hardAlpha"/>
<feOffset dy="2"/>
<feGaussianBlur stdDeviation="2"/>
<feComposite in2="hardAlpha" operator="out"/>
<feColorMatrix type="matrix" values="0 0 0 0 0.530833 0 0 0 0 0.530833 0 0 0 0 0.530833 0 0 0 0.13 0"/>
<feBlend mode="normal" in2="BackgroundImageFix" result="effect1_dropShadow_1603_417"/>
<feBlend mode="normal" in="SourceGraphic" in2="effect1_dropShadow_1603_417" result="shape"/>
</filter>
<linearGradient id="paint0_linear_1603_417" x1="47.9995" y1="68.5052" x2="47.9995" y2="27.4937" gradientUnits="userSpaceOnUse">
<stop stop-color="#12AC89"/>
<stop offset="1" stop-color="#25FCCB"/>
</linearGradient>
<linearGradient id="paint1_linear_1603_417" x1="99" y1="48" x2="115" y2="48" gradientUnits="userSpaceOnUse">
<stop stop-color="#25FFCD"/>
<stop offset="1" stop-color="#16997B"/>
</linearGradient>
</defs>
</svg>
