<svg width="550" height="106" viewBox="0 0 550 106" fill="none" xmlns="http://www.w3.org/2000/svg">
<path d="M0 48C0 21.4903 21.4903 0 48 0H530C541.046 0 550 8.9543 550 20V76C550 87.0457 541.046 96 530 96H48C21.4903 96 0 74.5097 0 48V48Z" fill="#FDFEFF"/>
<g filter="url(#filter0_d_1603_416)">
<path d="M99 76C99 73.2386 101.239 71 104 71H177C179.761 71 182 73.2386 182 76V82C182 84.7614 179.761 87 177 87H104C101.239 87 99 84.7614 99 82V76Z" fill="#FDFEFF"/>
<path d="M104 71.1H177C179.706 71.1 181.9 73.2938 181.9 76V82C181.9 84.7062 179.706 86.9 177 86.9H104C101.294 86.9 99.1 84.7062 99.1 82V76C99.1 73.2938 101.294 71.1 104 71.1Z" stroke="#8F8F8F" stroke-opacity="0.7" stroke-width="0.2"/>
</g>
<g filter="url(#filter1_dii_1603_416)">
<circle cx="48" cy="48" r="29" fill="#F8F8F8"/>
</g>
<g filter="url(#filter2_di_1603_416)">
<circle cx="47.9995" cy="47.9995" r="20.9604" fill="url(#paint0_linear_1603_416)"/>
</g>
<path d="M278.37 82.15C277.837 82.15 277.37 82.0383 276.97 81.815C276.57 81.5917 276.258 81.28 276.035 80.88C275.812 80.48 275.7 80.0133 275.7 79.48V77.32C275.7 76.7867 275.812 76.32 276.035 75.92C276.258 75.52 276.57 75.2083 276.97 74.985C277.37 74.7617 277.837 74.65 278.37 74.65C278.903 74.65 279.37 74.7617 279.77 74.985C280.17 75.2083 280.482 75.52 280.705 75.92C280.928 76.32 281.04 76.7867 281.04 77.32V79.48C281.04 80.0133 280.928 80.48 280.705 80.88C280.482 81.28 280.17 81.5917 279.77 81.815C279.37 82.0383 278.903 82.15 278.37 82.15ZM278.37 80.86C278.61 80.86 278.827 80.8033 279.02 80.69C279.213 80.5767 279.367 80.4233 279.48 80.23C279.593 80.0367 279.65 79.82 279.65 79.58V77.21C279.65 76.97 279.593 76.7533 279.48 76.56C279.367 76.3667 279.213 76.2133 279.02 76.1C278.827 75.9867 278.61 75.93 278.37 75.93C278.13 75.93 277.913 75.9867 277.72 76.1C277.527 76.2133 277.373 76.3667 277.26 76.56C277.147 76.7533 277.09 76.97 277.09 77.21V79.58C277.09 79.82 277.147 80.0367 277.26 80.23C277.373 80.4233 277.527 80.5767 277.72 80.69C277.913 80.8033 278.13 80.86 278.37 80.86ZM282.838 81.4V80.04H284.198V81.4H282.838ZM282.848 78.56V77.2H284.208V78.56H282.848ZM288.683 82.15C288.149 82.15 287.683 82.0383 287.283 81.815C286.883 81.5917 286.571 81.28 286.348 80.88C286.124 80.48 286.013 80.0133 286.013 79.48V77.32C286.013 76.7867 286.124 76.32 286.348 75.92C286.571 75.52 286.883 75.2083 287.283 74.985C287.683 74.7617 288.149 74.65 288.683 74.65C289.216 74.65 289.683 74.7617 290.083 74.985C290.483 75.2083 290.794 75.52 291.018 75.92C291.241 76.32 291.353 76.7867 291.353 77.32V79.48C291.353 80.0133 291.241 80.48 291.018 80.88C290.794 81.28 290.483 81.5917 290.083 81.815C289.683 82.0383 289.216 82.15 288.683 82.15ZM288.683 80.86C288.923 80.86 289.139 80.8033 289.333 80.69C289.526 80.5767 289.679 80.4233 289.793 80.23C289.906 80.0367 289.963 79.82 289.963 79.58V77.21C289.963 76.97 289.906 76.7533 289.793 76.56C289.679 76.3667 289.526 76.2133 289.333 76.1C289.139 75.9867 288.923 75.93 288.683 75.93C288.443 75.93 288.226 75.9867 288.033 76.1C287.839 76.2133 287.686 76.3667 287.573 76.56C287.459 76.7533 287.403 76.97 287.403 77.21V79.58C287.403 79.82 287.459 80.0367 287.573 80.23C287.686 80.4233 287.839 80.5767 288.033 80.69C288.226 80.8033 288.443 80.86 288.683 80.86ZM295.421 82.15C294.887 82.15 294.421 82.0383 294.021 81.815C293.621 81.5917 293.309 81.28 293.086 80.88C292.862 80.48 292.751 80.0133 292.751 79.48V77.32C292.751 76.7867 292.862 76.32 293.086 75.92C293.309 75.52 293.621 75.2083 294.021 74.985C294.421 74.7617 294.887 74.65 295.421 74.65C295.954 74.65 296.421 74.7617 296.821 74.985C297.221 75.2083 297.532 75.52 297.756 75.92C297.979 76.32 298.091 76.7867 298.091 77.32V79.48C298.091 80.0133 297.979 80.48 297.756 80.88C297.532 81.28 297.221 81.5917 296.821 81.815C296.421 82.0383 295.954 82.15 295.421 82.15ZM295.421 80.86C295.661 80.86 295.877 80.8033 296.071 80.69C296.264 80.5767 296.417 80.4233 296.531 80.23C296.644 80.0367 296.701 79.82 296.701 79.58V77.21C296.701 76.97 296.644 76.7533 296.531 76.56C296.417 76.3667 296.264 76.2133 296.071 76.1C295.877 75.9867 295.661 75.93 295.421 75.93C295.181 75.93 294.964 75.9867 294.771 76.1C294.577 76.2133 294.424 76.3667 294.311 76.56C294.197 76.7533 294.141 76.97 294.141 77.21V79.58C294.141 79.82 294.197 80.0367 294.311 80.23C294.424 80.4233 294.577 80.5767 294.771 80.69C294.964 80.8033 295.181 80.86 295.421 80.86Z" fill="#000C14"/>
<path d="M303.311 74.8H304.671L302.751 82H301.391L303.311 74.8ZM310.905 82V80.88H307.775V79.61L310.045 74.8H311.605L309.335 79.61H310.905V77.81H312.285V79.61H312.925V80.88H312.285V82H310.905ZM314.528 81.4V80.04H315.888V81.4H314.528ZM314.538 78.56V77.2H315.898V78.56H314.538ZM320.372 82.15C319.839 82.15 319.372 82.0383 318.972 81.815C318.572 81.5917 318.26 81.28 318.037 80.88C317.814 80.48 317.702 80.0133 317.702 79.48V77.32C317.702 76.7867 317.814 76.32 318.037 75.92C318.26 75.52 318.572 75.2083 318.972 74.985C319.372 74.7617 319.839 74.65 320.372 74.65C320.905 74.65 321.372 74.7617 321.772 74.985C322.172 75.2083 322.484 75.52 322.707 75.92C322.93 76.32 323.042 76.7867 323.042 77.32V79.48C323.042 80.0133 322.93 80.48 322.707 80.88C322.484 81.28 322.172 81.5917 321.772 81.815C321.372 82.0383 320.905 82.15 320.372 82.15ZM320.372 80.86C320.612 80.86 320.829 80.8033 321.022 80.69C321.215 80.5767 321.369 80.4233 321.482 80.23C321.595 80.0367 321.652 79.82 321.652 79.58V77.21C321.652 76.97 321.595 76.7533 321.482 76.56C321.369 76.3667 321.215 76.2133 321.022 76.1C320.829 75.9867 320.612 75.93 320.372 75.93C320.132 75.93 319.915 75.9867 319.722 76.1C319.529 76.2133 319.375 76.3667 319.262 76.56C319.149 76.7533 319.092 76.97 319.092 77.21V79.58C319.092 79.82 319.149 80.0367 319.262 80.23C319.375 80.4233 319.529 80.5767 319.722 80.69C319.915 80.8033 320.132 80.86 320.372 80.86ZM325.69 82V76.28L324.34 77.11V75.61L325.69 74.8H327.08V82H325.69Z" fill="#8F8F8F"/>
<path d="M163.165 81.99V80.81L166.185 78.13C166.412 77.93 166.572 77.7417 166.665 77.565C166.758 77.3883 166.805 77.2233 166.805 77.07C166.805 76.85 166.76 76.655 166.67 76.485C166.58 76.3117 166.453 76.1767 166.29 76.08C166.127 75.98 165.935 75.93 165.715 75.93C165.485 75.93 165.282 75.9833 165.105 76.09C164.932 76.1933 164.797 76.3317 164.7 76.505C164.603 76.675 164.558 76.86 164.565 77.06H163.165C163.165 76.5667 163.273 76.14 163.49 75.78C163.707 75.42 164.008 75.1417 164.395 74.945C164.782 74.7483 165.232 74.65 165.745 74.65C166.215 74.65 166.635 74.7533 167.005 74.96C167.378 75.1633 167.672 75.4483 167.885 75.815C168.098 76.1817 168.205 76.6067 168.205 77.09C168.205 77.4467 168.155 77.7433 168.055 77.98C167.955 78.2133 167.807 78.43 167.61 78.63C167.413 78.8267 167.172 79.05 166.885 79.3L164.935 81.01L164.825 80.71H168.205V81.99H163.165ZM168.8 82L170.73 79.27L168.84 76.6H170.44L171.52 78.2L172.58 76.6H174.18L172.29 79.27L174.23 82H172.63L171.52 80.34L170.4 82H168.8Z" fill="#8F8F8F"/>
<path d="M133.016 82V76.28L131.666 77.11V75.61L133.016 74.8H134.406V82H133.016ZM136.127 82V80.64H137.487V82H136.127ZM141.25 82.15C140.887 82.15 140.545 82.075 140.225 81.925C139.908 81.775 139.635 81.5667 139.405 81.3C139.175 81.0333 139.01 80.7233 138.91 80.37L140.22 80.02C140.263 80.19 140.34 80.3367 140.45 80.46C140.563 80.5833 140.693 80.68 140.84 80.75C140.99 80.8167 141.143 80.85 141.3 80.85C141.507 80.85 141.695 80.8 141.865 80.7C142.038 80.6 142.175 80.465 142.275 80.295C142.378 80.125 142.43 79.9367 142.43 79.73C142.43 79.5233 142.378 79.335 142.275 79.165C142.175 78.995 142.038 78.86 141.865 78.76C141.695 78.66 141.507 78.61 141.3 78.61C141.047 78.61 140.84 78.6533 140.68 78.74C140.52 78.8233 140.4 78.9033 140.32 78.98L139.17 78.63L139.39 74.8H143.32V76.07H140.14L140.62 75.62L140.47 78.09L140.24 77.81C140.42 77.6633 140.625 77.5567 140.855 77.49C141.085 77.4233 141.3 77.39 141.5 77.39C141.953 77.39 142.352 77.4917 142.695 77.695C143.042 77.895 143.312 78.1717 143.505 78.525C143.702 78.875 143.8 79.2767 143.8 79.73C143.8 80.1833 143.682 80.5933 143.445 80.96C143.208 81.3233 142.897 81.6133 142.51 81.83C142.123 82.0433 141.703 82.15 141.25 82.15ZM144.399 82L146.329 79.27L144.439 76.6H146.039L147.119 78.2L148.179 76.6H149.779L147.889 79.27L149.829 82H148.229L147.119 80.34L145.999 82H144.399Z" fill="#1CB693"/>
<path d="M108.862 82V76.28L107.512 77.11V75.61L108.862 74.8H110.252V82H108.862ZM111.553 82L113.483 79.27L111.593 76.6H113.193L114.273 78.2L115.333 76.6H116.933L115.043 79.27L116.983 82H115.383L114.273 80.34L113.153 82H111.553Z" fill="#8F8F8F"/>
<path d="M99.84 23V14.36H105.42V15.716H101.286V17.846H104.7V19.202H101.286V21.644H105.42V23H99.84ZM109.362 23.18C108.562 23.18 107.912 23 107.412 22.64C106.912 22.28 106.608 21.774 106.5 21.122L107.976 20.894C108.052 21.214 108.22 21.466 108.48 21.65C108.74 21.834 109.068 21.926 109.464 21.926C109.812 21.926 110.08 21.858 110.268 21.722C110.46 21.582 110.556 21.392 110.556 21.152C110.556 21.004 110.52 20.886 110.448 20.798C110.38 20.706 110.228 20.618 109.992 20.534C109.756 20.45 109.394 20.344 108.906 20.216C108.362 20.072 107.93 19.918 107.61 19.754C107.29 19.586 107.06 19.388 106.92 19.16C106.78 18.932 106.71 18.656 106.71 18.332C106.71 17.928 106.816 17.576 107.028 17.276C107.24 16.976 107.536 16.746 107.916 16.586C108.296 16.422 108.744 16.34 109.26 16.34C109.764 16.34 110.21 16.418 110.598 16.574C110.99 16.73 111.306 16.952 111.546 17.24C111.786 17.528 111.934 17.866 111.99 18.254L110.514 18.518C110.478 18.242 110.352 18.024 110.136 17.864C109.924 17.704 109.64 17.614 109.284 17.594C108.944 17.574 108.67 17.626 108.462 17.75C108.254 17.87 108.15 18.04 108.15 18.26C108.15 18.384 108.192 18.49 108.276 18.578C108.36 18.666 108.528 18.754 108.78 18.842C109.036 18.93 109.416 19.038 109.92 19.166C110.436 19.298 110.848 19.45 111.156 19.622C111.468 19.79 111.692 19.992 111.828 20.228C111.968 20.464 112.038 20.75 112.038 21.086C112.038 21.738 111.8 22.25 111.324 22.622C110.852 22.994 110.198 23.18 109.362 23.18ZM116.166 23.18C115.498 23.18 114.928 23.032 114.456 22.736C113.984 22.436 113.622 22.028 113.37 21.512C113.122 20.996 112.996 20.412 112.992 19.76C112.996 19.096 113.126 18.508 113.382 17.996C113.642 17.48 114.01 17.076 114.486 16.784C114.962 16.488 115.528 16.34 116.184 16.34C116.92 16.34 117.542 16.526 118.05 16.898C118.562 17.266 118.896 17.77 119.052 18.41L117.612 18.8C117.5 18.452 117.314 18.182 117.054 17.99C116.794 17.794 116.498 17.696 116.166 17.696C115.79 17.696 115.48 17.786 115.236 17.966C114.992 18.142 114.812 18.386 114.696 18.698C114.58 19.01 114.522 19.364 114.522 19.76C114.522 20.376 114.66 20.874 114.936 21.254C115.212 21.634 115.622 21.824 116.166 21.824C116.55 21.824 116.852 21.736 117.072 21.56C117.296 21.384 117.464 21.13 117.576 20.798L119.052 21.128C118.852 21.788 118.502 22.296 118.002 22.652C117.502 23.004 116.89 23.18 116.166 23.18ZM122.684 23.186C122.204 23.186 121.808 23.106 121.496 22.946C121.184 22.786 120.936 22.582 120.752 22.334C120.568 22.086 120.432 21.822 120.344 21.542C120.256 21.262 120.198 20.998 120.17 20.75C120.146 20.498 120.134 20.294 120.134 20.138V16.52H121.598V19.64C121.598 19.84 121.612 20.066 121.64 20.318C121.668 20.566 121.732 20.806 121.832 21.038C121.936 21.266 122.088 21.454 122.288 21.602C122.492 21.75 122.766 21.824 123.11 21.824C123.294 21.824 123.476 21.794 123.656 21.734C123.836 21.674 123.998 21.572 124.142 21.428C124.29 21.28 124.408 21.078 124.496 20.822C124.584 20.566 124.628 20.242 124.628 19.85L125.486 20.216C125.486 20.768 125.378 21.268 125.162 21.716C124.95 22.164 124.636 22.522 124.22 22.79C123.804 23.054 123.292 23.186 122.684 23.186ZM124.802 23V20.99H124.628V16.52H126.08V23H124.802ZM130.58 23.18C129.912 23.18 129.342 23.032 128.87 22.736C128.398 22.436 128.036 22.028 127.784 21.512C127.536 20.996 127.41 20.412 127.406 19.76C127.41 19.096 127.54 18.508 127.796 17.996C128.056 17.48 128.424 17.076 128.9 16.784C129.376 16.488 129.942 16.34 130.598 16.34C131.334 16.34 131.956 16.526 132.464 16.898C132.976 17.266 133.31 17.77 133.466 18.41L132.026 18.8C131.914 18.452 131.728 18.182 131.468 17.99C131.208 17.794 130.912 17.696 130.58 17.696C130.204 17.696 129.894 17.786 129.65 17.966C129.406 18.142 129.226 18.386 129.11 18.698C128.994 19.01 128.936 19.364 128.936 19.76C128.936 20.376 129.074 20.874 129.35 21.254C129.626 21.634 130.036 21.824 130.58 21.824C130.964 21.824 131.266 21.736 131.486 21.56C131.71 21.384 131.878 21.13 131.99 20.798L133.466 21.128C133.266 21.788 132.916 22.296 132.416 22.652C131.916 23.004 131.304 23.18 130.58 23.18ZM139.15 23V19.88C139.15 19.676 139.136 19.45 139.108 19.202C139.08 18.954 139.014 18.716 138.91 18.488C138.81 18.256 138.658 18.066 138.454 17.918C138.254 17.77 137.982 17.696 137.638 17.696C137.454 17.696 137.272 17.726 137.092 17.786C136.912 17.846 136.748 17.95 136.6 18.098C136.456 18.242 136.34 18.442 136.252 18.698C136.164 18.95 136.12 19.274 136.12 19.67L135.262 19.304C135.262 18.752 135.368 18.252 135.58 17.804C135.796 17.356 136.112 17 136.528 16.736C136.944 16.468 137.456 16.334 138.064 16.334C138.544 16.334 138.94 16.414 139.252 16.574C139.564 16.734 139.812 16.938 139.996 17.186C140.18 17.434 140.316 17.698 140.404 17.978C140.492 18.258 140.548 18.524 140.572 18.776C140.6 19.024 140.614 19.226 140.614 19.382V23H139.15ZM134.656 23V14.36H135.946V18.908H136.12V23H134.656ZM143.992 23.18C143.524 23.18 143.128 23.092 142.804 22.916C142.48 22.736 142.234 22.498 142.066 22.202C141.902 21.906 141.82 21.58 141.82 21.224C141.82 20.912 141.872 20.632 141.976 20.384C142.08 20.132 142.24 19.916 142.456 19.736C142.672 19.552 142.952 19.402 143.296 19.286C143.556 19.202 143.86 19.126 144.208 19.058C144.56 18.99 144.94 18.928 145.348 18.872C145.76 18.812 146.19 18.748 146.638 18.68L146.122 18.974C146.126 18.526 146.026 18.196 145.822 17.984C145.618 17.772 145.274 17.666 144.79 17.666C144.498 17.666 144.216 17.734 143.944 17.87C143.672 18.006 143.482 18.24 143.374 18.572L142.054 18.158C142.214 17.61 142.518 17.17 142.966 16.838C143.418 16.506 144.026 16.34 144.79 16.34C145.366 16.34 145.872 16.434 146.308 16.622C146.748 16.81 147.074 17.118 147.286 17.546C147.402 17.774 147.472 18.008 147.496 18.248C147.52 18.484 147.532 18.742 147.532 19.022V23H146.266V21.596L146.476 21.824C146.184 22.292 145.842 22.636 145.45 22.856C145.062 23.072 144.576 23.18 143.992 23.18ZM144.28 22.028C144.608 22.028 144.888 21.97 145.12 21.854C145.352 21.738 145.536 21.596 145.672 21.428C145.812 21.26 145.906 21.102 145.954 20.954C146.03 20.77 146.072 20.56 146.08 20.324C146.092 20.084 146.098 19.89 146.098 19.742L146.542 19.874C146.106 19.942 145.732 20.002 145.42 20.054C145.108 20.106 144.84 20.156 144.616 20.204C144.392 20.248 144.194 20.298 144.022 20.354C143.854 20.414 143.712 20.484 143.596 20.564C143.48 20.644 143.39 20.736 143.326 20.84C143.266 20.944 143.236 21.066 143.236 21.206C143.236 21.366 143.276 21.508 143.356 21.632C143.436 21.752 143.552 21.848 143.704 21.92C143.86 21.992 144.052 22.028 144.28 22.028ZM149.094 23V16.52H150.372V18.098L150.216 17.894C150.296 17.678 150.402 17.482 150.534 17.306C150.67 17.126 150.832 16.978 151.02 16.862C151.18 16.754 151.356 16.67 151.548 16.61C151.744 16.546 151.944 16.508 152.148 16.496C152.352 16.48 152.55 16.488 152.742 16.52V17.87C152.55 17.814 152.328 17.796 152.076 17.816C151.828 17.836 151.604 17.906 151.404 18.026C151.204 18.134 151.04 18.272 150.912 18.44C150.788 18.608 150.696 18.8 150.636 19.016C150.576 19.228 150.546 19.458 150.546 19.706V23H149.094ZM154.367 22.22V20.738H155.849V22.22H154.367ZM154.379 18.782V17.3H155.861V18.782H154.379ZM164.015 14.342L163.925 14.966C163.741 14.95 163.595 14.982 163.487 15.062C163.379 15.138 163.305 15.248 163.265 15.392C163.229 15.532 163.223 15.692 163.247 15.872H164.015V17.414H162.533V15.812C162.533 15.288 162.657 14.892 162.905 14.624C163.153 14.352 163.523 14.258 164.015 14.342ZM162.005 14.342L161.915 14.966C161.731 14.95 161.585 14.982 161.477 15.062C161.369 15.138 161.295 15.248 161.255 15.392C161.219 15.532 161.213 15.692 161.237 15.872H162.005V17.414H160.523V15.812C160.523 15.288 160.647 14.892 160.895 14.624C161.143 14.352 161.513 14.258 162.005 14.342ZM165.817 23V14.36H171.397V15.716H167.263V17.846H170.677V19.202H167.263V21.644H171.397V23H165.817ZM174.588 23L172.236 16.52H173.682L175.314 21.218L176.94 16.52H178.392L176.04 23H174.588ZM180.918 23.18C180.45 23.18 180.054 23.092 179.73 22.916C179.406 22.736 179.16 22.498 178.992 22.202C178.828 21.906 178.746 21.58 178.746 21.224C178.746 20.912 178.798 20.632 178.902 20.384C179.006 20.132 179.166 19.916 179.382 19.736C179.598 19.552 179.878 19.402 180.222 19.286C180.482 19.202 180.786 19.126 181.134 19.058C181.486 18.99 181.866 18.928 182.274 18.872C182.686 18.812 183.116 18.748 183.564 18.68L183.048 18.974C183.052 18.526 182.952 18.196 182.748 17.984C182.544 17.772 182.2 17.666 181.716 17.666C181.424 17.666 181.142 17.734 180.87 17.87C180.598 18.006 180.408 18.24 180.3 18.572L178.98 18.158C179.14 17.61 179.444 17.17 179.892 16.838C180.344 16.506 180.952 16.34 181.716 16.34C182.292 16.34 182.798 16.434 183.234 16.622C183.674 16.81 184 17.118 184.212 17.546C184.328 17.774 184.398 18.008 184.422 18.248C184.446 18.484 184.458 18.742 184.458 19.022V23H183.192V21.596L183.402 21.824C183.11 22.292 182.768 22.636 182.376 22.856C181.988 23.072 181.502 23.18 180.918 23.18ZM181.206 22.028C181.534 22.028 181.814 21.97 182.046 21.854C182.278 21.738 182.462 21.596 182.598 21.428C182.738 21.26 182.832 21.102 182.88 20.954C182.956 20.77 182.998 20.56 183.006 20.324C183.018 20.084 183.024 19.89 183.024 19.742L183.468 19.874C183.032 19.942 182.658 20.002 182.346 20.054C182.034 20.106 181.766 20.156 181.542 20.204C181.318 20.248 181.12 20.298 180.948 20.354C180.78 20.414 180.638 20.484 180.522 20.564C180.406 20.644 180.316 20.736 180.252 20.84C180.192 20.944 180.162 21.066 180.162 21.206C180.162 21.366 180.202 21.508 180.282 21.632C180.362 21.752 180.478 21.848 180.63 21.92C180.786 21.992 180.978 22.028 181.206 22.028ZM186.14 23V14.18H187.586V23H186.14ZM191.813 23.186C191.333 23.186 190.937 23.106 190.625 22.946C190.313 22.786 190.065 22.582 189.881 22.334C189.697 22.086 189.561 21.822 189.473 21.542C189.385 21.262 189.327 20.998 189.299 20.75C189.275 20.498 189.263 20.294 189.263 20.138V16.52H190.727V19.64C190.727 19.84 190.741 20.066 190.769 20.318C190.797 20.566 190.861 20.806 190.961 21.038C191.065 21.266 191.217 21.454 191.417 21.602C191.621 21.75 191.895 21.824 192.239 21.824C192.423 21.824 192.605 21.794 192.785 21.734C192.965 21.674 193.127 21.572 193.271 21.428C193.419 21.28 193.537 21.078 193.625 20.822C193.713 20.566 193.757 20.242 193.757 19.85L194.615 20.216C194.615 20.768 194.507 21.268 194.291 21.716C194.079 22.164 193.765 22.522 193.349 22.79C192.933 23.054 192.421 23.186 191.813 23.186ZM193.931 23V20.99H193.757V16.52H195.209V23H193.931ZM201.377 23V19.88C201.377 19.676 201.363 19.45 201.335 19.202C201.307 18.954 201.241 18.716 201.137 18.488C201.037 18.256 200.885 18.066 200.681 17.918C200.481 17.77 200.209 17.696 199.865 17.696C199.681 17.696 199.499 17.726 199.319 17.786C199.139 17.846 198.975 17.95 198.827 18.098C198.683 18.242 198.567 18.442 198.479 18.698C198.391 18.95 198.347 19.274 198.347 19.67L197.489 19.304C197.489 18.752 197.595 18.252 197.807 17.804C198.023 17.356 198.339 17 198.755 16.736C199.171 16.468 199.683 16.334 200.291 16.334C200.771 16.334 201.167 16.414 201.479 16.574C201.791 16.734 202.039 16.938 202.223 17.186C202.407 17.434 202.543 17.698 202.631 17.978C202.719 18.258 202.775 18.524 202.799 18.776C202.827 19.024 202.841 19.226 202.841 19.382V23H201.377ZM196.883 23V16.52H198.173V18.53H198.347V23H196.883ZM206.218 23.18C205.75 23.18 205.354 23.092 205.03 22.916C204.706 22.736 204.46 22.498 204.292 22.202C204.128 21.906 204.046 21.58 204.046 21.224C204.046 20.912 204.098 20.632 204.202 20.384C204.306 20.132 204.466 19.916 204.682 19.736C204.898 19.552 205.178 19.402 205.522 19.286C205.782 19.202 206.086 19.126 206.434 19.058C206.786 18.99 207.166 18.928 207.574 18.872C207.986 18.812 208.416 18.748 208.864 18.68L208.348 18.974C208.352 18.526 208.252 18.196 208.048 17.984C207.844 17.772 207.5 17.666 207.016 17.666C206.724 17.666 206.442 17.734 206.17 17.87C205.898 18.006 205.708 18.24 205.6 18.572L204.28 18.158C204.44 17.61 204.744 17.17 205.192 16.838C205.644 16.506 206.252 16.34 207.016 16.34C207.592 16.34 208.098 16.434 208.534 16.622C208.974 16.81 209.3 17.118 209.512 17.546C209.628 17.774 209.698 18.008 209.722 18.248C209.746 18.484 209.758 18.742 209.758 19.022V23H208.492V21.596L208.702 21.824C208.41 22.292 208.068 22.636 207.676 22.856C207.288 23.072 206.802 23.18 206.218 23.18ZM206.506 22.028C206.834 22.028 207.114 21.97 207.346 21.854C207.578 21.738 207.762 21.596 207.898 21.428C208.038 21.26 208.132 21.102 208.18 20.954C208.256 20.77 208.298 20.56 208.306 20.324C208.318 20.084 208.324 19.89 208.324 19.742L208.768 19.874C208.332 19.942 207.958 20.002 207.646 20.054C207.334 20.106 207.066 20.156 206.842 20.204C206.618 20.248 206.42 20.298 206.248 20.354C206.08 20.414 205.938 20.484 205.822 20.564C205.706 20.644 205.616 20.736 205.552 20.84C205.492 20.944 205.462 21.066 205.462 21.206C205.462 21.366 205.502 21.508 205.582 21.632C205.662 21.752 205.778 21.848 205.93 21.92C206.086 21.992 206.278 22.028 206.506 22.028ZM213.723 23V14.36H215.025L218.013 20.48L221.001 14.36H222.303V23H220.953V17.462L218.301 23H217.725L215.079 17.462V23H213.723ZM226.85 23.18C226.202 23.18 225.636 23.034 225.152 22.742C224.668 22.45 224.292 22.048 224.024 21.536C223.76 21.02 223.628 20.428 223.628 19.76C223.628 19.08 223.764 18.484 224.036 17.972C224.308 17.46 224.686 17.06 225.17 16.772C225.654 16.484 226.214 16.34 226.85 16.34C227.502 16.34 228.07 16.486 228.554 16.778C229.038 17.07 229.414 17.474 229.682 17.99C229.95 18.502 230.084 19.092 230.084 19.76C230.084 20.432 229.948 21.026 229.676 21.542C229.408 22.054 229.032 22.456 228.548 22.748C228.064 23.036 227.498 23.18 226.85 23.18ZM226.85 21.824C227.426 21.824 227.854 21.632 228.134 21.248C228.414 20.864 228.554 20.368 228.554 19.76C228.554 19.132 228.412 18.632 228.128 18.26C227.844 17.884 227.418 17.696 226.85 17.696C226.462 17.696 226.142 17.784 225.89 17.96C225.642 18.132 225.458 18.374 225.338 18.686C225.218 18.994 225.158 19.352 225.158 19.76C225.158 20.388 225.3 20.89 225.584 21.266C225.872 21.638 226.294 21.824 226.85 21.824ZM235.888 23V19.88C235.888 19.676 235.874 19.45 235.846 19.202C235.818 18.954 235.752 18.716 235.648 18.488C235.548 18.256 235.396 18.066 235.192 17.918C234.992 17.77 234.72 17.696 234.376 17.696C234.192 17.696 234.01 17.726 233.83 17.786C233.65 17.846 233.486 17.95 233.338 18.098C233.194 18.242 233.078 18.442 232.99 18.698C232.902 18.95 232.858 19.274 232.858 19.67L232 19.304C232 18.752 232.106 18.252 232.318 17.804C232.534 17.356 232.85 17 233.266 16.736C233.682 16.468 234.194 16.334 234.802 16.334C235.282 16.334 235.678 16.414 235.99 16.574C236.302 16.734 236.55 16.938 236.734 17.186C236.918 17.434 237.054 17.698 237.142 17.978C237.23 18.258 237.286 18.524 237.31 18.776C237.338 19.024 237.352 19.226 237.352 19.382V23H235.888ZM231.394 23V16.52H232.684V18.53H232.858V23H231.394ZM242.716 23C242.288 23.08 241.868 23.114 241.456 23.102C241.048 23.094 240.682 23.02 240.358 22.88C240.034 22.736 239.788 22.51 239.62 22.202C239.472 21.922 239.394 21.636 239.386 21.344C239.378 21.052 239.374 20.722 239.374 20.354V14.72H240.814V20.27C240.814 20.53 240.816 20.758 240.82 20.954C240.828 21.15 240.87 21.31 240.946 21.434C241.09 21.674 241.32 21.808 241.636 21.836C241.952 21.864 242.312 21.848 242.716 21.788V23ZM238.198 17.654V16.52H242.716V17.654H238.198ZM245.922 23.18C245.454 23.18 245.058 23.092 244.734 22.916C244.41 22.736 244.164 22.498 243.996 22.202C243.832 21.906 243.75 21.58 243.75 21.224C243.75 20.912 243.802 20.632 243.906 20.384C244.01 20.132 244.17 19.916 244.386 19.736C244.602 19.552 244.882 19.402 245.226 19.286C245.486 19.202 245.79 19.126 246.138 19.058C246.49 18.99 246.87 18.928 247.278 18.872C247.69 18.812 248.12 18.748 248.568 18.68L248.052 18.974C248.056 18.526 247.956 18.196 247.752 17.984C247.548 17.772 247.204 17.666 246.72 17.666C246.428 17.666 246.146 17.734 245.874 17.87C245.602 18.006 245.412 18.24 245.304 18.572L243.984 18.158C244.144 17.61 244.448 17.17 244.896 16.838C245.348 16.506 245.956 16.34 246.72 16.34C247.296 16.34 247.802 16.434 248.238 16.622C248.678 16.81 249.004 17.118 249.216 17.546C249.332 17.774 249.402 18.008 249.426 18.248C249.45 18.484 249.462 18.742 249.462 19.022V23H248.196V21.596L248.406 21.824C248.114 22.292 247.772 22.636 247.38 22.856C246.992 23.072 246.506 23.18 245.922 23.18ZM246.21 22.028C246.538 22.028 246.818 21.97 247.05 21.854C247.282 21.738 247.466 21.596 247.602 21.428C247.742 21.26 247.836 21.102 247.884 20.954C247.96 20.77 248.002 20.56 248.01 20.324C248.022 20.084 248.028 19.89 248.028 19.742L248.472 19.874C248.036 19.942 247.662 20.002 247.35 20.054C247.038 20.106 246.77 20.156 246.546 20.204C246.322 20.248 246.124 20.298 245.952 20.354C245.784 20.414 245.642 20.484 245.526 20.564C245.41 20.644 245.32 20.736 245.256 20.84C245.196 20.944 245.166 21.066 245.166 21.206C245.166 21.366 245.206 21.508 245.286 21.632C245.366 21.752 245.482 21.848 245.634 21.92C245.79 21.992 245.982 22.028 246.21 22.028ZM255.506 23V19.88C255.506 19.676 255.492 19.45 255.464 19.202C255.436 18.954 255.37 18.716 255.266 18.488C255.166 18.256 255.014 18.066 254.81 17.918C254.61 17.77 254.338 17.696 253.994 17.696C253.81 17.696 253.628 17.726 253.448 17.786C253.268 17.846 253.104 17.95 252.956 18.098C252.812 18.242 252.696 18.442 252.608 18.698C252.52 18.95 252.476 19.274 252.476 19.67L251.618 19.304C251.618 18.752 251.724 18.252 251.936 17.804C252.152 17.356 252.468 17 252.884 16.736C253.3 16.468 253.812 16.334 254.42 16.334C254.9 16.334 255.296 16.414 255.608 16.574C255.92 16.734 256.168 16.938 256.352 17.186C256.536 17.434 256.672 17.698 256.76 17.978C256.848 18.258 256.904 18.524 256.928 18.776C256.956 19.024 256.97 19.226 256.97 19.382V23H255.506ZM251.012 23V16.52H252.302V18.53H252.476V23H251.012ZM261.376 23.18C260.72 23.18 260.144 23.038 259.648 22.754C259.152 22.47 258.764 22.076 258.484 21.572C258.208 21.068 258.07 20.488 258.07 19.832C258.07 19.124 258.206 18.51 258.478 17.99C258.75 17.466 259.128 17.06 259.612 16.772C260.096 16.484 260.656 16.34 261.292 16.34C261.964 16.34 262.534 16.498 263.002 16.814C263.474 17.126 263.824 17.568 264.052 18.14C264.28 18.712 264.366 19.386 264.31 20.162H262.876V19.634C262.872 18.93 262.748 18.416 262.504 18.092C262.26 17.768 261.876 17.606 261.352 17.606C260.76 17.606 260.32 17.79 260.032 18.158C259.744 18.522 259.6 19.056 259.6 19.76C259.6 20.416 259.744 20.924 260.032 21.284C260.32 21.644 260.74 21.824 261.292 21.824C261.648 21.824 261.954 21.746 262.21 21.59C262.47 21.43 262.67 21.2 262.81 20.9L264.238 21.332C263.99 21.916 263.606 22.37 263.086 22.694C262.57 23.018 262 23.18 261.376 23.18ZM259.144 20.162V19.07H263.602V20.162H259.144ZM265.649 23V16.52H266.927V18.098L266.771 17.894C266.851 17.678 266.957 17.482 267.089 17.306C267.225 17.126 267.387 16.978 267.575 16.862C267.735 16.754 267.911 16.67 268.103 16.61C268.299 16.546 268.499 16.508 268.703 16.496C268.907 16.48 269.105 16.488 269.297 16.52V17.87C269.105 17.814 268.883 17.796 268.631 17.816C268.383 17.836 268.159 17.906 267.959 18.026C267.759 18.134 267.595 18.272 267.467 18.44C267.343 18.608 267.251 18.8 267.191 19.016C267.131 19.228 267.101 19.458 267.101 19.706V23H265.649ZM273.696 25.88L274.944 22.454L274.968 23.462L272.142 16.52H273.648L275.652 21.656H275.268L277.218 16.52H278.664L275.052 25.88H273.696ZM285.615 23.18C284.751 23.18 284.011 22.992 283.395 22.616C282.779 22.236 282.305 21.708 281.973 21.032C281.645 20.356 281.481 19.572 281.481 18.68C281.481 17.788 281.645 17.004 281.973 16.328C282.305 15.652 282.779 15.126 283.395 14.75C284.011 14.37 284.751 14.18 285.615 14.18C286.611 14.18 287.441 14.43 288.105 14.93C288.769 15.426 289.235 16.096 289.503 16.94L288.045 17.342C287.877 16.778 287.591 16.338 287.187 16.022C286.783 15.702 286.259 15.542 285.615 15.542C285.035 15.542 284.551 15.672 284.163 15.932C283.779 16.192 283.489 16.558 283.293 17.03C283.101 17.498 283.003 18.048 282.999 18.68C282.999 19.312 283.095 19.864 283.287 20.336C283.483 20.804 283.775 21.168 284.163 21.428C284.551 21.688 285.035 21.818 285.615 21.818C286.259 21.818 286.783 21.658 287.187 21.338C287.591 21.018 287.877 20.578 288.045 20.018L289.503 20.42C289.235 21.264 288.769 21.936 288.105 22.436C287.441 22.932 286.611 23.18 285.615 23.18ZM292.632 23.18C292.164 23.18 291.768 23.092 291.444 22.916C291.12 22.736 290.874 22.498 290.706 22.202C290.542 21.906 290.46 21.58 290.46 21.224C290.46 20.912 290.512 20.632 290.616 20.384C290.72 20.132 290.88 19.916 291.096 19.736C291.312 19.552 291.592 19.402 291.936 19.286C292.196 19.202 292.5 19.126 292.848 19.058C293.2 18.99 293.58 18.928 293.988 18.872C294.4 18.812 294.83 18.748 295.278 18.68L294.762 18.974C294.766 18.526 294.666 18.196 294.462 17.984C294.258 17.772 293.914 17.666 293.43 17.666C293.138 17.666 292.856 17.734 292.584 17.87C292.312 18.006 292.122 18.24 292.014 18.572L290.694 18.158C290.854 17.61 291.158 17.17 291.606 16.838C292.058 16.506 292.666 16.34 293.43 16.34C294.006 16.34 294.512 16.434 294.948 16.622C295.388 16.81 295.714 17.118 295.926 17.546C296.042 17.774 296.112 18.008 296.136 18.248C296.16 18.484 296.172 18.742 296.172 19.022V23H294.906V21.596L295.116 21.824C294.824 22.292 294.482 22.636 294.09 22.856C293.702 23.072 293.216 23.18 292.632 23.18ZM292.92 22.028C293.248 22.028 293.528 21.97 293.76 21.854C293.992 21.738 294.176 21.596 294.312 21.428C294.452 21.26 294.546 21.102 294.594 20.954C294.67 20.77 294.712 20.56 294.72 20.324C294.732 20.084 294.738 19.89 294.738 19.742L295.182 19.874C294.746 19.942 294.372 20.002 294.06 20.054C293.748 20.106 293.48 20.156 293.256 20.204C293.032 20.248 292.834 20.298 292.662 20.354C292.494 20.414 292.352 20.484 292.236 20.564C292.12 20.644 292.03 20.736 291.966 20.84C291.906 20.944 291.876 21.066 291.876 21.206C291.876 21.366 291.916 21.508 291.996 21.632C292.076 21.752 292.192 21.848 292.344 21.92C292.5 21.992 292.692 22.028 292.92 22.028ZM305.517 23V19.064C305.517 18.62 305.407 18.274 305.187 18.026C304.967 17.774 304.669 17.648 304.293 17.648C304.061 17.648 303.853 17.702 303.669 17.81C303.485 17.914 303.339 18.07 303.231 18.278C303.123 18.482 303.069 18.726 303.069 19.01L302.427 18.632C302.423 18.184 302.523 17.79 302.727 17.45C302.935 17.106 303.215 16.838 303.567 16.646C303.919 16.454 304.311 16.358 304.743 16.358C305.459 16.358 306.007 16.574 306.387 17.006C306.771 17.434 306.963 17.998 306.963 18.698V23H305.517ZM297.723 23V16.52H299.001V18.53H299.181V23H297.723ZM301.629 23V19.082C301.629 18.63 301.519 18.278 301.299 18.026C301.079 17.774 300.779 17.648 300.399 17.648C300.031 17.648 299.735 17.774 299.511 18.026C299.291 18.278 299.181 18.606 299.181 19.01L298.533 18.578C298.533 18.158 298.637 17.78 298.845 17.444C299.053 17.108 299.333 16.844 299.685 16.652C300.041 16.456 300.439 16.358 300.879 16.358C301.363 16.358 301.767 16.462 302.091 16.67C302.419 16.874 302.663 17.154 302.823 17.51C302.987 17.862 303.069 18.26 303.069 18.704V23H301.629ZM308.768 23V21.518H310.25V23H308.768ZM312.412 23V21.518H313.894V23H312.412ZM316.057 23V21.518H317.539V23H316.057ZM318.269 17.408L318.353 16.784C318.537 16.8 318.683 16.77 318.791 16.694C318.899 16.614 318.971 16.504 319.007 16.364C319.047 16.22 319.057 16.058 319.037 15.878H318.269V14.336H319.751V15.938C319.751 16.462 319.627 16.858 319.379 17.126C319.131 17.394 318.761 17.488 318.269 17.408ZM320.279 17.408L320.363 16.784C320.547 16.8 320.693 16.77 320.801 16.694C320.909 16.614 320.981 16.504 321.017 16.364C321.057 16.22 321.067 16.058 321.047 15.878H320.279V14.336H321.761V15.938C321.761 16.462 321.637 16.858 321.389 17.126C321.141 17.394 320.771 17.488 320.279 17.408Z" fill="#5F5E5E"/>
<circle cx="530" cy="19" r="12" fill="#D9D9D9" fill-opacity="0.2"/>
<path d="M533.065 20.25C534.135 20.25 535 21.0875 535 22.125C535 23.1625 534.135 24 533.065 24C531.994 24 531.129 23.1625 531.129 22.125C531.129 21.975 531.148 21.8375 531.187 21.6937L528.361 20.2563C528.006 20.6375 527.503 20.875 526.935 20.875C525.865 20.875 525 20.0375 525 19C525 17.9625 525.865 17.125 526.935 17.125C527.503 17.125 528.006 17.3687 528.361 17.7437L531.187 16.3063C531.148 16.1625 531.129 16.025 531.129 15.875C531.129 14.8375 531.994 14 533.065 14C534.135 14 535 14.8375 535 15.875C535 16.9125 534.135 17.75 533.065 17.75C532.497 17.75 531.994 17.5063 531.639 17.1313L528.813 18.5688C528.891 18.8513 528.891 19.1487 528.813 19.4312L531.639 20.8687C531.994 20.4875 532.497 20.25 533.065 20.25Z" fill="#8F8F8F"/>
<rect x="99" y="44" width="228" height="7" rx="3.5" fill="#ADADAD" fill-opacity="0.48"/>
<rect x="99" y="47" width="14" height="1" rx="0.5" fill="url(#paint1_linear_1603_416)"/>
<rect x="99" y="41" width="16" height="13" rx="6.5" fill="#25FFCD"/>
<rect x="101" y="43" width="12" height="9" rx="4.5" fill="#18A484" fill-opacity="0.4"/>
<circle cx="348" cy="47.8213" r="10" fill="#D9D9D9" fill-opacity="0.2"/>
<g opacity="0.8">
<path d="M342.806 48.875C343.207 48.875 343.536 49.1716 343.592 49.5645C343.689 50.2321 343.925 50.872 344.285 51.4426C344.645 52.0131 345.12 52.5017 345.681 52.8766C346.242 53.2516 346.876 53.5044 347.54 53.6189C348.205 53.7333 348.887 53.7068 349.541 53.541C351.344 53.108 352.675 51.7211 353.06 49.9092C353.213 49.206 353.206 48.4776 353.041 47.7774C352.875 47.0771 352.555 46.4228 352.104 45.8623C351.652 45.3019 351.082 44.8495 350.433 44.5385C349.784 44.2274 349.074 44.0656 348.354 44.0647V46.3015C348.354 46.6623 347.921 46.8386 347.673 46.5821L344.634 43.5436C344.474 43.3833 344.474 43.1347 344.634 42.9744L347.673 39.9359C347.729 39.8805 347.801 39.8431 347.879 39.8283C347.956 39.8136 348.037 39.8222 348.11 39.853C348.182 39.8839 348.245 39.9356 348.288 40.0017C348.332 40.0679 348.355 40.1454 348.354 40.2245V42.4613C352.314 42.4613 355.441 46.053 354.639 50.1577C354.158 52.6511 352.314 54.5672 349.837 55.1203C345.965 55.9862 342.502 53.3566 342.005 49.7729C341.933 49.2999 342.325 48.875 342.806 48.875Z" fill="#8F8F8F"/>
<path fill-rule="evenodd" clip-rule="evenodd" d="M350.1 47.6339C349.956 47.5778 349.804 47.5537 349.627 47.5537C349.451 47.5537 349.299 47.5778 349.154 47.6339C349.01 47.69 348.89 47.7782 348.793 47.8984C348.697 48.0187 348.609 48.171 348.561 48.3554C348.513 48.5398 348.481 48.7563 348.481 49.0128V49.6061C348.481 49.8626 348.513 50.0871 348.569 50.2635C348.625 50.4399 348.705 50.6002 348.809 50.7205C348.914 50.8407 349.034 50.9289 349.178 50.985C349.323 51.0412 349.475 51.0652 349.651 51.0652C349.828 51.0652 349.98 51.0412 350.124 50.985C350.269 50.9289 350.389 50.8407 350.485 50.7205C350.581 50.6002 350.661 50.4479 350.718 50.2635C350.774 50.0791 350.798 49.8626 350.798 49.6061V49.0128C350.798 48.7563 350.766 48.5318 350.71 48.3554C350.653 48.179 350.573 48.0187 350.469 47.8984C350.365 47.7782 350.237 47.69 350.1 47.6339ZM347.358 51.0171V47.5938H347.286L345.867 48.0989V48.6521L346.677 48.4035V51.0171H347.358ZM350.11 49.6949C350.11 49.8472 350.102 49.9755 350.078 50.0797C350.053 50.1839 350.029 50.2721 349.989 50.3362C349.949 50.4004 349.901 50.4485 349.837 50.4725C349.773 50.4966 349.709 50.5126 349.637 50.5126C349.564 50.5126 349.492 50.4966 349.436 50.4725C349.38 50.4485 349.324 50.4004 349.284 50.3362C349.244 50.2721 349.212 50.1839 349.188 50.0797C349.164 49.9755 349.156 49.8472 349.156 49.6949V48.9172C349.156 48.7649 349.164 48.6366 349.188 48.5324C349.212 48.4282 349.236 48.348 349.284 48.2839C349.332 48.2197 349.372 48.1716 349.436 48.1476C349.5 48.1235 349.564 48.1075 349.637 48.1075C349.709 48.1075 349.781 48.1235 349.837 48.1476C349.893 48.1716 349.949 48.2197 349.989 48.2839C350.029 48.348 350.061 48.4282 350.086 48.5324C350.11 48.6366 350.118 48.7649 350.118 48.9172V49.6949H350.11Z" fill="#8F8F8F"/>
</g>
<circle cx="376" cy="47.8213" r="10" fill="#D9D9D9" fill-opacity="0.2"/>
<path d="M381.96 48.8751C381.559 48.8751 381.23 49.1718 381.174 49.5646C381.077 50.2323 380.841 50.8721 380.481 51.4427C380.121 52.0133 379.645 52.5019 379.085 52.8768C378.524 53.2518 377.89 53.5046 377.225 53.6191C376.561 53.7335 375.879 53.707 375.225 53.5412C373.421 53.1082 372.09 51.7213 371.706 49.9094C371.553 49.2062 371.56 48.4778 371.725 47.7775C371.891 47.0772 372.211 46.4229 372.662 45.8624C373.113 45.302 373.684 44.8496 374.333 44.5386C374.982 44.2275 375.692 44.0656 376.412 44.0648V46.3016C376.412 46.6624 376.845 46.8387 377.093 46.5822L380.132 43.5437C380.292 43.3833 380.292 43.1348 380.132 42.9744L377.093 39.9359C377.037 39.8805 376.965 39.8431 376.887 39.8283C376.81 39.8136 376.729 39.8222 376.656 39.853C376.583 39.8839 376.521 39.9356 376.478 40.0017C376.434 40.0679 376.411 40.1454 376.412 40.2245V42.4613C372.451 42.4613 369.324 46.0531 370.126 50.1579C370.607 52.6513 372.451 54.5674 374.929 55.1206C378.801 55.9864 382.264 53.3568 382.761 49.7731C382.834 49.3 382.441 48.8751 381.96 48.8751ZM375.53 51.2803V47.8569H375.458L374.039 48.362V48.9152L374.848 48.6667V51.2803H375.53ZM378.272 47.897C378.127 47.8409 377.975 47.8169 377.799 47.8169C377.622 47.8169 377.47 47.8409 377.326 47.897C377.181 47.9531 377.061 48.0413 376.965 48.1616C376.869 48.2819 376.781 48.4342 376.732 48.6186C376.684 48.803 376.652 49.0194 376.652 49.276V49.8693C376.652 50.1258 376.684 50.3503 376.74 50.5267C376.797 50.7031 376.877 50.8634 376.981 50.9837C377.085 51.1039 377.205 51.1921 377.35 51.2482C377.494 51.3044 377.646 51.3284 377.823 51.3284C377.999 51.3284 378.151 51.3044 378.296 51.2482C378.44 51.1921 378.56 51.1039 378.657 50.9837C378.753 50.8634 378.833 50.7111 378.889 50.5267C378.945 50.3423 378.969 50.1258 378.969 49.8693V49.276C378.969 49.0194 378.937 48.795 378.881 48.6186C378.825 48.4422 378.745 48.2819 378.641 48.1616C378.536 48.0413 378.408 47.9531 378.272 47.897ZM378.28 49.9575C378.28 50.1098 378.272 50.2381 378.248 50.3423C378.224 50.4465 378.2 50.5347 378.16 50.5988C378.119 50.663 378.071 50.7111 378.007 50.7351C377.943 50.7592 377.879 50.7752 377.807 50.7752C377.735 50.7752 377.662 50.7592 377.606 50.7351C377.55 50.7111 377.494 50.663 377.454 50.5988C377.414 50.5347 377.382 50.4465 377.358 50.3423C377.334 50.2381 377.326 50.1098 377.326 49.9575V49.1798C377.326 49.0275 377.334 48.8992 377.358 48.795C377.382 48.6907 377.406 48.6106 377.454 48.5464C377.502 48.4823 377.542 48.4342 377.606 48.4101C377.67 48.3861 377.735 48.37 377.807 48.37C377.879 48.37 377.951 48.3861 378.007 48.4101C378.063 48.4342 378.119 48.4823 378.16 48.5464C378.2 48.6106 378.232 48.6907 378.256 48.795C378.28 48.8992 378.288 49.0275 378.288 49.1798V49.9575H378.28Z" fill="#8F8F8F"/>
<path d="M406.091 39.8223C406.688 39.396 407.517 39.8227 407.517 40.5561V55.0871C407.517 55.8206 406.688 56.2473 406.091 55.8209L401.204 52.3305H398.499C397.503 52.3305 396.695 51.5231 396.695 50.527V45.1163C396.695 44.1202 397.503 43.3127 398.499 43.3127H401.204L406.091 39.8223Z" fill="#8F8F8F"/>
<path d="M410.209 52.2452C411.328 51.1062 412.019 49.5445 412.019 47.8217C412.019 46.0916 411.323 44.524 410.195 43.3838" stroke="#8F8F8F" stroke-width="1.80356" stroke-linecap="round" stroke-linejoin="round"/>
<g filter="url(#filter3_d_1603_416)">
<rect x="423.741" y="37.4213" width="75.8" height="20.8" rx="10.4" fill="#FDFEFF" stroke="#ADADAD" stroke-width="0.2"/>
<path d="M435.256 51.3213V44.8263H432.741V44.1213H438.506V44.8263H435.991V51.3213H435.256ZM440.762 51.4713C440.225 51.4713 439.767 51.3496 439.387 51.1063C439.007 50.863 438.715 50.5263 438.512 50.0963C438.308 49.6663 438.207 49.173 438.207 48.6163C438.207 48.0496 438.31 47.553 438.517 47.1263C438.723 46.6996 439.017 46.368 439.397 46.1313C439.78 45.8913 440.235 45.7713 440.762 45.7713C441.302 45.7713 441.762 45.893 442.142 46.1363C442.525 46.3763 442.817 46.7113 443.017 47.1413C443.22 47.568 443.322 48.0596 443.322 48.6163C443.322 49.183 443.22 49.6813 443.017 50.1113C442.813 50.538 442.52 50.8713 442.137 51.1113C441.753 51.3513 441.295 51.4713 440.762 51.4713ZM440.762 50.7663C441.362 50.7663 441.808 50.568 442.102 50.1713C442.395 49.7713 442.542 49.253 442.542 48.6163C442.542 47.963 442.393 47.443 442.097 47.0563C441.803 46.6696 441.358 46.4763 440.762 46.4763C440.358 46.4763 440.025 46.568 439.762 46.7513C439.502 46.9313 439.307 47.183 439.177 47.5063C439.05 47.8263 438.987 48.1963 438.987 48.6163C438.987 49.2663 439.137 49.788 439.437 50.1813C439.737 50.5713 440.178 50.7663 440.762 50.7663ZM450.865 51.3213L450.87 47.7763C450.87 47.3596 450.753 47.033 450.52 46.7963C450.29 46.5563 449.996 46.4363 449.64 46.4363C449.436 46.4363 449.238 46.483 449.045 46.5763C448.851 46.6696 448.691 46.8196 448.565 47.0263C448.441 47.233 448.38 47.503 448.38 47.8363L447.945 47.7113C447.935 47.3246 448.01 46.9863 448.17 46.6963C448.333 46.4063 448.556 46.1813 448.84 46.0213C449.126 45.858 449.45 45.7763 449.81 45.7763C450.353 45.7763 450.788 45.9446 451.115 46.2813C451.441 46.6146 451.605 47.0663 451.605 47.6363L451.6 51.3213H450.865ZM444.42 51.3213V45.9213H445.08V47.2513H445.16V51.3213H444.42ZM447.65 51.3213L447.655 47.8263C447.655 47.3963 447.54 47.058 447.31 46.8113C447.083 46.5613 446.783 46.4363 446.41 46.4363C446.036 46.4363 445.735 46.5646 445.505 46.8213C445.275 47.0746 445.16 47.413 445.16 47.8363L444.72 47.5963C444.72 47.2496 444.801 46.9396 444.965 46.6663C445.128 46.3896 445.351 46.173 445.635 46.0163C445.918 45.8563 446.24 45.7763 446.6 45.7763C446.943 45.7763 447.248 45.8496 447.515 45.9963C447.785 46.143 447.996 46.3563 448.15 46.6363C448.303 46.9163 448.38 47.2563 448.38 47.6563L448.375 51.3213H447.65ZM455.351 45.0713H454.721L455.321 43.5213H455.951L455.351 45.0713ZM454.446 51.4713C454.04 51.4713 453.698 51.398 453.421 51.2513C453.148 51.1046 452.943 50.9096 452.806 50.6663C452.67 50.423 452.601 50.158 452.601 49.8713C452.601 49.578 452.66 49.328 452.776 49.1213C452.896 48.9113 453.058 48.7396 453.261 48.6063C453.468 48.473 453.706 48.3713 453.976 48.3013C454.25 48.2346 454.551 48.1763 454.881 48.1263C455.215 48.073 455.54 48.028 455.856 47.9913C456.176 47.9513 456.456 47.913 456.696 47.8763L456.436 48.0363C456.446 47.503 456.343 47.108 456.126 46.8513C455.91 46.5946 455.533 46.4663 454.996 46.4663C454.626 46.4663 454.313 46.5496 454.056 46.7163C453.803 46.883 453.625 47.1463 453.521 47.5063L452.806 47.2963C452.93 46.813 453.178 46.438 453.551 46.1713C453.925 45.9046 454.41 45.7713 455.006 45.7713C455.5 45.7713 455.918 45.8646 456.261 46.0513C456.608 46.2346 456.853 46.5013 456.996 46.8513C457.063 47.008 457.106 47.183 457.126 47.3763C457.146 47.5696 457.156 47.7663 457.156 47.9663V51.3213H456.501V49.9663L456.691 50.0463C456.508 50.5096 456.223 50.863 455.836 51.1063C455.45 51.3496 454.986 51.4713 454.446 51.4713ZM454.531 50.8363C454.875 50.8363 455.175 50.7746 455.431 50.6513C455.688 50.528 455.895 50.3596 456.051 50.1463C456.208 49.9296 456.31 49.6863 456.356 49.4163C456.396 49.243 456.418 49.053 456.421 48.8463C456.425 48.6363 456.426 48.4796 456.426 48.3763L456.706 48.5213C456.456 48.5546 456.185 48.588 455.891 48.6213C455.601 48.6546 455.315 48.693 455.031 48.7363C454.751 48.7796 454.498 48.8313 454.271 48.8913C454.118 48.9346 453.97 48.9963 453.826 49.0763C453.683 49.153 453.565 49.2563 453.471 49.3863C453.381 49.5163 453.336 49.678 453.336 49.8713C453.336 50.028 453.375 50.1796 453.451 50.3263C453.531 50.473 453.658 50.5946 453.831 50.6913C454.008 50.788 454.241 50.8363 454.531 50.8363ZM460.473 51.4663C459.839 51.4663 459.318 51.3296 458.908 51.0563C458.501 50.783 458.251 50.403 458.158 49.9163L458.908 49.7913C458.988 50.098 459.169 50.343 459.453 50.5263C459.739 50.7063 460.093 50.7963 460.513 50.7963C460.923 50.7963 461.246 50.7113 461.483 50.5413C461.719 50.368 461.838 50.133 461.838 49.8363C461.838 49.6696 461.799 49.5346 461.723 49.4313C461.649 49.3246 461.498 49.2263 461.268 49.1363C461.038 49.0463 460.694 48.9396 460.238 48.8163C459.748 48.683 459.364 48.5496 459.088 48.4163C458.811 48.283 458.614 48.1296 458.498 47.9563C458.381 47.7796 458.323 47.5646 458.323 47.3113C458.323 47.0046 458.409 46.7363 458.583 46.5063C458.756 46.273 458.996 46.093 459.303 45.9663C459.609 45.8363 459.966 45.7713 460.373 45.7713C460.779 45.7713 461.143 45.838 461.463 45.9713C461.786 46.1013 462.046 46.2846 462.243 46.5213C462.439 46.758 462.556 47.033 462.593 47.3463L461.843 47.4813C461.793 47.1646 461.634 46.9146 461.368 46.7313C461.104 46.5446 460.769 46.448 460.363 46.4413C459.979 46.4313 459.668 46.5046 459.428 46.6613C459.188 46.8146 459.068 47.0196 459.068 47.2763C459.068 47.4196 459.111 47.543 459.198 47.6463C459.284 47.7463 459.441 47.8413 459.668 47.9313C459.898 48.0213 460.224 48.1196 460.648 48.2263C461.144 48.353 461.534 48.4863 461.818 48.6263C462.101 48.7663 462.303 48.9313 462.423 49.1213C462.543 49.3113 462.603 49.5463 462.603 49.8263C462.603 50.3363 462.413 50.738 462.033 51.0313C461.656 51.3213 461.136 51.4663 460.473 51.4663Z" fill="#000C14"/>
<path opacity="0.8" d="M483.641 45.5107L487.261 49.1314L490.882 45.5107" stroke="#000C14" stroke-width="1.01379" stroke-linecap="round" stroke-linejoin="round"/>
</g>
<path d="M155 71V87M125 71V87" stroke="#D6D7D7" stroke-width="0.5"/>
<path d="M63 48L40.5 60.9904L40.5 35.0096L63 48Z" fill="white"/>
<defs>
<filter id="filter0_d_1603_416" x="84" y="60" width="113" height="46" filterUnits="userSpaceOnUse" color-interpolation-filters="sRGB">
<feFlood flood-opacity="0" result="BackgroundImageFix"/>
<feColorMatrix in="SourceAlpha" type="matrix" values="0 0 0 0 0 0 0 0 0 0 0 0 0 0 0 0 0 0 127 0" result="hardAlpha"/>
<feOffset dy="4"/>
<feGaussianBlur stdDeviation="7.5"/>
<feComposite in2="hardAlpha" operator="out"/>
<feColorMatrix type="matrix" values="0 0 0 0 0.186667 0 0 0 0 0.186667 0 0 0 0 0.186667 0 0 0 0.05 0"/>
<feBlend mode="normal" in2="BackgroundImageFix" result="effect1_dropShadow_1603_416"/>
<feBlend mode="normal" in="SourceGraphic" in2="effect1_dropShadow_1603_416" result="shape"/>
</filter>
<filter id="filter1_dii_1603_416" x="8.13043" y="8.13043" width="90.6087" height="90.6087" filterUnits="userSpaceOnUse" color-interpolation-filters="sRGB">
<feFlood flood-opacity="0" result="BackgroundImageFix"/>
<feColorMatrix in="SourceAlpha" type="matrix" values="0 0 0 0 0 0 0 0 0 0 0 0 0 0 0 0 0 0 127 0" result="hardAlpha"/>
<feOffset dx="10.8696" dy="10.8696"/>
<feGaussianBlur stdDeviation="5.43478"/>
<feColorMatrix type="matrix" values="0 0 0 0 0 0 0 0 0 0 0 0 0 0 0 0 0 0 0.05 0"/>
<feBlend mode="normal" in2="BackgroundImageFix" result="effect1_dropShadow_1603_416"/>
<feBlend mode="normal" in="SourceGraphic" in2="effect1_dropShadow_1603_416" result="shape"/>
<feColorMatrix in="SourceAlpha" type="matrix" values="0 0 0 0 0 0 0 0 0 0 0 0 0 0 0 0 0 0 127 0" result="hardAlpha"/>
<feOffset dx="-10.8696" dy="-10.8696"/>
<feGaussianBlur stdDeviation="10.8696"/>
<feComposite in2="hardAlpha" operator="arithmetic" k2="-1" k3="1"/>
<feColorMatrix type="matrix" values="0 0 0 0 1 0 0 0 0 1 0 0 0 0 1 0 0 0 1 0"/>
<feBlend mode="soft-light" in2="shape" result="effect2_innerShadow_1603_416"/>
<feColorMatrix in="SourceAlpha" type="matrix" values="0 0 0 0 0 0 0 0 0 0 0 0 0 0 0 0 0 0 127 0" result="hardAlpha"/>
<feOffset dx="10.8696" dy="10.8696"/>
<feGaussianBlur stdDeviation="5.43478"/>
<feComposite in2="hardAlpha" operator="arithmetic" k2="-1" k3="1"/>
<feColorMatrix type="matrix" values="0 0 0 0 0 0 0 0 0 0 0 0 0 0 0 0 0 0 0.05 0"/>
<feBlend mode="normal" in2="effect2_innerShadow_1603_416" result="effect3_innerShadow_1603_416"/>
</filter>
<filter id="filter2_di_1603_416" x="16.1695" y="21.6043" width="63.661" height="63.66" filterUnits="userSpaceOnUse" color-interpolation-filters="sRGB">
<feFlood flood-opacity="0" result="BackgroundImageFix"/>
<feColorMatrix in="SourceAlpha" type="matrix" values="0 0 0 0 0 0 0 0 0 0 0 0 0 0 0 0 0 0 127 0" result="hardAlpha"/>
<feOffset dy="5.43478"/>
<feGaussianBlur stdDeviation="5.43478"/>
<feColorMatrix type="matrix" values="0 0 0 0 0.101961 0 0 0 0 0.823529 0 0 0 0 0.658824 0 0 0 0.6 0"/>
<feBlend mode="normal" in2="BackgroundImageFix" result="effect1_dropShadow_1603_416"/>
<feBlend mode="normal" in="SourceGraphic" in2="effect1_dropShadow_1603_416" result="shape"/>
<feColorMatrix in="SourceAlpha" type="matrix" values="0 0 0 0 0 0 0 0 0 0 0 0 0 0 0 0 0 0 127 0" result="hardAlpha"/>
<feOffset dx="10.8696" dy="10.8696"/>
<feGaussianBlur stdDeviation="8.15217"/>
<feComposite in2="hardAlpha" operator="arithmetic" k2="-1" k3="1"/>
<feColorMatrix type="matrix" values="0 0 0 0 1 0 0 0 0 1 0 0 0 0 1 0 0 0 0.2 0"/>
<feBlend mode="normal" in2="shape" result="effect2_innerShadow_1603_416"/>
</filter>
<filter id="filter3_d_1603_416" x="419.641" y="35.3213" width="84" height="29" filterUnits="userSpaceOnUse" color-interpolation-filters="sRGB">
<feFlood flood-opacity="0" result="BackgroundImageFix"/>
<feColorMatrix in="SourceAlpha" type="matrix" values="0 0 0 0 0 0 0 0 0 0 0 0 0 0 0 0 0 0 127 0" result="hardAlpha"/>
<feOffset dy="2"/>
<feGaussianBlur stdDeviation="2"/>
<feComposite in2="hardAlpha" operator="out"/>
<feColorMatrix type="matrix" values="0 0 0 0 0.530833 0 0 0 0 0.530833 0 0 0 0 0.530833 0 0 0 0.13 0"/>
<feBlend mode="normal" in2="BackgroundImageFix" result="effect1_dropShadow_1603_416"/>
<feBlend mode="normal" in="SourceGraphic" in2="effect1_dropShadow_1603_416" result="shape"/>
</filter>
<linearGradient id="paint0_linear_1603_416" x1="47.9995" y1="68.5052" x2="47.9995" y2="27.4937" gradientUnits="userSpaceOnUse">
<stop stop-color="#12AC89"/>
<stop offset="1" stop-color="#25FCCB"/>
</linearGradient>
<linearGradient id="paint1_linear_1603_416" x1="99" y1="47.5" x2="113" y2="47.5" gradientUnits="userSpaceOnUse">
<stop stop-color="#25FFCD"/>
<stop offset="1" stop-color="#16997B"/>
</linearGradient>
</defs>
</svg>
