<svg width="1378" height="705" viewBox="0 0 1378 705" fill="none" xmlns="http://www.w3.org/2000/svg">
<path d="M0 116.778L323.247 0L655.2 114.702L601.451 548.337L323.247 704.56L49.3962 550.413L0 116.778Z" fill="#E23237"/>
<path d="M655.2 114.702L323.247 0V704.56L601.451 548.597L655.2 114.702V114.702Z" fill="#B52E31"/>
<path d="M323.759 82.2643L122.338 536.66L197.582 535.363L238.022 432.856H418.713L462.991 536.66L534.907 537.958L323.759 82.2643ZM324.273 227.848L392.351 372.132H264.381L324.273 227.848Z" fill="white"/>
<path d="M1048.87 0L722 117L771.359 549.9L1048.87 704.559L1326.74 549.9L1377.2 117L1048.87 0Z" fill="#FFA726"/>
<path d="M1048.87 0V78.2438V433.997V704.559L1326.74 549.9L1377.2 117L1048.87 0Z" fill="#FB8C00"/>
<path d="M1098.23 534.91L866.788 423.394L999.51 341.494L1232.41 453.375L1098.23 534.91Z" fill="#FFE0B2"/>
<path d="M1098.23 448.988L866.788 337.106L999.51 255.572L1232.41 367.453L1098.23 448.988Z" fill="#FFF3E0"/>
<path d="M1098.23 363.066L866.788 251.185L999.51 169.285L1232.41 281.166L1098.23 363.066Z" fill="white"/>
</svg>
