<svg id="Capa_1" data-name="Capa 1" xmlns="http://www.w3.org/2000/svg" viewBox="0 0 1426.17 1067.02"><defs><style>.cls-1{fill:#fff;}.cls-2{fill:#ffe1c7;}.cls-3{fill:#d5e2ed;}.cls-4{fill:#625da8;}.cls-5{fill:#eb8181;}.cls-6{fill:#070201;}.cls-7{fill:#3b251d;}.cls-8{fill:#ffa280;}.cls-9{fill:#db7753;}.cls-10{fill:#ffc080;}.cls-11{fill:#1a1a1a;}.cls-12{fill:#eda458;}.cls-13{fill:#544743;}.cls-14{fill:#c7916d;}.cls-15{fill:#4e8271;}.cls-16{fill:#366657;}.cls-17{fill:#fff1e6;}.cls-18{fill:#f5d6c1;}</style></defs><path class="cls-1" d="M1777.55,603.46c-2.57-97.46-8.23-195.21-8.36-292.52-.06-34.66.59-69.6-3.85-103.89-1-7.8-2.23-15.57-3.82-23.31-8.6-41.7-27.87-82.72-61.4-108.91a147.16,147.16,0,0,0-35.06-20.1c-1-.43-2-.82-3.06-1.19-37.93-14.65-81.65-16-123.84-15.27-1,0-2.05,0-3.06.06-4.92.07-9.82.19-14.68.31q-54.56,1.38-109.15,1.9c-1,0-2,0-3.06,0q-61.95.69-123.84.67c-1,0-2,0-3.06,0q-61.9.09-123.83-.15h-6.25q-60.33-.14-120.65-.31h-3.06q-61.9-.14-123.81-.3h-3.05q-61.9-.15-123.84-.31h-3.06q-61.9-.14-123.84-.31h-3.06l-23-.06c-33.62-.09-68.22.06-100.83,7-1,.21-2,.43-3.06.67a183,183,0,0,0-45,16.31,161.84,161.84,0,0,0-30.29,20.77c-33.53,29.06-55.95,71.13-67.45,114.51-14.69,55.34-13.89,113.46-13,170.7q3.5,217.6,6.92,435.17c1,61.19,2.32,90.52,26.55,146.72C423,1010.24,471.94,1048.51,534.8,1057c79.48,10.77,165.05,3.88,245.51,4.83l508.77,5.88,40.69.46c92.08,1.07,183.23,4.79,274.09-10.11,48.45-7.92,106.09-2.2,133.84-42.7,15.11-22,14.08-43.06,18.73-69.34C1776.62,831.65,1780.64,719.8,1777.55,603.46Z" transform="translate(-363.83 -2.37)"/><path class="cls-2" d="M1665.06,54.73v241.8a1.53,1.53,0,0,1-3.06,0v-243C1663,53.91,1664.05,54.3,1665.06,54.73Z" transform="translate(-363.83 -2.37)"/><path class="cls-2" d="M1538.16,38.27V296.53a1.53,1.53,0,1,1-3.06,0V38.33C1536.11,38.3,1537.15,38.27,1538.16,38.27Z" transform="translate(-363.83 -2.37)"/><path class="cls-2" d="M1411.27,40.54v256a1.53,1.53,0,0,1-3.06,0v-256C1409.22,40.57,1410.23,40.57,1411.27,40.54Z" transform="translate(-363.83 -2.37)"/><path class="cls-2" d="M1284.37,41.24V296.53a1.53,1.53,0,0,1-1.53,1.53,1.56,1.56,0,0,1-1.53-1.53V41.24C1282.32,41.27,1283.36,41.27,1284.37,41.24Z" transform="translate(-363.83 -2.37)"/><path class="cls-2" d="M1157.48,41.09V296.53a1.53,1.53,0,0,1-3.06,0V41.09Z" transform="translate(-363.83 -2.37)"/><path class="cls-2" d="M1030.58,40.78V296.53a1.53,1.53,0,0,1-1.53,1.53,1.55,1.55,0,0,1-1.53-1.53V40.78Z" transform="translate(-363.83 -2.37)"/><path class="cls-2" d="M903.71,40.48v256a1.55,1.55,0,0,1-1.53,1.53,1.53,1.53,0,0,1-1.52-1.53v-256Z" transform="translate(-363.83 -2.37)"/><path class="cls-2" d="M776.82,40.17V296.53a1.56,1.56,0,0,1-1.53,1.53,1.53,1.53,0,0,1-1.53-1.53V40.17Z" transform="translate(-363.83 -2.37)"/><path class="cls-2" d="M649.92,39.86V296.53a1.53,1.53,0,0,1-3.06,0V39.86Z" transform="translate(-363.83 -2.37)"/><path class="cls-2" d="M523,46.84V296.53a1.53,1.53,0,0,1-3.06,0v-249C521,47.27,522,47.05,523,46.84Z" transform="translate(-363.83 -2.37)"/><path class="cls-3" d="M1759.19,950.13c-2.69,15.21-5.81,30.59-10.89,45.12-3.7,10.62-4.24,10.83-10.6,20.13-27.75,40.5-85.39,34.78-133.84,42.7-90.86,14.9-182,11.18-274.09,10.11l-40.69-.46-508.77-5.88c-80.46-.95-166,5.94-245.51-4.83-62.86-8.51-111.81-46.78-137.08-105.33-24.23-56.2-25.57-85.53-26.55-146.72q-3.45-217.6-6.92-435.17c-.91-57.24-1.71-115.36,13-170.7,11.5-43.38,33.92-85.45,67.45-114.51L1765.34,207.05c4.44,34.29,3.79,69.23,3.85,103.89.07,45.06,1.29,90.22,2.88,135.43,1.84,52.38,4.1,104.78,5.48,157.09C1780.64,719.8,1779.38,835.75,1759.19,950.13Z" transform="translate(-363.83 -2.37)"/><path class="cls-4" d="M1778.77,678.35c0-8.17-.09-16.33-.21-24.5-.22-16.77-.59-33.59-1-50.39q-.69-26.21-1.66-52.43c-.24-8-.55-16.09-.85-24.14-1-26.83-2-53.69-3-80.52-97.68-13.52-196.25-18.81-294.72-22.73-106.8-4.25-586.52-57.88-639.13-63.48C811.17,357.29,784.1,355,757,353.1c-13.49-1-58.61-11.26-58.61-11.26s-15,37.35-20.13,47.39c-3.64,7.12-7.31,14.25-11,21.38-2.39,4.65-4.8,9.3-7.19,13.95-.4.79-.83,1.59-1.22,2.39q-17.67,34-35.74,67.91c-.79,1.5-1.62,3-2.41,4.53-1.93,3.61-3.86,7.19-5.82,10.77Q592,552.68,568.49,594.8q-3.45,6.19-7,12.39-32.81,58.42-66.93,116-4.73,8-9.49,16-9.08,15.28-18.29,30.5c-6.82,11.32-31,53.75-30,54,147.6,32.89,262.94,50.85,392.43,69,133.14,18.69,266.83,34,400.33,49.83,136.84,16.22,273.8,31.36,411.07,43.69q51.06,4.59,102.2,8.66l5.48.42c5.08-14.53,8.2-29.91,10.89-45.12q2.57-14.64,4.77-29.34c1.47-9.94,2.82-19.91,4-29.85,4.28-34.79,7-69.66,8.69-104.66.4-7.77.7-15.54,1-23.31C1778.62,734.82,1778.92,706.62,1778.77,678.35Z" transform="translate(-363.83 -2.37)"/><path class="cls-1" d="M1778.56,653.85c-24.08-2.11-48-5-71.74-9.67a382.58,382.58,0,0,1-60.18-16.73c-18.87-7.1-37-16.77-56.84-20.81-20.19-4.1-40.9-3-61.37-2.69a594.83,594.83,0,0,1-64.42-2.81c-44.3-4.26-88.08-12.39-132-19.58-42.21-6.89-84.43-12.18-127.17-14.29-44.11-2.17-88.29-2.17-132.4-4.68A886.66,886.66,0,0,1,942.2,545c-41.39-8.63-82.42-19-123.9-27.23A747,747,0,0,0,680.82,503c-20-.25-40.29-.52-60.11-3.61-1.93,3.61-3.86,7.19-5.82,10.77,145.68,9.33,286.74,52.61,431,73.05,78.95,11.17,158.59,16.49,238.06,22.58,80.58,6.18,161,14.22,241.28,23.4,85.87,9.82,170.16,26.65,253.52,49.16C1778.77,670.18,1778.68,662,1778.56,653.85Zm-3.52-127c-145.16-29.28-294.18-37.08-441.72-45.52q-57.73-3.3-115.49-6.3c-37.59-2-75.31-4.13-112.58-9.79-36.25-5.54-70.91-17-106.79-24.11-35.64-7-72.11-7.25-108.3-7.07-74.61.34-152,3-222.89-23.49-2.39,4.65-4.8,9.3-7.19,13.95-.4.79-.83,1.59-1.22,2.39,30.4,12.23,64,13.88,96.79,13.73,20.86-.09,41.76-.89,62.62-.15a588.33,588.33,0,0,1,72.2,7.25c89.42,14.1,175.75,43.53,265.63,55.25,96.33,12.6,193.83.67,290.38,10.55,47.6,4.87,94.83,12,142.68,13.55,49.41,1.6,97.8,2.3,146.2,13.53,13.28,3.09,26.83,6.67,40.53,10.37C1775.65,543,1775.34,534.94,1775,526.89Z" transform="translate(-363.83 -2.37)"/><path class="cls-1" d="M1539.51,752.29c-91-8-182.09-15.84-273-25.18-46-4.74-91.87-10.43-137.3-19.05-44.33-8.45-87.46-21-131-32.71-41.85-11.25-83.79-18.75-126.8-23.77-45.86-5.35-90.68-11.74-135.19-24.32-24.56-6.94-49-14.53-73.88-20.19a519.32,519.32,0,0,0-70-10.61c-7.95-.71-15.94-1.26-23.92-1.66q-3.45,6.19-7,12.39c2.08.31,4.13.62,6.21,1,41.79,7.13,81.65,22.06,121.64,35.58,41,13.83,82,24.81,125.09,29.13,46.59,4.65,93.36,5.41,139.8,11.83,89.18,12.33,176.06,36.62,264.26,54,43.16,8.5,86.73,15.36,130.66,18.23,46.22,3.06,92.66,1,138.82,4.83,51.58,4.29,101.35,19.31,152.63,25.61a527.22,527.22,0,0,0,136-1.07c.4-7.77.7-15.54,1-23.31C1698.19,764.83,1618.68,759.27,1539.51,752.29Z" transform="translate(-363.83 -2.37)"/><path class="cls-1" d="M1551.44,874.05Q1410.61,860.1,1270,843.64c-92.6-10.8-186.49-18.57-276.7-43.17-43.69-11.9-86.91-25.54-131.46-34.2-44.75-8.69-90.15-13.52-135.46-18.35q-78.64-8.4-157.24-16.77l-74.55-7.92q-4.73,8-9.49,16C563,747,641,755.14,718.42,766.92c42.37,6.42,84.55,13.88,126.44,22.94,42.36,9.15,84.34,20.19,126.83,28.88,42,8.59,84.53,13.8,127.11,18.72q65.25,7.57,130.51,15.11,133.53,15.46,267.06,30.9,74.34,8.63,148.71,17.22c39.92,4.62,80.28,8.75,118.88,20.1,1.47-9.94,2.82-19.91,4-29.85C1695.68,887.48,1623.48,881.18,1551.44,874.05Z" transform="translate(-363.83 -2.37)"/><path class="cls-1" d="M1337.64,970.68c0,7-9.76,12.7-21.79,12.7s-21.8-5.69-21.8-12.7,9.76-12.7,21.8-12.7S1337.64,963.67,1337.64,970.68Z" transform="translate(-363.83 -2.37)"/><path class="cls-1" d="M1337.64,939.58c0,7-9.76,12.7-21.79,12.7s-21.8-5.69-21.8-12.7,9.76-12.7,21.8-12.7S1337.64,932.57,1337.64,939.58Z" transform="translate(-363.83 -2.37)"/><path class="cls-5" d="M1314.65,914.59a2.45,2.45,0,0,0-.59-.34,1.52,1.52,0,0,0-1.72.34,2.43,2.43,0,0,0-.2,1.92,20.86,20.86,0,0,1-.37,8.23c-.74,2.88-1.88,5.82-1.13,8.82,1,3.9,6.52,7.05,9.3,2.89a7.83,7.83,0,0,0,1.07-3.55,23.17,23.17,0,0,0-5.5-17.47A5.25,5.25,0,0,0,1314.65,914.59Z" transform="translate(-363.83 -2.37)"/><rect class="cls-1" x="930.22" y="937.21" width="43.59" height="31.1"/><path class="cls-2" d="M1317.28,950.3l-1.48,0c-15.09-.5-19.48-7.41-19.66-7.7a1.53,1.53,0,0,1,2.6-1.61c.09.13,4,5.82,17.16,6.25,13.67.42,16.83-5.81,17-6.07a1.53,1.53,0,0,1,2.79,1.25C1335.5,942.72,1332,950.3,1317.28,950.3Z" transform="translate(-363.83 -2.37)"/><ellipse class="cls-1" cx="878.58" cy="999.9" rx="21.8" ry="12.7"/><path class="cls-1" d="M1264.2,987.86c0,7-9.76,12.69-21.8,12.69s-21.79-5.68-21.79-12.69,9.76-12.7,21.79-12.7S1264.2,980.84,1264.2,987.86Z" transform="translate(-363.83 -2.37)"/><path class="cls-5" d="M1243,969.53c-.45-.51-1-.83-1.59-.54a2,2,0,0,0-.78,1,52.39,52.39,0,0,0-3.35,12c-.39,3.53,3.68,9.43,8.33,4.33A7,7,0,0,0,1247,981c-.27-3.65-1.8-7.08-3.3-10.42A4.87,4.87,0,0,0,1243,969.53Z" transform="translate(-363.83 -2.37)"/><rect class="cls-1" x="856.78" y="985.49" width="43.59" height="14.41"/><path class="cls-2" d="M1243.59,998.09l-1.24,0c-15.09-.5-19.48-7.41-19.66-7.7a1.53,1.53,0,0,1,2.61-1.61c.08.13,4,5.81,17.15,6.25,13.79.43,18-7.5,18.22-7.84a1.53,1.53,0,0,1,2.74,1.36C1263.21,988.93,1258.51,998.09,1243.59,998.09Z" transform="translate(-363.83 -2.37)"/><path class="cls-6" d="M1454.75,50.77c-3.56-9.33-12.57-19.15-19.88-25-6.83-5.48-14.85-5.64-23-5.11-8.13-8.37-18.28-13.85-29.49-15.22-8.09-1-16.51.52-24.6,1-7,.4-12.46,4.88-19.23,6.65-12,3.13-21,8.17-28.24,19.54a111.48,111.48,0,0,0-12.53,27.67c-1.33,4.52-4.78,8.23-5.44,13.5s.87,10.2,2,15.31,1.52,10.56,3,15.68c2.37,8.3,6.7,16.53,13,22,7.18,6.17,16.81,7.84,25.65,8.86,23.69,2.73,47.17-3.3,70.79-4.12a68.43,68.43,0,0,1,18.13,2c3.6.82,7.37,1.72,11,.66a11.42,11.42,0,0,0,8.55-10.88c1.13-1.53,2.18-3.12,3.18-4.77a1.51,1.51,0,0,0,2.93-.61c-.17-6.67,3-11.88,4-18.25.92-5.84-.34-11.59-.33-17.43C1454.31,71,1459,61.8,1454.75,50.77Z" transform="translate(-363.83 -2.37)"/><path class="cls-7" d="M1738.19,659.76c-10.18-47-41.52-84.17-80-115.94-22.87-18.87-48.47-35-73.7-50.43-25-15.35-50.81-29.5-77.06-42.63,1.58-1.14.06-3.79-1.55-2.64-.54.39-1.1.72-1.65,1.08-.68-.33-1.35-.68-2-1-1.76-.86-3.31,1.78-1.54,2.64l.58.29c-9.81,5.78-20.75,8.85-31.68,12.15a293.47,293.47,0,0,0-36.23,13.79c-24.79,11.26-50.29,23.46-72.86,38.77-8.47,5.76-16.62,12.24-22.94,20.38-7.58,9.77-10.51,20.71-12.43,32.74-4.71,29.55-9,59.17-13.48,88.75a1.57,1.57,0,0,0,1.07,1.88C1368.29,675.91,1424.35,691.4,1481,704c39.56,8.82,80.39,15.1,120.55,21.55,30.86,5,76.94,11.27,106-4.6C1753.48,695.86,1742.19,678.21,1738.19,659.76Z" transform="translate(-363.83 -2.37)"/><path class="cls-7" d="M1428,636.39q-6.39-20.5-12.87-41-3.36-10.59-6.74-21.16c-1.67-5.22-2.68-11.56-5.59-16.26-4.57-7.37-15.26-8.07-23.06-7.59-9.81.61-19.16,3.87-28.13,7.74,1.18-8.33,2.62-16.67,1.3-25.1-1.93-12.22-8.76-23.11-17.43-31.72-21.32-21.19-51.75-27.12-78.63-38.4.07-.14.12-.29.19-.44.85-1.77-1.79-3.32-2.64-1.54-.13.26-.22.53-.35.8-.18-.09-.37-.16-.56-.24-1.78-.79-3.34,1.84-1.54,2.64l.91.39c-.15.39-.33.77-.48,1.17a1.31,1.31,0,0,0-1.06-.06q-37.71,13.16-74.07,29.8c-23.77,10.94-48.16,22.26-69.23,37.94-34.42,25.61-85.62,60.37-97.89,101.51-5.54,18.58-7.5,43.06,4.73,59.46,32.44,43.49,109.07,28.93,153.61,19.51q40.63-8.6,80.83-19.08a1785.06,1785.06,0,0,0,177.63-56.52A1.57,1.57,0,0,0,1428,636.39Z" transform="translate(-363.83 -2.37)"/><path class="cls-8" d="M1292.31,560s-19.48,2.2-33.65,10.25c-12,6.79-19.88,5-38.64,2.29s-26.37,2.69-32.48,3.83-35.19-13.77-41.67-16.37c-2.75-1.1-5.32-3.55-7.5-6.39-.85-1.17-1.68-2.42-2.44-3.64a48,48,0,0,1-3.83-7.93c-1.92-5.26,6.34-11.5,6.34-11.5a83.21,83.21,0,0,1,28.84-6.46c16.43-.64,40.51,13.65,53.14,12.91s26-7.64,43.6-4.58S1292.31,560,1292.31,560Z" transform="translate(-363.83 -2.37)"/><path class="cls-9" d="M1149.3,541.78c-7-1.17-14.13-1.7-19.87-6.4-1.52-1.23-3.69.92-2.17,2.17,6.25,5.1,13.51,5.9,21.22,7.18C1150.41,545.05,1151.24,542.1,1149.3,541.78Z" transform="translate(-363.83 -2.37)"/><path class="cls-9" d="M1148.13,554.61a61.48,61.48,0,0,1-9.76-1c-.85-1.17-1.68-2.42-2.44-3.64a59.5,59.5,0,0,0,12.2,1.56A1.53,1.53,0,0,1,1148.13,554.61Z" transform="translate(-363.83 -2.37)"/><path class="cls-8" d="M1138.43,530.57s-46.94-1-67.4-7.46l.18-.35c.81-1.64-1.65-3.09-2.47-1.44a539.16,539.16,0,0,1-26.89,48.13,1.43,1.43,0,0,0,.22,1.73c11.26,9.78,29.15,39,29.15,39Z" transform="translate(-363.83 -2.37)"/><path class="cls-10" d="M1547.45,261.1c7.88-14.22,18-30.84,10.54-47.12-7-15.23-19.26-29.18-31.43-40.44-27.4-25.35-62-38.42-98.31-44.9-36-6.43-75.46-10.4-110.37,2.64a1.7,1.7,0,0,0-1.14.41c-2.77,1.07-5.52,2.21-8.23,3.5-1.78.85-.34,3.55,1.44,2.7,2-.94,4-1.8,6-2.62,0,.15,0,.3,0,.45-30.6,11.94-53.29,16.67-81,34.43-10.34,6.63-34.64,24.62-36.92,38.13-2.8,16.6,3.2,35.69,6.32,51.86a228.25,228.25,0,0,1,4,27.41c.64,9.41.27,18.89,1.58,28.26,2.33,16.7,12,31.38,14,48.11,1.91,16.22-4.2,31.95,3.77,47.25,2,3.94,4.84,7.72,6,12.06,1.54,5.75-.89,10-3.75,14.8-2.74,4.6-5.11,9.11-3.86,14.62,1.94,8.61,9.07,14.12,9.28,23.43.17,7.42-.63,13.7,2.33,20.77a37.46,37.46,0,0,0,14,16.8c11.51,11,30.19,15.28,45,17.88,30,5.26,61.08,8.07,91.56,6.73,23.84-1,48.23-1.47,71.44-7.66,17.71-4.73,36.68-12.76,49.42-26.37,10.86-11.6,10.2-29.65,9.18-44.92-.71-10.47,3.67-18.91,7.46-28.67,2.83-7.28,4.56-13.94,3.62-21.81-1.3-10.88-5.55-20.88-5.58-32,0-9.25,4.75-18.4,5.14-27.63.43-10.13-1.6-19.66-3.3-29.6-2.07-12.13,1.48-22.72,7.14-33.77C1537.12,277.3,1542.81,269.49,1547.45,261.1Z" transform="translate(-363.83 -2.37)"/><path class="cls-8" d="M1483,171.6c-13-12-26.52-21.47-44-25.7a263.34,263.34,0,0,0-65.73-7.35c-23,.49-45.11,7-66.58,14.71a1.59,1.59,0,0,0-1,.08c-14.57,6.53-32.41,13.92-41.77,27.69-12.16,17.88,24.31,40.61,35.62,46.62,28.48,15.13,58.1,24.42,91.33,22.5,35.55-2.06,67.25-20,91.08-45.81,4-4.37,8.52-9.79,9.49-15.8C1492.64,181.42,1487.88,176.09,1483,171.6Z" transform="translate(-363.83 -2.37)"/><path class="cls-9" d="M1316.3,147.1c.33,16,1,32.11,5.41,47.47,9.4,33.05,38.89,56.47,74.14,50.71,10.76-1.76,21.25-6.22,29.14-13.73,14.29-13.6,22.47-38.47,21.1-57.94-.63-9-3.95-18-10.47-24.26-6.1-5.84-14.52-8.77-22.91-9.71s-16.88,0-25.27.92C1363.77,143.2,1340.1,146.08,1316.3,147.1Z" transform="translate(-363.83 -2.37)"/><path class="cls-8" d="M1428.87,72.86c-9.75-12.44-23-15.17-38.14-13.61-16.61,1.72-33.21,6.26-47.72,14.66-13,7.54-29.76,20.77-30.81,37a1.64,1.64,0,0,0,.12.69,1.41,1.41,0,0,0-.8,1.24c-1.44,33.39,7.44,83.82,34.84,108.22,8.51,7.57,16.48,16.27,29.42,17.48,10.73,1,16.54-1.39,24.89-8.3,9.48-7.85,21.06-17,25.76-26,15-28.84,17.78-63.79,18.46-95.69C1445.19,94.35,1437.83,84.28,1428.87,72.86Z" transform="translate(-363.83 -2.37)"/><path class="cls-8" d="M1456.46,118.28c-4.85-10.14-12.6-3.82-17.54,2.41a1.55,1.55,0,0,0-2.64,1c0,1-.1,2-.14,3a1.23,1.23,0,0,0,0,.88c-.42,8.14-1.87,16-3.28,24.1-.84,4.85-3.12,14.12.19,18.4,5.46,7.09,16.49-6.15,18.76-10.83C1456.47,147.6,1461.41,128.63,1456.46,118.28Z" transform="translate(-363.83 -2.37)"/><path class="cls-8" d="M1302.65,160.33c2.27,4.68,13.3,17.92,18.76,10.83,3.3-4.28,1-13.55.19-18.4-1.41-8.09-2.86-16-3.28-24.1a1.28,1.28,0,0,0,0-.88c0-1-.13-2-.14-3a1.55,1.55,0,0,0-2.64-1c-4.94-6.23-12.69-12.55-17.54-2.41C1293,131.69,1298,150.66,1302.65,160.33Z" transform="translate(-363.83 -2.37)"/><path class="cls-10" d="M1246.83,283a107.83,107.83,0,0,0-8.3-24.47c-4.06-8.38-9.34-16.35-11.12-25.64-1.52-7.92-1.09-15.62-4.59-23.11a40.22,40.22,0,0,0-12.63-15.13c2.08-1.78,4.2-3.53,6.4-5.21,1.55-1.18,0-3.84-1.54-2.64a161.39,161.39,0,0,0-52.8,71.16c-6.11,15.9-8.8,32.52-13.75,48.73-4.67,15.27-18.22,23-25.15,37-5.1,10.28-4.38,25.39-9.24,36.94-6.11,14.52-16.15,22.34-18.7,37.45-2.49,14.71-13.54,25-18.3,38.72a29.9,29.9,0,0,0-1.14,15.6c1.81,9.85-2.1,11.68-9.27,19.12-5.68,5.9-10.61,34.41-7.51,36.32,7.5,4.62,16.32,7.74,24.32,11.43,7.85,3.62,10.12,7.24,18,10.87,5.62,2.59,12.49,7.2,19,6.32,12.1-1.62,22.07-17,28.76-25.83,10.31-13.58,17.34-29.25,28.86-41.9,9.13-10,17.19-19,19.21-32.85,1.28-8.84,7.32-16.94,13.15-24.16,4.69-5.81,10.9-10.08,16.38-15.08,9.66-8.81,15.8-20.16,19.19-32.71,4.07-15,4.52-30.78,4.64-46.25C1250.8,319.41,1250.69,300.91,1246.83,283Z" transform="translate(-363.83 -2.37)"/><path class="cls-8" d="M1680.74,604.67s18.36-28.51,29.74-37.38a1.39,1.39,0,0,0,.31-1.66,520.1,520.1,0,0,1-23.49-47.89c-.7-1.64-3.16-.36-2.46,1.26l.15.35c-20.1,5.19-65.5,3.71-65.5,3.71Z" transform="translate(-363.83 -2.37)"/><path class="cls-10" d="M1695.25,516c-1.63-2.12-3.54-3.44-5.51-5.15-5-4.37-7.43-7.85-6.45-14.34.15-1,.39-2,.52-3.05,1-7.91-2.24-14.37-5.75-21.23-7.92-15.5-9-32.37-13.24-49-1.74-6.81-4.13-13.61-8-19.52-5-7.61-12.73-12.13-14.62-21.63-1.67-8.39-2.06-16.69-4.65-24.95a109.35,109.35,0,0,0-11.16-24c-5.09-8.42-10.17-16.5-13.66-25.77-3.69-9.8-6.06-20.05-9.16-30.05a206.51,206.51,0,0,0-19.6-44.24,203.94,203.94,0,0,0-77.76-75.4c-1.73-1-3.3,69.77-7.44,101.24-3.8,28.91-5.12,58.73,3.13,87a114.25,114.25,0,0,0,17.27,35.83c4.22,5.73,9.27,10.83,13.26,16.74s6.14,12.51,8.17,19.27c3.26,10.88,1.46,24.28,10.72,31.4,5,3.84,10.64,6.79,15.45,10.9,5.61,4.79,9.25,11.06,12.36,17.66a149.13,149.13,0,0,0,20.65,32.71c9.68,11.78,20.26,23.18,23.2,38.67a1.53,1.53,0,0,0,1.48,1.12C1636,549.79,1717.37,545,1695.25,516Z" transform="translate(-363.83 -2.37)"/><path class="cls-8" d="M1752.66,650.83c1.87,1.95,3.77,4.16,5.82,6.08,0,0,.09.07.12.13a24.67,24.67,0,0,0,4.07,3.09c11.56,6.91,22.39-7.65,12.17-15.3a1.08,1.08,0,0,1,.22-.12c4.46-3.7-.62-11.32-2.18-15.21-3.73-9.39-14.8-44.38-24.84-51.36-14.47-10-21-9.94-38.57-12.36a1.36,1.36,0,0,0-1.2-1c-10.15-1-19.06,3.06-27.68,8-2.48,1.43-5.72,2.87-6.92,5.72-1.68,3.94.83,8.78,2,12.45,2.3,6.85,4.56,13.73,6.83,20.62,1.4,4.22,2.78,8.44,4.19,12.66,3.61,10.86,7.28,21.69,11.19,32.43,2.08,5.69,16.16,49.1,25.91,41.88,5-3.67-1.71-15.51-2.87-19.55s-2.2-8.29-3.12-12.48a136.58,136.58,0,0,0,7.71,18.17c4.28,8.35,11.62,24.48,22.61,25.3a1.39,1.39,0,0,0,1.22-.64c3.33-5-2.63-15.11-4.9-19.82-3.09-6.46-6.89-17.37-9.22-24,4.9,9.33,12.46,21.69,19.56,29.25,2.6,2.78,11.17,12.27,15.45,7,3.86-4.77-5.69-15.81-7.74-20-4.83-9.82-14-34.42-15-37.39l-.09-.21a.23.23,0,0,1,0-.09l0,0A61.36,61.36,0,0,0,1752.66,650.83Z" transform="translate(-363.83 -2.37)"/><path class="cls-9" d="M1770.2,640.17a9.65,9.65,0,0,0-3.32-1.83c-5.34-5.19-8.91-11.45-12.21-18.08-1.92-3.86-3.63-10-7.5-12.44s-9.77-.41-14.19-.65c-9.52-.53-18.39-4.26-26.43-9.17-1.68-1-3.22,1.62-1.54,2.64a75.49,75.49,0,0,0,11.12,5.66c-.21,4.33-3.11,8.05-5.61,11.43a33.38,33.38,0,0,1-9.92,9.35,1.53,1.53,0,0,0,1.54,2.64,37,37,0,0,0,11-10.45c2.66-3.61,5.42-7.38,6-11.85,1,.35,2.05.72,3.1,1a52.36,52.36,0,0,0,8.15,1.57c3.77.42,7.86-.65,11.48-.16,7.07,1,9.4,10.7,12.38,16.27a61.16,61.16,0,0,0,7.85,11.61,10.63,10.63,0,0,0-5.75,1.85c-4.24,3.17-3,9.27-.2,13,1.16,1.56,3.82,0,2.64-1.54-1.86-2.5-3.61-7.13-.25-9.26a9.56,9.56,0,0,1,6.94-.68,1.38,1.38,0,0,0,.4.1,6,6,0,0,1,2.17,1.16C1769.5,643.64,1771.67,641.48,1770.2,640.17Z" transform="translate(-363.83 -2.37)"/><path class="cls-9" d="M1736.93,663.51l-5.38-13.87c-.7-1.82-3.66-1-3,.81l5.38,13.87C1734.68,666.14,1737.64,665.35,1736.93,663.51Z" transform="translate(-363.83 -2.37)"/><path class="cls-9" d="M1719.78,664.13l-3.06-8.79c-.65-1.85-3.6-1.05-3,.81,1,2.93,2,5.87,3.07,8.8C1717.48,666.79,1720.44,666,1719.78,664.13Z" transform="translate(-363.83 -2.37)"/><path class="cls-8" d="M1079.45,584.79c-1.08-3-4.36-4.68-6.82-6.27-8.63-5.57-17.61-10.29-28.14-9.79a1.37,1.37,0,0,0-1.27.93c-18.32,1.54-35.64,7.29-50.2,18.21-10.2,7.65-15.33,34.2-19.7,43.67-1.81,3.93-7.46,11.51-3.05,15.57l.19.16c-11,7.33-.6,22.93,11.73,16.47,4.13-2.17,7.5-5.9,10.83-9.08a121.84,121.84,0,0,0,8.16-9.43s-2.5,5.64-3.8,8.47c-4.82,11-9.49,22.25-15.37,32.77-2.35,4.21-12.83,15.07-9.09,20.21,4.12,5.64,14.81-2.47,17.66-5.19a120.19,120.19,0,0,0,20-25.54c-2.79,6.75-6.78,13-10.33,19.49-2.6,4.75-9.33,14.86-6.16,20.21a1.44,1.44,0,0,0,1.23.71c11.38-.22,19.86-16.47,24.74-24.84a142,142,0,0,0,9-18.34c-1.19,4.27-2.46,8.52-3.92,12.72s-9,15.94-4.07,20c9.69,8,26.63-36,29.08-41.8,9.34-22,17.76-44.38,26.55-66.59C1078.1,593.8,1081,589,1079.45,584.79Z" transform="translate(-363.83 -2.37)"/><path class="cls-9" d="M989.86,642.2c-4.67-3.86-11.08-2.69-15.23,1.29-1.42,1.36.74,3.53,2.17,2.16,2.84-2.72,7.05-3.83,10.52-1.54a6.4,6.4,0,0,1,1,10,1.53,1.53,0,0,0,2.16,2.16A9.45,9.45,0,0,0,989.86,642.2Z" transform="translate(-363.83 -2.37)"/><path class="cls-9" d="M1045.3,608.42c-7.27,3.09-14.86,3.86-22.69,3.51-4.73-.21-10.54-2-15.19-.51-3.34,1.1-5,3.65-6.95,6.41-4,5.76-8,11.55-11.92,17.33-1.12,1.63,1.53,3.16,2.64,1.54l9.54-13.86c1.5-2.18,3-5.3,5.07-7,3.44-2.87,8.83-1.44,12.77-1.1,9.8.82,19.16.22,28.27-3.65C1048.65,610.3,1047.09,607.66,1045.3,608.42Z" transform="translate(-363.83 -2.37)"/><path class="cls-9" d="M1050.76,630.73A112.68,112.68,0,0,1,1035,613c-1.14-1.58-3.8-.06-2.65,1.55a117.19,117.19,0,0,0,16.24,18.3C1050.05,634.21,1052.22,632.05,1050.76,630.73Z" transform="translate(-363.83 -2.37)"/><path class="cls-9" d="M1015.53,660.89a57.64,57.64,0,0,1-5.48,11.35c-1,1.67,1.6,3.21,2.64,1.54a61.82,61.82,0,0,0,5.79-12.08C1019.13,659.84,1016.18,659,1015.53,660.89Z" transform="translate(-363.83 -2.37)"/><path class="cls-9" d="M1030.9,665.16a37.94,37.94,0,0,1-3.76,7.34c-1.08,1.65,1.57,3.19,2.64,1.55a41.35,41.35,0,0,0,4.07-8.08C1034.54,664.13,1031.58,663.33,1030.9,665.16Z" transform="translate(-363.83 -2.37)"/><path class="cls-8" d="M1602.06,556.51a11.76,11.76,0,0,1-4.65,6.12c-8,5.72-35.12,18.75-74.13,33.65s-92.54,38.64-92.54,38.64l-21.41-49.74c2.69,0,27.9-2.27,33.28-10.31s-1.53-27.81,14.14-36.29,29.06,1.87,43.59,4.17,56.59,7.7,67.7,4.61,24-.73,29.37,0a6.09,6.09,0,0,1,5,5.66A7.58,7.58,0,0,1,1602.06,556.51Z" transform="translate(-363.83 -2.37)"/><path class="cls-9" d="M1478.46,572.43c-2.72,8-11.4,10.4-18.77,12.26-1.91.49-1.1,3.44.81,2.95,8.58-2.16,17.8-5.21,20.91-14.39C1482,571.38,1479.09,570.58,1478.46,572.43Z" transform="translate(-363.83 -2.37)"/><path class="cls-9" d="M1602.06,556.51a43,43,0,0,1-15.7,3.4c-1.95.06-1.95-3,0-3.06a38.73,38.73,0,0,0,16-3.83A7.58,7.58,0,0,1,1602.06,556.51Z" transform="translate(-363.83 -2.37)"/><path class="cls-7" d="M1356.43,159.07c-2.82-.39-5.16,1.52-7.87,1.93a7.65,7.65,0,0,1-4.77-.76c-1.48-.77-2.62-2.31-4.51-1.72a2.18,2.18,0,0,0-1.11,3.18c1.82,3.4,6.85,4.9,11.07,4.77a11.74,11.74,0,0,0,7.68-2.88,4,4,0,0,0,1.33-2.23A1.86,1.86,0,0,0,1356.43,159.07Z" transform="translate(-363.83 -2.37)"/><path class="cls-7" d="M1401.11,159.07c2.82-.39,5.16,1.52,7.87,1.93a7.6,7.6,0,0,0,4.76-.76c1.49-.77,2.63-2.31,4.52-1.72a2.17,2.17,0,0,1,1.1,3.18c-1.81,3.4-6.85,4.9-11.06,4.77a11.74,11.74,0,0,1-7.68-2.88,4,4,0,0,1-1.33-2.23A1.86,1.86,0,0,1,1401.11,159.07Z" transform="translate(-363.83 -2.37)"/><path d="M1361.42,143.13A10.4,10.4,0,0,0,1359,142a38.39,38.39,0,0,0-28.17,1.55,7,7,0,0,0-3,2.18c-2.92,4.3,4.34,4.51,6.71,4.51q11,0,22.09-.1a11.33,11.33,0,0,0,4.27-.58,3.87,3.87,0,0,0,2.54-3.23A3.82,3.82,0,0,0,1361.42,143.13Z" transform="translate(-363.83 -2.37)"/><path d="M1390.14,146.32a3.85,3.85,0,0,0,2.53,3.23,11.41,11.41,0,0,0,4.28.58q11,.09,22.08.1c2.38,0,9.63-.21,6.72-4.51a7,7,0,0,0-3-2.18,38.39,38.39,0,0,0-28.17-1.55,10.33,10.33,0,0,0-2.4,1.14A3.82,3.82,0,0,0,1390.14,146.32Z" transform="translate(-363.83 -2.37)"/><path class="cls-9" d="M1387,195a33.27,33.27,0,0,1-9.09,2.59c-2.52.21-4.18.27-6-1.57-2-2-1.6-3.52-1.56-6.33a194.11,194.11,0,0,1,1.54-20.15c.23-1.95-2.83-1.93-3.06,0-.71,6-1.23,11.92-1.46,17.91-.12,3.06-.81,7.22,1,10,4.12,6.28,14.2,2.56,19.48.52C1389.59,197.24,1388.8,194.28,1387,195Z" transform="translate(-363.83 -2.37)"/><path class="cls-9" d="M1398.75,203.75c-5.68,2.92-11.69,5.31-18.29,5.5a34.72,34.72,0,0,1-14.09-2.83c-2-.83-4.19-2.08-6.18-2.93-1.23-.52-3.89-1.28-2.63.91,8.28,14.36,34.32,15.3,42.92.3C1401.12,203.6,1400.05,203.08,1398.75,203.75Z" transform="translate(-363.83 -2.37)"/><path class="cls-9" d="M1315.08,153.22c-5.75-4.89-2.47-10.39-.44-16.16.66-1.86-2.29-2.66-3-.81-1.27,3.6-3.38,7-3.1,11a11.91,11.91,0,0,0,4.32,8.17C1314.4,156.65,1316.58,154.5,1315.08,153.22Z" transform="translate(-363.83 -2.37)"/><path class="cls-9" d="M1446.66,133.21c-.72-1.81-3.68-1-3,.81a14.57,14.57,0,0,1-1.8,14.28c-1.16,1.59,1.5,3.12,2.64,1.54A17.38,17.38,0,0,0,1446.66,133.21Z" transform="translate(-363.83 -2.37)"/><path class="cls-11" d="M1419.66,58.86A79.8,79.8,0,0,0,1385.24,54c-11.74.88-25.56,7.79-36.79,11.47-21.89,7.18-37.26,25-38.49,48.2a1.41,1.41,0,0,0-.28.84c-.11,7,.21,16,7.26,20a11.17,11.17,0,0,0,8.31.91c6.2-1.41,11.23-2.5,17.62-2.35a38.74,38.74,0,0,0,26.38-9c-1.65,4.32-2.68,9.13,1,11,6.26,3.22,14-7.66,17.33-11.34a129.75,129.75,0,0,0,16.5-22.58,84.7,84.7,0,0,1-1.68,10.22c-.92,4-4.37,9.85-3.66,14,1.31,7.54,10.41-.59,14.62.43,1.58.38,3.11,2,4.79,2.52a20.26,20.26,0,0,0,6.19.9c3.74,0,8.77-.26,12.25-1.8,7.39-3.26,9.19-14.31,9.56-21.41C1447.1,86.85,1437.25,65.75,1419.66,58.86Z" transform="translate(-363.83 -2.37)"/><path class="cls-12" d="M1229.38,407.45c-7.62-14.84-4.55-31.42-4.59-47.4,0-16.83-7.53-32-7.79-48.82-.13-8.39.47-16.8-.54-25.15-.93-7.62-3.2-15-5.58-22.22-5.42-16.51-11-33-16.5-49.45-.62-1.86-3.57-1.06-3,.81,5.5,16.48,11.08,32.94,16.5,49.45,2.93,8.94,5.44,17.85,6,27.3s-.5,18.75.55,28.09a67,67,0,0,0,1.65,8.6,428.17,428.17,0,0,1-31.81-81.1,1.53,1.53,0,0,0-3,.81,431.65,431.65,0,0,0,37.38,91.76,1.46,1.46,0,0,0,.61.58c.16.58.32,1.15.47,1.73,2,8.35,2.1,16.8,1.79,25.33-.52,14.16-1.5,28.25,5.17,41.23C1227.64,410.75,1230.28,409.2,1229.38,407.45Z" transform="translate(-363.83 -2.37)"/><path class="cls-12" d="M1487,480.94c-34.94,23.84-81.62,29-122.94,27.44-42.3-1.57-84.1-13-119.71-36.29-1.65-1.08-3.18,1.57-1.54,2.64,36,23.54,78.43,35.12,121.25,36.71,41.8,1.55,89.15-3.74,124.48-27.86C1490.19,482.47,1488.66,479.82,1487,480.94Z" transform="translate(-363.83 -2.37)"/><path class="cls-12" d="M1518.73,431.62A161.15,161.15,0,0,1,1456.8,470c-1.86.63-1.06,3.58.81,2.95a164.59,164.59,0,0,0,63.28-39.15A1.53,1.53,0,0,0,1518.73,431.62Z" transform="translate(-363.83 -2.37)"/><path class="cls-12" d="M1562.63,217c-7.35,11.52-10.7,24.57-14.74,37.47-2.32,7.42-4.94,14.8-8.9,21.53-3.22,5.47-7.47,10.4-9.75,16.39-2.21,5.8-1.82,11.67-1,17.72,1.19,8.73,2,17.2,1.45,26-1.09,15.93-8.16,31.2-6.37,47.3.21,1.93,3.27,1.95,3.05,0-1.63-14.73,4.45-28.63,6-43.11a103.91,103.91,0,0,0,0-22.37c-.93-8.66-3.42-17.22.21-25.6,2.64-6.08,7.11-11.16,10.25-17a102.3,102.3,0,0,0,6.83-16.49c4.55-13.77,7.68-28,15.58-40.33C1566.33,216.92,1563.69,215.39,1562.63,217Z" transform="translate(-363.83 -2.37)"/><path class="cls-12" d="M1686.89,523.24a88.14,88.14,0,0,1-62,13.3c-1.93-.3-2.76,2.65-.82,3a91.39,91.39,0,0,0,64.37-13.61C1690.08,524.81,1688.54,522.16,1686.89,523.24Z" transform="translate(-363.83 -2.37)"/><path class="cls-12" d="M1122.5,547.86q-29.07-15.54-59.29-28.71c-1.79-.77-3.35,1.86-1.55,2.65q30.22,13.16,59.3,28.7C1122.69,551.43,1124.24,548.79,1122.5,547.86Z" transform="translate(-363.83 -2.37)"/><path class="cls-13" d="M1425.46,638.73A490.37,490.37,0,0,1,1350.82,665a1.53,1.53,0,0,0,.81,3A496.62,496.62,0,0,0,1427,641.38C1428.8,640.58,1427.25,637.94,1425.46,638.73Z" transform="translate(-363.83 -2.37)"/><path class="cls-13" d="M1406.14,576.05c-3.55-8.19-8.25-21.64-17.68-25a11.56,11.56,0,0,0-8.07.2c-7.45,2.52-11.33,7-19.94,5.32-9.84-1.9-17-5.67-27-2.56-4.73,1.48-7.24,2.23-12.35,1.54a63.62,63.62,0,0,0-8.72-.89,44.6,44.6,0,0,0-16.36,3.3c-1.82.71-1,3.67.81,2.95a42.38,42.38,0,0,1,18.28-3.1c4.78.32,9.54,2,14.35,1,4.57-1,8.16-3.6,13.1-3.37,5.11.24,10,2.39,14.9,3.6,6.7,1.66,12.17,1.4,18.29-1.86,4.07-2.17,7.57-5.39,13.13-2.51,3.13,1.62,5.6,5.53,7.45,8.41,2.92,4.55,5,9.63,7.17,14.57C1404.28,579.4,1406.92,577.84,1406.14,576.05Z" transform="translate(-363.83 -2.37)"/><path class="cls-13" d="M1178.85,578a198.88,198.88,0,0,0-28.29,5.5,1.55,1.55,0,0,0-1.22-.84c-14.33-1.54-28.54-2.78-42.86-.48-1.94.31-1.12,3.26.81,2.95,12.37-2,24.7-1.18,37,.07a195.24,195.24,0,0,0-51.76,24.48c-1.63,1.09-.1,3.74,1.54,2.64a192.63,192.63,0,0,1,84.73-31.26C1180.78,580.85,1180.81,577.79,1178.85,578Z" transform="translate(-363.83 -2.37)"/><path class="cls-13" d="M1684.59,640.87a136.91,136.91,0,0,0-75.79-55.74c18.24,1.49,35.91,6,51.39,17.11,1.6,1.15,3.13-1.5,1.54-2.64-28.58-20.52-64.56-19.09-98-17-2,.12-2,3.18,0,3.06,10.46-.65,21.15-1.24,31.79-1.11a1.28,1.28,0,0,0,1,.72A133.73,133.73,0,0,1,1682,642.42C1683,644.05,1685.68,642.52,1684.59,640.87Z" transform="translate(-363.83 -2.37)"/><path class="cls-11" d="M1407.44,49.49c-.41-1.92-3.36-1.11-3,.82a94.45,94.45,0,0,1-.45,42c-.45,1.91,2.5,2.73,3,.81A98.47,98.47,0,0,0,1407.44,49.49Z" transform="translate(-363.83 -2.37)"/><path d="M1393.11,79.69a101.87,101.87,0,0,1-25.3,39.91c-1.41,1.38.75,3.54,2.16,2.16a105.21,105.21,0,0,0,26.09-41.26C1396.71,78.64,1393.75,77.84,1393.11,79.69Z" transform="translate(-363.83 -2.37)"/><path class="cls-11" d="M1427.45,28.6c-1.51-1.22-3.69.93-2.16,2.17,19.44,15.74,19.83,41.62,19.5,64.59,0,2,3,2,3.06,0C1448.19,71.61,1447.53,44.86,1427.45,28.6Z" transform="translate(-363.83 -2.37)"/><path d="M1386.92,67.79c-4,15.76-20.62,23-29.45,35.63-2.94,4.21-5.12,8-10.19,9.51-2.7.83-5.47.61-8.11,1.59-6,2.25-9.22,8.87-15.91,9.82-1.94.27-1.11,3.22.81,3,7.27-1,10.89-8.16,17.73-10,7.55-2,11-2.07,16-8.84,5.83-8,12.21-13.94,19.46-20.64,5.84-5.41,10.67-11.38,12.66-19.21C1390.35,66.7,1387.4,65.88,1386.92,67.79Z" transform="translate(-363.83 -2.37)"/><path class="cls-11" d="M1401.08,21.23c-13.09-8.36-35.29-10.68-49-2.72a1.53,1.53,0,0,0,1.55,2.64c12.66-7.37,33.79-5,45.88,2.72C1401.2,24.94,1402.74,22.29,1401.08,21.23Z" transform="translate(-363.83 -2.37)"/><path class="cls-1" d="M1100.79,834.85,973,980l-53.07-23.31L693.61,857.21,745,796.52l23.8-28.09,40.38-47.66a3.63,3.63,0,0,1,4-1l286.1,109.37A3.61,3.61,0,0,1,1100.79,834.85Z" transform="translate(-363.83 -2.37)"/><path class="cls-2" d="M967.51,971.09a1.51,1.51,0,0,1-1-.37,1.53,1.53,0,0,1-.16-2.16l115.27-132.95L814.85,731.13l-69.66,81.21a1.53,1.53,0,0,1-2.32-2l70.36-82a1.51,1.51,0,0,1,1.72-.43l269.81,105.66a1.49,1.49,0,0,1,.92,1.06,1.52,1.52,0,0,1-.33,1.37L968.67,970.56A1.54,1.54,0,0,1,967.51,971.09Z" transform="translate(-363.83 -2.37)"/><path class="cls-1" d="M634.42,734.44,693.6,857.2,973,980,897.13,836.32a3.56,3.56,0,0,0-1.8-1.64L639,729.59A3.57,3.57,0,0,0,634.42,734.44Z" transform="translate(-363.83 -2.37)"/><path class="cls-2" d="M970.45,976.65a1.55,1.55,0,0,1-1.36-.82L897.72,840.7a10,10,0,0,0-5-4.56l-132.07-55a1.53,1.53,0,1,1,1.17-2.83l132.07,55a13,13,0,0,1,6.53,6L971.8,974.4a1.54,1.54,0,0,1-.64,2.07A1.53,1.53,0,0,1,970.45,976.65Z" transform="translate(-363.83 -2.37)"/><polygon class="cls-2" points="588.23 823.57 504.69 788.01 521.63 764.6 605.17 800.16 588.23 823.57"/><path class="cls-3" d="M1720,99.07c-.07-.29-1.63-4.74-1.78-5.12S1707,54,1686.63,50.56c-7.91-1.34-15,2.42-22.34,4.39-9.78,2.62-17.38-.6-26.86-1.67-7-.78-12.43-1.15-18.85-4.32-5.15-2.55-9.89-4.86-15.59-6-6.27-1.23-15.64-2.62-19.76,3.63-3.52,5.34-3.58,14.43.17,19.65,5.46,7.59,15.86,6.08,24,6a108.92,108.92,0,0,1,19.75,1.61c3.92.7,6.67,1.57,9.65,4.27,2,1.79,3.18,4.31,5.26,6,9.78,7.86,21.92-2.82,32-3.84,8.91-.89,18.48,0,26.83,3.33,4.12,1.65,13.51,11.41,14.71,12.16C1717,96.69,1720.71,101.76,1720,99.07Zm-20.26-28.29c-9.74-4.85-21.23-2.23-31.38-5.72A110.4,110.4,0,0,1,1656.73,60l.1,0c6-1.38,12.07-2.74,18.3-3,13.88-.53,23.58,7.3,30.53,17.83A28.51,28.51,0,0,0,1699.76,70.78Z" transform="translate(-363.83 -2.37)"/><path class="cls-13" d="M1656.82,252.77s-.52,18.71,9,31.54,36.18,19.4,61.48,20.1,47.24-10,53-18c9.7-13.51,9.7-33.61,9.7-33.61Z" transform="translate(-363.83 -2.37)"/><ellipse class="cls-1" cx="1359.58" cy="250.4" rx="66.59" ry="37.43"/><ellipse class="cls-2" cx="1359.58" cy="250.4" rx="53.69" ry="30.18"/><path class="cls-13" d="M1770.32,250.5a3.05,3.05,0,0,1-2.89-2.06L1718.5,107.08a3.06,3.06,0,1,1,5.78-2l48.93,141.36a3.05,3.05,0,0,1-1.89,3.89A2.92,2.92,0,0,1,1770.32,250.5Z" transform="translate(-363.83 -2.37)"/><ellipse class="cls-1" cx="634.67" cy="158.74" rx="82.66" ry="98.85" transform="translate(18.1 759.8) rotate(-81.32)"/><ellipse class="cls-1" cx="631.5" cy="227.66" rx="87.34" ry="98.87" transform="translate(-66.88 807.27) rotate(-79.93)"/><path class="cls-1" d="M536.89,143.4,533.27,217s61.2,38.13,66.82,39.17,55.22,15,66.1,13.21,63.55-31.06,63.55-31.06l3.62-73.6s-128.75-38.85-131.28-38.8S536.89,143.4,536.89,143.4Z" transform="translate(-363.83 -2.37)"/><ellipse class="cls-14" cx="634.87" cy="154.4" rx="66.39" ry="84.06" transform="translate(30.56 759.54) rotate(-82.07)"/><path class="cls-2" d="M638.56,239.33c-54.23,0-80.46-28.94-91.32-46.31-.28-.45-.47-.77-.59-.93a1.53,1.53,0,0,1,2-2.34c.36.25.53.52,1.23,1.65,10.63,17,36.46,45.38,90.31,44.86,72.65-.76,87.32-58.06,87.46-58.64a1.53,1.53,0,0,1,1.85-1.12,1.51,1.51,0,0,1,1.12,1.84c-.14.6-15.39,60.19-90.4,61Z" transform="translate(-363.83 -2.37)"/><path class="cls-15" d="M654.18,399.36q-.37,3.34-1,6.64a90.7,90.7,0,0,1-13,31.66,104.74,104.74,0,0,1-24.51,26c-1.93-12.73-4.25-25.37-8.87-37.45C602,413.59,589.63,390.46,574.48,387c-4.1-.88-6.76.19-8.47,4-3.33,7.65,3.64,16.55,8.23,21.72,8.63,9.64,17.13,17.74,22.39,29.95,4,9.21,5.94,19,7.19,28.91a131.47,131.47,0,0,1-23.19,10.8,215.33,215.33,0,0,1-26.34,7.1A106.1,106.1,0,0,0,552,465.93a57.31,57.31,0,0,0-5.35-14.53c-3.09-5.63-7.53-10.31-13.68-11.35-9.08-1.5-10,6.36-9.12,13.55.62,4.59,1.47,9,2,13.4a67.35,67.35,0,0,1,.77,13.49,128.73,128.73,0,0,1-1.81,15.27c-2.26.52-4.55,1.07-6.85,1.65-14.07,3.67-32.89,7.8-44.36.24a18.09,18.09,0,0,1-2.38-1.86c-3.34-3-5.78-7.31-7-13.34-.67-3.15-1.31-6.33-1.93-9.48,6.76-6.64,13.83-13,21.48-19.37,3.4-2.81,10.16-8.44,14.68-14.44,3.06-4.07,5.08-8.29,4.26-11.9a6.29,6.29,0,0,0-4.68-4.62c-5.27-1.65-13.34.19-17,1-9,2-18.72,5.51-26.46,11.23a273.72,273.72,0,0,1-4.5-34.85c14.65-8.72,32-14.25,47.2-17.19,10.16-2,42.71-4.89,39.25-22.67-2.23-11.5-23.95-7.86-31.45-5.5-14.41,4.52-26.25,14.22-39.83,20.46-5,2.36-10.12,4.25-15.05,6.52,1.32-18.69,6.67-37.14,18.08-52.1,1.32-1.74,2.75-3.43,4.25-5,3.25-.64,6.46-1.22,9.61-1.68,11.41-1.81,23.52-.73,34.93-2.51a46.72,46.72,0,0,0,15.88-5.17,2.36,2.36,0,0,0,.86-2.81,13.2,13.2,0,0,0-.74-1.29,0,0,0,0,0,0,0c-5.35-8.17-17.8-7.49-26.55-7-1,0-2.08.19-3.15.25,19-7.1,40.78-7.8,60-.55,5.42,2,10.59,3.94,15.76,5.75,1,.34,1.92.7,2.87,1,5.45,1.83,10.92,3.52,16.73,5.05,25.09,6.57,45.28,27.13,52.62,51a74.18,74.18,0,0,1,2.33,10q-2.71-3.5-5.69-6.79c-8.51-9.36-23.53-30-38.4-29.56a14.18,14.18,0,0,0-2.26.22c-14.59,2.6,1.59,16,6.52,19.79,6.91,5.23,15.42,11.2,23.06,18C644.05,384.49,650.41,391.5,654.18,399.36Z" transform="translate(-363.83 -2.37)"/><path class="cls-16" d="M582.07,310.4c9.61-23.46,19.4-46.81,28.63-70.42,10.77-27.35,20.38-55.19,26.53-84,.43-1.93-2.6-2.42-3-.49-10.86,50.94-32.43,98.84-52.13,146.84-1,2.36-1.93,4.71-2.87,7.07q-4.19,10.23-8.36,20.53c-6.15-1.65-10.89-5.66-16.39-8.78A135.3,135.3,0,0,0,533.18,311a13.2,13.2,0,0,1,.74,1.29,2.36,2.36,0,0,1-.86,2.81,46.72,46.72,0,0,1-15.88,5.17c6.7,3.7,16.31,5.17,21.85,8.47,9.63,5.76,10.34,18.79,20.22,23.81a17.62,17.62,0,0,0,1.77.7c-3,7-6.08,13.89-9.33,20.74A445.31,445.31,0,0,1,528,417.38c-4.62-1.07-9.45-2-14-1.44-5.26.61-9.33,3.83-14,5.94-.64.27-1.25.55-1.89.76a6.29,6.29,0,0,1,4.68,4.62c.82,3.61-1.2,7.83-4.26,11.9a20.85,20.85,0,0,1,12.24,4.31c-12.51,17.9-25.88,35.19-39.46,52.32a18.09,18.09,0,0,0,2.38,1.86c13.56-17,26.86-34.26,39.34-52.09.1.12.22.21.34.33,4.93,5.63,8.08,14.17,12.57,21.11-.58-4.44-1.43-8.81-2-13.4-.91-7.19,0-15.05,9.12-13.55,6.15,1,10.59,5.72,13.68,11.35.09-3.73.18-7.5.27-11.23.12-4.53,1.9-11.93-.37-16.12s-9.48-4.65-13.33-5.48c-.71-.15-1.41-.3-2.15-.49,6.49-10.46,12.61-21.17,18.21-32.21,5.23-10.37,10-21,14.65-31.63,3.15.79,6.46,1.25,9.48,2a113,113,0,0,1,22.15,8c10.4,5,18.54,12.24,30.35,13.22,3.88.33,8,1,11,.7-7.64-6.82-16.15-12.79-23.06-18-4.93-3.76-21.11-17.19-6.52-19.79a14.18,14.18,0,0,1,2.26-.22c-4.58-4.55-10.92-7.12-17.59-8.22-6-1-12.23-.49-18.23-1.38q3.58-8.76,7.13-17.5C581.34,312.17,581.7,311.26,582.07,310.4Z" transform="translate(-363.83 -2.37)"/><path class="cls-15" d="M599.88,198.37c-.77,14.78-8.39,27.35-19.16,36.56,1.2-15.27,2.33-30.81-1.86-45.46-.89-3.09-2.94-10.07-6.33-13.28-1.84-1.74-4-2.41-6.67-.82-3.06,1.83-4.1,6.42-4.13,11.8v0c0,8.78,2.54,19.7,3,24.19a271.14,271.14,0,0,1,1.41,33.07,65.32,65.32,0,0,1-6.48,2.85c-13.1,4.89-26.8,6.39-40.6,6.39,4.28-18.2.06-37.75,4.56-56.78,1.59-6.57,8.5-25.45-2.6-27.56-8.17-1.53-12,4.68-13.62,12.21-1.56,7-1.25,15.26-1,19.39.24,3.7.55,7.41.85,11.11,1.17,13.79,2.48,27.68,2.08,41.36-12.63-.58-25.24-2.08-37.53-3.25-7-.64-14.11-1.25-21.14-1.83,1.86-4.74,3.55-9.58,5.08-14.32,1.71-5.54,7.25-19.76,1-24.5-3.46-2.66-6.67-1.41-9.3,1.22-2.94,2.88-5.14,7.53-6.12,10.31a66.26,66.26,0,0,0-2.42,9.48c-1,5.51-1.38,11-1.84,16.55-4.13-.36-8.26-.79-12.35-1.28-8.14-.92-11.54-4.07-12.58-9.67a25.31,25.31,0,0,1-.4-4.16c0-1.31,0-2.75.13-4.31a110.23,110.23,0,0,1,4.77-25.3c.92-3.06,2-6.09,3.15-9.09l2.54-.55c4.34-.85,8.84-1,13.18-2a30,30,0,0,0,4.32-1.16c4.07-1.41,8.1-4,6.21-8.56-2.08-5-9.88-5.94-18-5.24.21-.39.4-.76.61-1.13a113.61,113.61,0,0,1,9.67-18.35q3.57-5.66,7.68-10.95a100.4,100.4,0,0,1,25.23,1.25c4.17.7,8.33,1.5,12.52,2.17,7.8,1.23,15.63,1.93,23.46.31a2.48,2.48,0,0,0,1.87-2.88c-2-10.58-14.35-13.31-23.56-14.56a92.21,92.21,0,0,0-22.15-.12,48.29,48.29,0,0,0-6.76,1.25c12.51-13.73,26.07-26,42.1-34,9.39,4.07,18.41,9.3,28.57,11a38.62,38.62,0,0,0,7.28.58A2.42,2.42,0,0,0,537,108a14.39,14.39,0,0,0-1-5.63c-2-5.2-6.85-9.2-12.7-11.93.92-.18,1.87-.36,2.82-.52,9.73-1.47,20.34-1.34,29.33,3.15,10.22,5.08,15.33,15,17.9,25.73,1.71,7,3.64,13.74,5.87,20.41.34,1,.71,2,1.08,3.09a162.45,162.45,0,0,0,6.6,16c.55,1.19,1.17,2.41,1.75,3.64C594.25,173.44,600.52,185.28,599.88,198.37Z" transform="translate(-363.83 -2.37)"/><path class="cls-16" d="M631.14,147.41a165.83,165.83,0,0,0-52-8.2A163.63,163.63,0,0,0,557,140.77c-3.27-4.29-6.36-8.51-6.27-14.5.1-4.81,1.5-7.74-1.31-12.21-2.57-4.07-6.79-7.31-10.71-10-.89-.62-1.8-1.2-2.72-1.72a14.39,14.39,0,0,1,1,5.63,2.42,2.42,0,0,1-2.48,2.3,38.62,38.62,0,0,1-7.28-.58,10.55,10.55,0,0,1,2.6,4c1.93,5.36,1.38,10.56,4.65,15.64,1.35,2.08,3.18,3.51,4.71,5.41,2.82,3.46,2.85,5.57,3.27,8.66a162.21,162.21,0,0,0-40.16,14.9c-.68.36-1.35.76-2,1.16-2.42-2.79-5.91-4.59-9.24-6.21a64.74,64.74,0,0,1-7.34-4.47c-4.19-.67-8.35-1.47-12.52-2.17a100.4,100.4,0,0,0-25.23-1.25q-4.1,5.31-7.68,10.95c4.92.52,10.43,1.37,13.31,3.33,3.91,2.66,3.91,7.28,7.15,10.25,2.57,2.33,6,2.91,9.27,3.49a24.2,24.2,0,0,1,7.31,2.14c-9.48,7-18.56,14.5-27.41,22.21-1.07,1-2.17,1.9-3.24,2.84A54.93,54.93,0,0,0,440.12,190a3.73,3.73,0,0,0-.3-.43,30,30,0,0,1-4.32,1.16c-4.34.95-8.84,1.14-13.18,2l-2.54.55c-1.16,3-2.23,6-3.15,9.09,3.95,1.56,8,2.94,11.72,5.29a21.28,21.28,0,0,1,4.19,3.7c-7.22,6.58-14.29,13.37-20.81,20.62a25.31,25.31,0,0,0,.4,4.16,286.47,286.47,0,0,1,22.27-22.36,23.47,23.47,0,0,1,3.46,7.25c.7,3.12-.21,6.58,1,9.51a66.26,66.26,0,0,1,2.42-9.48c1-2.78,3.18-7.43,6.12-10.31-.49-2.38-1.11-4.77-1.78-7l2.23-2c9.73-8.51,19.64-16.8,30.11-24.42.39.37.82.74,1.25,1.17,1.84,1.83,3.4,3.88,5.23,5.72,3.92,3.88,8.45,6.48,12.67,9.94,5.72,4.71,7.92,11.17,10.09,17.9-.3-3.7-.61-7.41-.85-11.11-.28-4.13-.59-12.36,1-19.39-2.53-3.4-4.31-6.18-4.49-11.38-.09-2.39.64-4.23-.15-6.64A12.87,12.87,0,0,0,502,162a159.69,159.69,0,0,1,41.09-15.51c1.25,4.83,4,7.37,7.22,11a41.75,41.75,0,0,1,9.91,19.09c.43,2,.36,7.1,1.53,10.58,0-5.38,1.07-10,4.13-11.8,2.63-1.59,4.83-.92,6.67.82-.92-5.41-3.22-10.92-4.44-14.16a115.05,115.05,0,0,0-6.49-14.62,42.27,42.27,0,0,0-2.53-3.83,164,164,0,0,1,71.09,6.73A1.53,1.53,0,0,0,631.14,147.41Z" transform="translate(-363.83 -2.37)"/><path class="cls-15" d="M1004.58,120.3a18.54,18.54,0,0,1-.64,2.75,3.16,3.16,0,0,1-.68,1c-2.38,2.63-10.43,8.51-17.28,9.3-3.52-3.55-7.07-7.13-10.59-10.64-4.8-4.84-9.57-9.49-13.18-15.27-1-1.5-1.75-2.91-2.66-4.13a12,12,0,0,0-4.29-3.88,2.47,2.47,0,0,0-3.73,1.92c-1,12.88,6.24,24.29,15.66,33.47-5.69.31-11.8.52-18.14.67-8.2.25-16.76.37-25,.43-4.25-14.25-4.32-30.19-10.34-44.94-.74-1.77-3.18-1.5-4.16-.18-8.66,11.53-5.57,30.35.3,45.18-13.52,0-25.33,0-32.55-.06l-3.33,0-10.4.09a71.57,71.57,0,0,1-3.25-6.57c-4.8-11.23-3.57-21.17-4.43-32.74-.28-3.45-1.29-10.49-4.47-12.88-1.4-1.1-3.24-1.25-5.66.25-6.79,4.16-4.77,21.2-4.19,27.29.77,8.47,2.45,17.37,6.24,25.11-4,.19-8,.37-12,.65-12.24.76-24.87,3-37.08,1.13a60.61,60.61,0,0,1-2.9-16.58,90.31,90.31,0,0,1,.49-13.1,46,46,0,0,1,2.38-10.31c1.59-4.43,3.83-7.89,4.13-12.69A2.42,2.42,0,0,0,800.56,83a14.73,14.73,0,0,0-1.59-.12c-17.22-.4-19.15,29.24-15.57,49.86-10.19-6.39-16.06-17.41-14-31,1.56-10.58,7.34-19.79,13.76-28.11,3.76-4.87,8.14-9.42,11.54-14.56.27-.46.55-.89.82-1.35a29.61,29.61,0,0,0,1.84-3.64c2.14-4.93,2.9-10,3.3-15.66.61-9,1.47-17.84,7.83-24.81,5-5.48,12.06-8.81,19.28-10.37a42.26,42.26,0,0,0-5.66,13.61c-.86,4.1-3.28,14.62,3.27,15.51a4.67,4.67,0,0,0,1.71-.06c4.13-.77,6.89-6.55,8.63-10.83.46-1.13.86-2.17,1.19-3A105.41,105.41,0,0,1,845,2.37c6.48.58,12.91,1.83,19.27,3C870.09,6.47,876,7.63,881.9,9A62.89,62.89,0,0,0,861,30.51a50.22,50.22,0,0,0-5.84,15.27c-.31,1.65.88,3.61,2.81,3.09a20.67,20.67,0,0,0,8.9-5.42c4.47-4.34,8-10.06,12.42-14a142.22,142.22,0,0,1,21.11-15.87,226.64,226.64,0,0,1,42.1,16A57.29,57.29,0,0,0,925,34c-3.09,1.35-9.27,4.07-12.27,7.8A6.47,6.47,0,0,0,911.12,47a5.11,5.11,0,0,0,2.17,3.73c3.09,1.93,8.51-.88,11.56-2.66,8.57-5,18.82-9.66,29.28-12,2.3,1.41,4.53,2.82,6.76,4.35a100.07,100.07,0,0,1,22.85,21A65.48,65.48,0,0,1,988.33,68c-4.59-.61-8.93-.74-12.05.15h0c-2.82.8-4.62,2.45-4.65,5.26-.06,4,4.16,5.48,7.89,6,1.32.21,2.54.27,3.52.34,3.76.15,7.53-.31,11.26-.31C995.64,82.79,1006.41,107.05,1004.58,120.3Z" transform="translate(-363.83 -2.37)"/><path class="cls-16" d="M971,87.54c2.84-2.79,5.87-5.3,8.47-8.14-3.73-.55-8-2-7.89-6,0-2.81,1.83-4.46,4.65-5.26-8.23-.46-16.83-4-25-4.1-9.06-.15-20.35-1.71-29.16.46a1.48,1.48,0,0,0-1,1,5.44,5.44,0,0,0-.12.61c-6.55-1.83-13.16-3.42-19.76-4.86a19.63,19.63,0,0,1,5.47-6.37,42.25,42.25,0,0,1,6.64-4.13A5.11,5.11,0,0,1,911.12,47a6.47,6.47,0,0,1,1.65-5.26c-2.23.86-4.44,1.77-6.36,2.36-5.88,1.8-12,3.27-17.68,5.56a20.13,20.13,0,0,0-8.54,6.37c-.31.39-.61.7-1,1.07C872.57,56,865.93,54.89,859.3,54a21.83,21.83,0,0,0,6.51-8c.31-.67.67-1.53,1.07-2.51a20.67,20.67,0,0,1-8.9,5.42c-1.93.52-3.12-1.44-2.81-3.09A50.22,50.22,0,0,1,861,30.51c-.31,0-.64-.09-1-.15a80.79,80.79,0,0,1-21.14-7.1c-1.13-.58-2.2-1.16-3.24-1.77-1.74,4.28-4.5,10.06-8.63,10.83,1.23,6.39,2.05,12.88,1.13,19a142.82,142.82,0,0,0-30.86,2.75,1.43,1.43,0,0,1-.34.06c-27.2,5.69-52.68,17.62-77.4,29.83-28.26,14-53.75,31.05-75.53,54-1.32,1.41.7,3.67,2.05,2.27a240.74,240.74,0,0,1,61.83-46.87c24-12.76,49.1-24.9,75.16-32.58,4.16-1.19,8.29-2.2,12.39-3.06a158.61,158.61,0,0,1,32.06-3.15,25.87,25.87,0,0,1-5.9,11c-5,5.6-11.69,8.41-17.72,12.61A22.55,22.55,0,0,0,799,82.92a14.73,14.73,0,0,1,1.59.12,2.42,2.42,0,0,1,2.26,2.51c-.3,4.8-2.54,8.26-4.13,12.69a46,46,0,0,0-2.38,10.31c7.64,1.35,16.24-4.52,20.55-10.31,3-4.07,4.44-8.81,6.31-13.46a41.7,41.7,0,0,1,15.29-18.9c5.3-3.7,11.66-6,17.16-9.36,2.76.36,5.51.73,8.3,1.19,4.25.67,8.53,1.38,12.81,2.08-4.59,4.47-9.17,6.79-15.69,9.82-5.26,2.48-7.89,8.14-9.67,14.19,3.18,2.39,4.19,9.43,4.47,12.88.86,11.57-.37,21.51,4.43,32.74a71.57,71.57,0,0,0,3.25,6.57l10.4-.09a27.45,27.45,0,0,0,1.19-6.54c1-12.18-1-25.55,5.48-36.56,4.89-8.38,15-10.83,17.25-20.93A60.12,60.12,0,0,1,900,64c7.1,1.47,14.17,3.12,21.14,5,1.35,5.2,7.47,10.86,9.61,14.93,5.23,10,3.27,21.5,7,31.94a69.57,69.57,0,0,0,11.32,19.48c6.34-.15,12.45-.36,18.14-.67-9.42-9.18-16.64-20.59-15.66-33.47a2.47,2.47,0,0,1,3.73-1.92,12,12,0,0,1,4.29,3.88c1.37-5.11,6.24-10.09,9.36-13.55,13.7,8.9,25.73,20.28,34.35,34.29a3.16,3.16,0,0,0,.68-1,18.54,18.54,0,0,0,.64-2.75C995.74,106.63,984.17,96,971,87.54Z" transform="translate(-363.83 -2.37)"/><path class="cls-15" d="M928.46,282.56a6.42,6.42,0,0,1-2.17,2.11,7.37,7.37,0,0,1-3.91,1c-5.6,0-11.63-1.44-17.29-1.83s-11.56-.68-17.34-.8c-.74,0-1.44,0-2.14,0v0c.09-5,1.19-10.07.85-15.14,0-.16,0-.28,0-.43-.43-4.5-3-11.17-8.81-9.18l-.21.09c-5.23,2-6.46,10.86-7.25,15.42-.55,2.88-1,6-1.38,9.12-4.34,0-8.69,0-13,0-9.09-.06-18.27-.25-27.35-.8a81.31,81.31,0,0,1,6.15-23.95c.64-1.59,1.89-4.29,3.06-7.34,1.65-4.41,3.06-9.58,2-13.22a5.77,5.77,0,0,0-4-4.22c-8.35-2.82-16.55,11.84-19,17.65a82.77,82.77,0,0,0-6,29.37c-5.27-.71-10.47-1.59-15.61-2.79-1-.21-1.89-.42-2.84-.67-7.25-1.83-14.35-4.56-20-8.81,2-7.83,6.7-15.2,11.93-21.69s10.71-13.06,10.13-21.78a1.25,1.25,0,0,0-.09-.46,2.35,2.35,0,0,0-2.82-2c-9.85,1.78-15.36,11.54-19.94,19.46a62.92,62.92,0,0,0-7.22,17.31,28.52,28.52,0,0,1-3.19-8.93c-4.65-25.88,16.71-48.24,40.85-52.8.55-.12,1.13-.21,1.68-.31-.12-.79-.22-1.62-.28-2.41-1.07-11.87,1.75-23,14.38-29.53a49.8,49.8,0,0,1,20.41-5.35C832,163.31,827,168.12,825.58,176c-.24,1.28,1.1,2.45,2.27,2.54.33,0,.67,0,1,0,6.48-.15,12-5.72,16.52-9.76,2.9-2.57,5.93-5.32,9.2-7.89a70.65,70.65,0,0,1,11.6,3.52c1,.36,2,.79,2.9,1.22a71.92,71.92,0,0,1,11.69,6.58,82.7,82.7,0,0,0-19.43,14.44c-3.64,3.61-12.94,12.26-9.85,18.57a5.49,5.49,0,0,0,5.14,3.33c3.95,0,8.69-3,11.26-5.05,8.78-6.85,17.41-13.7,28.39-16.85.15-.07.28-.1.43-.16a104.13,104.13,0,0,1,10.22,14.11,149.56,149.56,0,0,1,13.82,30c-9.42-.25-21,2.11-23.25,8.93a.38.38,0,0,0,0,.18c-1.74,5.51,3.12,7.77,7.74,8.17a5.2,5.2,0,0,0,.68.06,57.7,57.7,0,0,0,12.23-1,46,46,0,0,1,7.47-.52c.15.61.33,1.23.49,1.84C927.73,254.69,933.57,274.79,928.46,282.56Z" transform="translate(-363.83 -2.37)"/><path class="cls-16" d="M899.68,252.52a3.87,3.87,0,0,1,.33-.4,47,47,0,0,1,5.17-4.13c-4.62-.4-9.48-2.66-7.74-8.17-2,.8-3.85,1.69-5.72,2.63-.85.43-1.77.89-2.69,1.38q-8.62-6.65-17.74-12.66a10,10,0,0,0,2.23-2c2.75-3.46,1.84-8,3.83-11.78,2.44-4.74,8.44-7.68,12.84-10.25,5.2-3,10.65-5.81,16.71-6.48a104.13,104.13,0,0,0-10.22-14.11c-.15.06-.28.09-.43.16-11,3.15-19.61,10-28.39,16.85-2.57,2-7.31,5.08-11.26,5.05a57.42,57.42,0,0,0-3.39,11.07c0,.1,0,.19,0,.28q-9.23-5.33-18.66-10.25a27.12,27.12,0,0,1,4.34-6.18c3.86-3.79,5.48-5.51,6.42-11.23.86-5,1.6-8.87,5.48-12.51,2.72-2.63,6.3-4.34,9.18-6.85a31.25,31.25,0,0,0,6.21-8.47,70.65,70.65,0,0,0-11.6-3.52c-3.27,2.57-6.3,5.32-9.2,7.89-4.56,4-10,9.61-16.52,9.76,0,.06,0,.09,0,.15-1.69,8.26,1.68,19.09-5.42,25.33-3.49-1.74-7-3.45-10.49-5.14-3.18-1.5-6.4-3-9.58-4.46-49.62-22.73-102.54-39.83-157.64-38.92-2,.06-2.11,3.12-.15,3.06,54.67-.88,107.16,16.09,156.39,38.58,2.47,1.16,5,2.29,7.43,3.46q5.6,2.61,11.2,5.38c-4.68,2.54-10.56,3.33-15,6.36-4.65,3.15-7.71,7.65-11.29,11.75a1.25,1.25,0,0,1,.09.46c.58,8.72-5,15.36-10.13,21.78s-9.94,13.86-11.93,21.69c5.63,4.25,12.73,7,20,8.81,1,.25,1.89.46,2.84.67.13-2.08.16-4,.19-5.44.52-15.57-3.58-35.79,12.88-44.91,6.39-3.55,13.92-4.59,19.91-9a18.61,18.61,0,0,0,5-5.81q9.86,5.1,19.45,10.71a23.94,23.94,0,0,1-2.14,6.18c-2,3.67-5.32,5.11-8.75,7.07-.67.39-1.34.79-2,1.22,1,3.64-.37,8.81-2,13.22,5.53-3.12,11.65-5.36,16.85-9.27,4-3,7.19-5.63,11.81-7.71l2.05-.92q9.13,6,17.77,12.57c-2.81,1.65-5.44,3.7-6.85,6.4a28.69,28.69,0,0,0-1.83,6.51l.21-.09c5.84-2,8.38,4.68,8.81,9.18,0,.15,0,.27,0,.43.95-1,1.81-2,2.39-2.57,3.15-3.31,5.9-7,8.81-10.5a207,207,0,0,1,28.63,29.86,6.42,6.42,0,0,0,2.17-2.11A205.69,205.69,0,0,0,899.68,252.52Z" transform="translate(-363.83 -2.37)"/><path class="cls-2" d="M916.66,464.93c-.69-.52-1.36-1.08-2.07-1.59-2.21-1.73-4.46-3.4-6.75-5.08-6.73-5-13.48-10-19.25-16.05-3.78-3.95-6.5-10.74-11.12-13.65a6.21,6.21,0,0,0-6-.78c-7,3.06-3.35,12.45-.83,17.19a47,47,0,0,0,4.48,7,86.38,86.38,0,0,0,11.5,12.17s0,0,.06,0c1.06,1,2.14,2,3.24,2.92l2.53,2.21a1.43,1.43,0,0,0,1.63.14,108.39,108.39,0,0,1,21.79-2A1.4,1.4,0,0,0,916.66,464.93Z" transform="translate(-363.83 -2.37)"/><path class="cls-2" d="M732.68,547.86A48.13,48.13,0,0,0,722.55,540h0v0c-.29-.2-.57-.32-.85-.49a71.76,71.76,0,0,0-13.2-5.72c-2-.67-4-1.28-6.06-1.83-4.77-1.28-13.73-1.78-19.86-4.31a60.82,60.82,0,0,1,8.33-1.23c1.75-.13,1.86-2.88.08-2.78a55.73,55.73,0,0,0-11.77,2.16,8.67,8.67,0,0,1-2.06-2.18c-1-1.51-3.39-.19-2.46,1.33a13.69,13.69,0,0,0,1.49,1.81,76,76,0,0,0-8.91,3.88c-3.34,1.69-6.68,3.6-10.18,5.69-9.29,5.58-17.24.38-25.75-4-7.35-3.82-14.73-7.77-22.15-11.49-5.81-2.94-16.43-6.58-19.55,2.08-3.54,9.73,12.82,15.67,18.94,18.59,12.41,5.89,25.28,10.88,36.43,19.06,4.3,3.14,8,6.21,13.45,7,7.69,1,15.27.46,22.91,2.33,7.4,1.84,21.92,8.29,34.67,10.2,7.59,1.16,14.54.71,19-3.33l.34-.31a10.4,10.4,0,0,0,1.9-2.33,18.07,18.07,0,0,0,2.62-7.58C740.85,559.24,737.56,552.93,732.68,547.86Z" transform="translate(-363.83 -2.37)"/><path class="cls-1" d="M1006,478.91a201.36,201.36,0,0,1-40.94-2.9c-10.66-1.91-22.62-4-32-9.83a1.38,1.38,0,0,0-1.13-2c-.69,0-1.32-.09-2-.11a6.27,6.27,0,0,0-.57-.38,1.11,1.11,0,0,0-1.68.23l-.2,0c-1-.06-2.13-.11-3.19-.19-3.24-.19-6.51-.32-9.75-.36-9.3-.16-18.63.22-28,.8-.15,0-.31,0-.45,0-8.3.5-16.57,1.14-24.84,1.66-.92.06-1.86.12-2.81.16-2.47.18-5,.3-7.47.43-4.67.16-9.35.44-14,.87-21.49,1.94-47.21,9.76-69.76,18.45h0c-7.29,2.77-14.21,5.66-20.59,8.45a70.93,70.93,0,0,0-12.08,16.26c-.93,1.67-1.84,3.41-2.69,5.2A167.38,167.38,0,0,0,722.52,540v0c-1.17,3.85-2.24,7.77-3.09,11.7-.54,2.55-1.07,5.13-1.49,7.74-.67,3.81-1.11,7.7-1.41,11.52v0c-.29,3-.49,6-.52,9v0c0,.48,0,1,0,1.47a107.67,107.67,0,0,1-22.63-1.48c-15.05-2.64-29.43-8.53-44.71-9.72-15-1.21-28.92,3.82-43.32,7.06-2.46.54-9.35,1.23-17.65,1.87,2.4,7.92,5,15.74,7.9,23.43,14.78-1.06,29.35-2.39,34.69-3.49,10.16-2.17,19.1-6.19,29.66-4,7.5,1.54,14.58,4.22,22.32,4.47,9,.33,18.1-1.36,27-2.43,6.14-.71,12.25-1.48,18.39-2.23,4.29.19,8.53.28,12.83.21,1.21,0,2.42,0,3.65,0,1.91,0,3.81-.09,5.72-.13,3.84-.13,7.65-.33,11.47-.56,1.92-.1,3.81-.23,5.73-.39,27.58-2,55.49-5,83-9.07h0c5.79-.82,11.56-1.72,17.36-2.66,30.83-5,62.35-12.51,88.12-31,1.1-.76,2.11-1.54,3.14-2.35a141.65,141.65,0,0,0,27.59-27.91c.76-1,1.55-2.12,2.28-3.18a142.8,142.8,0,0,0,10.17-16.81,140.23,140.23,0,0,0,5.83-12.86l0-.06c1-2.46,1.89-5,2.74-7.52A1.39,1.39,0,0,0,1006,478.91Z" transform="translate(-363.83 -2.37)"/><path class="cls-1" d="M767.34,485.73h0c-4.39-.7-10.42-1.66-11.94-1.81-20.33-1.79-41.24,4.91-60.31,11.23-11.59,3.87-27.41,13.91-39.37,7.4-9.81-5.36-16.71-14.16-27.15-18.83-4.92-2.22-15.94-7.46-20.79-2.17-5.42,5.82,3.66,12.13,7.76,14.95,10.52,7.22,21.9,13.3,30.69,22.74,2.88,3.07,5.5,6.72,9.22,8.84s7.82,2,11.82,2.57a15,15,0,0,1,6.74,2.46c10.72,7.56,16.42,20.94,26.79,29.15A59,59,0,0,0,716.5,571h0v0q2.67,1,5.35,1.85c-.2.71-.41,1.4-.62,2.12a1.39,1.39,0,0,0,2.66.8c.21-.69.41-1.4.65-2.09,3.36.95,6.79,1.83,10.22,2.57.18.06.38.07.56.13s.57.17.89.23c1.64.34,2.43-2,1-2.56,0-.05-.12-.06-.21-.07l-3.73-.86c-2.65-.63-5.34-1.31-8-2.07.81-2.63,1.59-5.22,2.4-7.85,1.58-5.14,3.19-10.25,4.92-15.36,2.12-6.47,4.44-12.9,7-19.24,1.29-3.19,2.62-6.37,4.06-9.51,2.07-4.63,4.32-9.22,6.78-13.7s12.54-12.55,17.84-16.6c1.31-1,2.3-1.73,2.84-2.11l.38-.27C770.91,486.31,769.29,486,767.34,485.73Z" transform="translate(-363.83 -2.37)"/><path class="cls-1" d="M930.66,470.15a12.38,12.38,0,0,0-3.35-4.42,5.24,5.24,0,0,0-.55-.4,11.51,11.51,0,0,0-2.42-1.63,50.4,50.4,0,0,0-10.73-4q-2.86-.86-5.77-1.46c-7.83-1.7-15.74-2.29-23.64-3.75a49,49,0,0,1-9.06-2.54c-14.39-5.47-24.72-16.36-39.7-22-4.36-1.64-10.67-5-13.17-.06-3.26,6.38,5.24,12.88,9.14,16.58a117.54,117.54,0,0,0,20.15,15.57c2.29,1.41,4.61,2.7,7,3.92a99.34,99.34,0,0,0,18,7.22c13,3.81,40,9.15,48.46-5.45a1.88,1.88,0,0,0,.12-.3,14.52,14.52,0,0,1,2,2.1,9.2,9.2,0,0,1,1.14,1.9,1.32,1.32,0,0,0,.6.63h0A1.43,1.43,0,0,0,930.66,470.15Z" transform="translate(-363.83 -2.37)"/><path class="cls-17" d="M938.27,449.48a1.39,1.39,0,0,1-.8-.09l-29.8-13a1.39,1.39,0,1,1,1.11-2.54l29.79,13a1.39,1.39,0,0,1,.72,1.82A1.37,1.37,0,0,1,938.27,449.48Z" transform="translate(-363.83 -2.37)"/><path class="cls-17" d="M933.94,457.19a1.34,1.34,0,0,1-.49,0l-32.11-5.62a1.38,1.38,0,1,1,.48-2.72l32.11,5.61a1.39,1.39,0,0,1,0,2.73Z" transform="translate(-363.83 -2.37)"/><path class="cls-17" d="M1035.55,458.54l-.25,0-25.6.17a1.39,1.39,0,0,1-1.4-1.37,1.43,1.43,0,0,1,1.38-1.4l25.61-.17a1.39,1.39,0,0,1,.26,2.75Z" transform="translate(-363.83 -2.37)"/><path class="cls-17" d="M1032.88,473.44a1.7,1.7,0,0,1-.45,0l-27.2-4a1.38,1.38,0,0,1,.4-2.74l27.2,4a1.39,1.39,0,0,1,.05,2.74Z" transform="translate(-363.83 -2.37)"/><path class="cls-1" d="M1016.52,420.28c-4.16-.69-9.36,6.3-12.14,10.61l-3.56-1.59c-4.58-2.05-9.28-4-14.05-4.71-7.43-1-15.36-.5-22.86-.59a140.54,140.54,0,0,0-8.74-14.15c-2-2.72-5.41-5.44-9-3.68s-3.82,7.05-4.38,10.36A114.13,114.13,0,0,0,940.22,436a52.73,52.73,0,0,0-7,10.08,50.28,50.28,0,0,0-3.75,9,53.83,53.83,0,0,0-2,8.81v0c0,.29-.09.61-.12.89s-.08.61-.11.92c0,.63-.1,1.26-.15,1.92v0c0,.63-.07,1.25-.1,1.87a5.17,5.17,0,0,0,0,.68,1.27,1.27,0,0,0,1.06,1.33c.54,1.08,1.09,2.1,1.7,3.09a39.71,39.71,0,0,0,5.28,7,45.45,45.45,0,0,0,9.67,7.81c6.32,3.86,13.66,6.53,21.42,8.58,7.46,2,15.19,2.5,22.11.82a28,28,0,0,0,16.25-10.62h0l0-.06a28.5,28.5,0,0,0,1.92-2.86,93.56,93.56,0,0,0,7.3-16,111,111,0,0,0,3.4-12c.33-1.44.59-2.87.86-4.33a115.66,115.66,0,0,0,1.84-21.15C1019.87,428.92,1021,421.05,1016.52,420.28Z" transform="translate(-363.83 -2.37)"/><path class="cls-2" d="M783.75,490.93a63.51,63.51,0,0,0-14.18-4.59c-1.74-.34-2.47,2.33-.72,2.67a60.53,60.53,0,0,1,13.52,4.32C784,494.07,785.37,491.67,783.75,490.93Z" transform="translate(-363.83 -2.37)"/><path class="cls-18" d="M988.29,498.9c-3.24-.92-6.42-2-9.55-2.9a174.78,174.78,0,0,0-29.94-6c-1.17-.12-2.57-.34-4-.54-5.09-.72-11.33-1.28-14.56,2.39-4.17,4.69-.87,12.33,1.42,17.05,3.43,7.11,8.54,12.67,14.67,17.47,5.07,3.93,9.32,7.25,10.79,13.79.69,3,.71,6,1.61,8.83a141.65,141.65,0,0,0,27.59-27.91c.76-1,1.55-2.12,2.28-3.18a142.8,142.8,0,0,0,10.17-16.81A57.07,57.07,0,0,1,988.29,498.9Z" transform="translate(-363.83 -2.37)"/><path class="cls-18" d="M911.87,505c-4.69-4.76-10.29-7.32-15.53-1.93-4,4-7,11.16-5.36,16.79,2.12,7.16,10.07,14.8,15.11,20,3.82,3.94,8.5,8,14.35,6.2,5-1.61,8-6.76,8.54-11.78C930.11,523.39,923.19,507.69,911.87,505Z" transform="translate(-363.83 -2.37)"/><path class="cls-18" d="M848.6,571.36a26,26,0,0,0-9.88-11.54,28,28,0,0,0-4.88-2.48c-12.27-4.71-26.11-.33-39.08-2.29-6.85-1-14.24-4.83-15.64-11.6-1.32-6.28,3-12.18,6.72-17.41s7.23-12,4.39-17.77c-3-6.07-11.34-7.18-17.92-5.58a36.59,36.59,0,0,0-19.46,12.2c-2.25,2.73-5.52,6.18-8.64,4.48a40.07,40.07,0,0,0-9.37-3.27,17.82,17.82,0,0,0-8.87.14c-4.86,2.09-10.22,3.44-13.87,7.2-6.63,6.85-3.49,16.13,2.06,22.19,1.84,2,3.6,4,5.27,6.11a109.65,109.65,0,0,1,13.49,20.56c3.76,7.5,6.86,15.73,11.22,22.88,7.64-.11,15.28-.49,22.92-1.07,27.59-2,55.5-5.05,83-9.09A24,24,0,0,0,848.6,571.36Z" transform="translate(-363.83 -2.37)"/><path class="cls-2" d="M902.46,465.2a279.69,279.69,0,0,0-39.79-.86c-1.78.08-1.77,2.85,0,2.77a278.33,278.33,0,0,1,39.8.86C904.25,468.13,904.22,465.36,902.46,465.2Z" transform="translate(-363.83 -2.37)"/><path class="cls-2" d="M935.21,480.51q-3.13-7.35-5.87-14.87c-.61-1.66-3.28-.92-2.67.76q2.73,7.52,5.87,14.86C933.23,482.88,935.9,482.15,935.21,480.51Z" transform="translate(-363.83 -2.37)"/></svg>